<?xml version="1.0" encoding="UTF-8" standalone="no"?>
<svg width="72px" height="30px" viewBox="0 0 72 30" version="1.1" xmlns="http://www.w3.org/2000/svg" xmlns:xlink="http://www.w3.org/1999/xlink">
    <!-- Generator: Sketch 42 (36781) - http://www.bohemiancoding.com/sketch -->
    <title>10_[plum]</title>
    <desc>Created with Sketch.</desc>
    <defs></defs>
    <g id="Home-page" stroke="none" stroke-width="1" fill="none" fill-rule="evenodd">
        <g id="10_[plum]" fill="#B30077">
            <g id="Group-5">
                <path d="M6.54954673,1.44230769 C6.69959437,1.23520607 6.89090224,1.05399486 7.12347609,0.898668639 C7.35604993,0.743342419 7.60737595,0.617604031 7.87746171,0.521449704 C8.14754746,0.425295377 8.42513143,0.35133162 8.71022194,0.299556213 C8.99531246,0.247780806 9.27289643,0.221893491 9.54298218,0.221893491 C9.97812034,0.221893491 10.4057497,0.284762685 10.8258831,0.410502959 C11.2460165,0.536243232 11.62113,0.724850814 11.9512348,0.976331361 C12.2813396,1.22781191 12.5476701,1.5347615 12.7502344,1.89718935 C12.9527988,2.2596172 13.0540794,2.67011605 13.0540794,3.12869822 L13.0540794,26.9822485 C13.0540794,27.4556237 12.9565499,27.8624243 12.761488,28.2026627 C12.566426,28.5429011 12.3113489,28.8239634 11.9962488,29.045858 C11.6811488,29.2677526 11.3210398,29.434171 10.9159112,29.5451183 C10.5107826,29.6560656 10.0981578,29.7115385 9.67802438,29.7115385 C9.24288623,29.7115385 8.82651027,29.6560656 8.42888403,29.5451183 C8.03125778,29.434171 7.67489998,29.2677526 7.35979994,29.045858 C7.04469989,28.8239634 6.79337387,28.5429011 6.60581432,28.2026627 C6.41825477,27.8624243 6.3244764,27.4556237 6.3244764,26.9822485 L6.3244764,12.5369822 C5.9493573,12.9511855 5.52547907,13.2581351 5.05282901,13.4578402 C4.58017894,13.6575454 4.08127802,13.7573964 3.55611128,13.7573964 C3.07595884,13.7573964 2.62207153,13.6834327 2.19443576,13.535503 C1.76679999,13.3875732 1.39168651,13.1841729 1.06908409,12.9252959 C0.746481663,12.6664188 0.487653367,12.3631674 0.292591435,12.0155325 C0.097529503,11.6678977 0,11.2943807 0,10.8949704 C0,10.6878688 0.0525158862,10.4511848 0.157549234,10.1849112 C0.262582582,9.91863772 0.442637049,9.61538632 0.697718037,9.27514793 L6.54954673,1.44230769 Z M33.2203814,11.0502959 C33.2203814,10.1035456 33.0928428,9.29364242 32.8377618,8.62056213 C32.5826808,7.94748184 32.2413276,7.40015004 31.8136918,6.9785503 C31.386056,6.55695055 30.8984085,6.25000096 30.3507346,6.05769231 C29.8030607,5.86538365 29.2366394,5.76923077 28.6514536,5.76923077 C28.0962773,5.76923077 27.5523628,5.86538365 27.0196937,6.05769231 C26.4870245,6.25000096 26.0106304,6.55695055 25.590497,6.9785503 C25.1703636,7.40015004 24.8327615,7.94748184 24.5776805,8.62056213 C24.3225995,9.29364242 24.195061,10.1035456 24.195061,11.0502959 L24.195061,19.0828402 C24.195061,20.0000046 24.3225995,20.7914168 24.5776805,21.4571006 C24.8327615,22.1227844 25.1703636,22.6738144 25.590497,23.1102071 C26.0106304,23.5465998 26.4870245,23.8720403 27.0196937,24.0865385 C27.5523628,24.3010366 28.0962773,24.408284 28.6514536,24.408284 C29.2366394,24.408284 29.8030607,24.308433 30.3507346,24.1087278 C30.8984085,23.9090227 31.386056,23.5983749 31.8136918,23.1767751 C32.2413276,22.7551754 32.5826808,22.2078436 32.8377618,21.5347633 C33.0928428,20.861683 33.2203814,20.0443835 33.2203814,19.0828402 L33.2203814,11.0502959 Z M17.4204439,11.0502959 C17.4204439,9.26034608 17.7430415,7.68861624 18.3882463,6.33505917 C19.0334512,4.98150211 19.8849588,3.857253 20.9427946,2.96227811 C22.0006305,2.06730322 23.2047447,1.39423303 24.5551735,0.943047337 C25.9056023,0.491861649 27.2860198,0.266272189 28.6964676,0.266272189 C30.1219202,0.266272189 31.5173423,0.491861649 32.8827759,0.943047337 C34.2482094,1.39423303 35.4598259,2.06730322 36.5176618,2.96227811 C37.5754976,3.857253 38.4270052,4.98150211 39.0722101,6.33505917 C39.7174149,7.68861624 40.0400125,9.26034608 40.0400125,11.0502959 L40.0400125,19.0828402 C40.0400125,20.887583 39.7174149,22.4704074 39.0722101,23.8313609 C38.4270052,25.1923145 37.5754976,26.3276582 36.5176618,27.237426 C35.4598259,28.1471939 34.2482094,28.8276605 32.8827759,29.2788462 C31.5173423,29.7300318 30.1219202,29.9556213 28.6964676,29.9556213 C27.2860198,29.9556213 25.9056023,29.7300318 24.5551735,29.2788462 C23.2047447,28.8276605 22.0006305,28.1471939 20.9427946,27.237426 C19.8849588,26.3276582 19.0334512,25.1923145 18.3882463,23.8313609 C17.7430415,22.4704074 17.4204439,20.887583 17.4204439,19.0828402 L17.4204439,11.0502959 Z M50.1456705,28.8017751 C49.8905895,29.1715995 49.6092544,29.4156799 49.3016568,29.5340237 C48.9940591,29.6523675 48.6752127,29.7115385 48.3451078,29.7115385 C48.0600173,29.7115385 47.7899356,29.6597638 47.5348546,29.556213 C47.2797737,29.4526622 47.0547056,29.3084329 46.8596436,29.1235207 C46.6645817,28.9386085 46.5107852,28.7204155 46.3982495,28.4689349 C46.2857137,28.2174544 46.2294467,27.9511848 46.2294467,27.6701183 C46.2294467,27.4630167 46.2632069,27.2485218 46.3307284,27.0266272 C46.3982498,26.8047326 46.514535,26.5828413 46.6795874,26.3609467 L65.1578618,1.1316568 C65.3979381,0.835797337 65.6605175,0.617604253 65.945608,0.477071006 C66.2306985,0.336537759 66.5082825,0.266272189 66.7783682,0.266272189 C67.048454,0.266272189 67.3147846,0.31804682 67.5773679,0.421597633 C67.8399513,0.525148447 68.0725217,0.669377774 68.275086,0.854289941 C68.4776503,1.03920211 68.6389491,1.253697 68.7589872,1.49778107 C68.8790253,1.74186513 68.9390435,1.99704009 68.9390435,2.26331361 C68.9390435,2.45562226 68.9127855,2.64053166 68.8602688,2.81804734 C68.8077522,2.99556302 68.7139738,3.17307604 68.5789309,3.35059172 L50.1456705,28.8017751 Z M43.2810253,6.90088757 C43.2810253,5.83579349 43.4498264,4.87796283 43.7874336,4.02736686 C44.1250408,3.17677089 44.5826792,2.45192607 45.1603626,1.85281065 C45.738046,1.25369523 46.4170014,0.795119933 47.1972491,0.477071006 C47.9774969,0.159022078 48.817751,0 49.7180369,0 C50.6183227,0 51.462328,0.159022078 52.2500781,0.477071006 C53.0378283,0.795119933 53.728037,1.25369523 54.3207252,1.85281065 C54.9134134,2.45192607 55.3785541,3.17677089 55.7161613,4.02736686 C56.0537685,4.87796283 56.2225696,5.83579349 56.2225696,6.90088757 C56.2225696,7.96598166 56.0537685,8.9275105 55.7161613,9.78550296 C55.3785541,10.6434954 54.9134134,11.3683402 54.3207252,11.9600592 C53.728037,12.5517781 53.0378283,13.0066552 52.2500781,13.3247041 C51.462328,13.6427531 50.6183227,13.8017751 49.7180369,13.8017751 C48.817751,13.8017751 47.9774969,13.6427531 47.1972491,13.3247041 C46.4170014,13.0066552 45.738046,12.5517781 45.1603626,11.9600592 C44.5826792,11.3683402 44.1250408,10.6434954 43.7874336,9.78550296 C43.4498264,8.9275105 43.2810253,7.96598166 43.2810253,6.90088757 Z M47.1972491,6.90088757 C47.1972491,7.96598166 47.4373218,8.77958299 47.9174742,9.34171598 C48.3976267,9.90384896 48.9978082,10.1849112 49.7180369,10.1849112 C50.4382656,10.1849112 51.0497005,9.90384896 51.5523601,9.34171598 C52.0550197,8.77958299 52.3063457,7.96598166 52.3063457,6.90088757 C52.3063457,5.83579349 52.0550197,5.02589035 51.5523601,4.47115385 C51.0497005,3.91641734 50.4382656,3.63905325 49.7180369,3.63905325 C48.9978082,3.63905325 48.3976267,3.91641734 47.9174742,4.47115385 C47.4373218,5.02589035 47.1972491,5.83579349 47.1972491,6.90088757 Z M59.0359487,23.0769231 C59.0359487,22.011829 59.2047498,21.0539983 59.542357,20.2034024 C59.8799642,19.3528064 60.3376026,18.6279616 60.915286,18.0288462 C61.4929694,17.4297307 62.175676,16.9711554 62.9634261,16.6531065 C63.7511762,16.3350576 64.5951815,16.1760355 65.4954673,16.1760355 C66.3957532,16.1760355 67.2397585,16.3350576 68.0275086,16.6531065 C68.8152587,16.9711554 69.5054675,17.4297307 70.0981557,18.0288462 C70.6908439,18.6279616 71.1559846,19.3528064 71.4935917,20.2034024 C71.8311989,21.0539983 72,22.011829 72,23.0769231 C72,24.1420172 71.8311989,25.103546 71.4935917,25.9615385 C71.1559846,26.8195309 70.6908439,27.5480739 70.0981557,28.1471893 C69.5054675,28.7463048 68.8152587,29.2048801 68.0275086,29.522929 C67.2397585,29.8409779 66.3957532,30 65.4954673,30 C64.5951815,30 63.7511762,29.8409779 62.9634261,29.522929 C62.175676,29.2048801 61.4929694,28.7463048 60.915286,28.1471893 C60.3376026,27.5480739 59.8799642,26.8195309 59.542357,25.9615385 C59.2047498,25.103546 59.0359487,24.1420172 59.0359487,23.0769231 Z M62.9521726,23.0769231 C62.9521726,24.1568101 63.1959963,24.9741097 63.6836511,25.5288462 C64.171306,26.0835827 64.7752387,26.3609467 65.4954673,26.3609467 C65.8555817,26.3609467 66.1894327,26.2906812 66.4970303,26.1501479 C66.804628,26.0096147 67.0784608,25.8025162 67.318537,25.5288462 C67.5586133,25.2551761 67.74617,24.9112447 67.8812129,24.4970414 C68.0162558,24.0828382 68.0837762,23.6094701 68.0837762,23.0769231 C68.0837762,22.544376 68.0162558,22.0747062 67.8812129,21.6678994 C67.74617,21.2610926 67.5586133,20.9208594 67.318537,20.6471893 C67.0784608,20.3735193 66.804628,20.1664208 66.4970303,20.0258876 C66.1894327,19.8853543 65.8555817,19.8150888 65.4954673,19.8150888 C64.7752387,19.8150888 64.171306,20.0924528 63.6836511,20.6471893 C63.1959963,21.2019259 62.9521726,22.011829 62.9521726,23.0769231 Z" id="10%"></path>
            </g>
        </g>
    </g>
</svg>