<?xml version="1.0" encoding="UTF-8" standalone="no"?>
<svg width="93px" height="53px" viewBox="0 0 93 53" version="1.1" xmlns="http://www.w3.org/2000/svg" xmlns:xlink="http://www.w3.org/1999/xlink">
    <!-- Generator: Sketch 42 (36781) - http://www.bohemiancoding.com/sketch -->
    <title>10% [plum]</title>
    <desc>Created with Sketch.</desc>
    <defs></defs>
    <g id="SRP" stroke="none" stroke-width="1" fill="none" fill-rule="evenodd">
        <g id="10%-[plum]" fill="#B30077">
            <path d="M0.648619673,13.303818 C0.194585902,13.9496344 0,14.5308692 0,15.112104 C0,16.7912266 1.55668722,18.2120227 3.30796033,18.2120227 C4.28088984,18.2120227 5.31868132,17.630788 6.16188689,16.5329001 L9.59957116,11.8184403 L9.59957116,49.770918 C9.59957116,51.7083672 11.0913964,52.6125102 12.6480836,52.6125102 C14.1399089,52.6125102 15.6965961,51.7083672 15.6965961,49.770918 L15.6965961,3.16450041 C15.6965961,1.16246954 14.0750469,0 12.3886358,0 C11.4805682,0 10.2481908,0.387489846 9.53470919,1.35621446 L0.648619673,13.303818 Z M47.9270973,37.6295695 L47.9270973,15.3058489 C47.9270973,8.5247766 43.4516215,5.87692933 38.9112838,5.87692933 C34.5006701,5.87692933 30.0251943,8.5247766 30.0251943,15.3058489 L30.0251943,37.6295695 C30.0251943,44.0877335 34.5006701,47.058489 38.9112838,47.058489 C43.4516215,47.058489 47.9270973,44.4106418 47.9270973,37.6295695 Z M23.8633074,37.6295695 L23.8633074,15.3058489 C23.8633074,5.10194963 31.3872956,0 38.9761458,0 C46.6298579,0 54.1538462,5.10194963 54.1538462,15.3058489 L54.1538462,37.6295695 C54.1538462,47.8980504 46.6298579,53 38.9761458,53 C31.3872956,53 23.8633074,47.8980504 23.8633074,37.6295695 Z" id="10"></path>
            <path d="M87.1740903,3.61153901 C87.3256856,3.40965088 87.3814977,3.23156175 87.3814977,3.00817701 C87.3814977,2.42083413 86.7567858,1.8512987 86.0887764,1.8512987 C85.7739596,1.8512987 85.436124,2.02675271 85.1749271,2.36478588 L67.7531222,26.4083146 C67.5489707,26.6991274 67.4546549,26.9812675 67.4546549,27.2341991 C67.4546549,27.889686 68.0177521,28.4344156 68.7039141,28.4344156 C69.1925745,28.4344156 69.5045846,28.2935311 69.789228,27.8808993 L87.1740903,3.61153901 Z M62.6730769,7.42866763 C62.6730769,10.9542742 64.9031631,13.2660654 68.0077787,13.2660654 C71.1238308,13.2660654 73.3859427,10.9440653 73.3859427,7.42866763 C73.3859427,3.91326998 71.1238308,1.59126984 68.0077787,1.59126984 C64.9031631,1.59126984 62.6730769,3.90306103 62.6730769,7.42866763 Z M64.8673602,7.42866763 C64.8673602,5.10407271 66.1298735,3.55832131 68.0077787,3.55832131 C69.8912991,3.55832131 71.1916595,5.11109965 71.1916595,7.42866763 C71.1916595,9.74623561 69.8912991,11.2990139 68.0077787,11.2990139 C66.1298735,11.2990139 64.8673602,9.75326255 64.8673602,7.42866763 Z M81.5371342,22.8570467 C81.5371342,26.3826533 83.7672204,28.6944444 86.871836,28.6944444 C89.9878881,28.6944444 92.25,26.3724443 92.25,22.8570467 C92.25,19.341649 89.9878881,17.0196489 86.871836,17.0196489 C83.7672204,17.0196489 81.5371342,19.3314401 81.5371342,22.8570467 Z M83.7314175,22.8570467 C83.7314175,20.5324517 84.9939308,18.9867003 86.871836,18.9867003 C88.7553564,18.9867003 90.0557168,20.5394787 90.0557168,22.8570467 C90.0557168,25.1746146 88.7553564,26.727393 86.871836,26.727393 C84.9939308,26.727393 83.7314175,25.1816416 83.7314175,22.8570467 Z" id="%" fill-rule="nonzero"></path>
            <path d="M62.2007007,46.4639993 C62.2007007,43.2720832 64.5187582,40.9339993 67.6187007,40.9339993 C70.7186432,40.9339993 73.0367007,43.2720832 73.0367007,46.4639993 C73.0367007,49.6559153 70.7186432,51.9939993 67.6187007,51.9939993 C64.5187582,51.9939993 62.2007007,49.6559153 62.2007007,46.4639993 Z M64.3327007,46.4639993 C64.3327007,48.5628912 65.7077562,49.9899993 67.6187007,49.9899993 C69.5296452,49.9899993 70.9047007,48.5628912 70.9047007,46.4639993 C70.9047007,44.3548481 69.5353682,42.9379993 67.6187007,42.9379993 C65.7020332,42.9379993 64.3327007,44.3548481 64.3327007,46.4639993 Z M76.5887007,50.8319993 C76.5887007,51.4731651 76.0951434,51.8979993 75.5067007,51.8979993 C74.9326206,51.8979993 74.4567007,51.4664986 74.4567007,50.8479993 L74.4567007,42.2879993 C74.4567007,41.6507773 74.9878013,41.1259993 75.6347007,41.1259993 L81.9387007,41.1259993 C82.5251428,41.1259993 82.9087007,41.5670909 82.9087007,42.1119993 C82.9087007,42.6569076 82.5251428,43.0979993 81.9387007,43.0979993 L76.5887007,43.0979993 L76.5887007,45.8779993 L81.6507007,45.8779993 C82.2248817,45.8779993 82.6047007,46.3221944 82.6047007,46.8639993 C82.6047007,47.3899757 82.2220736,47.8179993 81.6507007,47.8179993 L76.5887007,47.8179993 L76.5887007,50.8319993 Z M86.3007007,50.8319993 C86.3007007,51.4731651 85.8071434,51.8979993 85.2187007,51.8979993 C84.6446206,51.8979993 84.1687007,51.4664986 84.1687007,50.8479993 L84.1687007,42.2879993 C84.1687007,41.6507773 84.6998013,41.1259993 85.3467007,41.1259993 L91.6507007,41.1259993 C92.2371428,41.1259993 92.6207007,41.5670909 92.6207007,42.1119993 C92.6207007,42.6569076 92.2371428,43.0979993 91.6507007,43.0979993 L86.3007007,43.0979993 L86.3007007,45.8779993 L91.3627007,45.8779993 C91.9368817,45.8779993 92.3167007,46.3221944 92.3167007,46.8639993 C92.3167007,47.3899757 91.9340736,47.8179993 91.3627007,47.8179993 L86.3007007,47.8179993 L86.3007007,50.8319993 Z" id="OFF" fill-rule="nonzero"></path>
        </g>
    </g>
</svg>