<?xml version="1.0" encoding="UTF-8" standalone="no"?>
<svg width="90px" height="64px" viewBox="0 0 90 64" version="1.1" xmlns="http://www.w3.org/2000/svg" xmlns:xlink="http://www.w3.org/1999/xlink">
    <!-- Generator: Sketch 43.1 (39012) - http://www.bohemiancoding.com/sketch -->
    <title>50%</title>
    <desc>Created with Sketch.</desc>
    <defs></defs>
    <g id="Homepage" stroke="none" stroke-width="1" fill="none" fill-rule="evenodd">
        <g id="Save-10%-" transform="translate(-15.000000, -17.000000)" fill="#FFFFFF">
            <g id="50%" transform="translate(11.000000, 8.000000)">
                <g transform="translate(33.000000, 39.000000)" id="10%">
                    <path d="M17.4501407,12.2979099 C17.4501407,11.2442684 17.3102025,10.3429246 17.030322,9.5938514 C16.7504414,8.84477818 16.3759011,8.23565085 15.9066896,7.76645114 C15.4374781,7.29725142 14.9024204,6.95564623 14.3015005,6.74162531 C13.7005805,6.52760439 13.0790904,6.42059553 12.4370116,6.42059553 C11.8278598,6.42059553 11.2310647,6.52760439 10.6466083,6.74162531 C10.0621519,6.95564623 9.53944171,7.29725142 9.07846202,7.76645114 C8.61748233,8.23565085 8.24705777,8.84477818 7.96717724,9.5938514 C7.68729671,10.3429246 7.54735855,11.2442684 7.54735855,12.2979099 L7.54735855,21.2373545 C7.54735855,22.2580696 7.68729671,23.1388348 7.96717724,23.8796765 C8.24705777,24.6205181 8.61748233,25.2337612 9.07846202,25.719424 C9.53944171,26.2050869 10.0621519,26.5672707 10.6466083,26.8059864 C11.2310647,27.044702 11.8278598,27.164058 12.4370116,27.164058 C13.0790904,27.164058 13.7005805,27.0529334 14.3015005,26.830681 C14.9024204,26.6084285 15.4374781,26.2627075 15.9066896,25.7935078 C16.3759011,25.3243081 16.7504414,24.7151808 17.030322,23.9661076 C17.3102025,23.2170343 17.4501407,22.3074591 17.4501407,21.2373545 L17.4501407,12.2979099 Z M0.114098156,12.2979099 C0.114098156,10.305869 0.468059397,8.55668581 1.1759925,7.05030779 C1.8839256,5.54392977 2.81821864,4.2927493 3.97889966,3.29672886 C5.13958067,2.30070842 6.46076158,1.55164643 7.94248203,1.04952042 C9.42420247,0.547394416 10.9388273,0.296335178 12.486402,0.296335178 C14.0504402,0.296335178 15.5815284,0.547394416 17.0797124,1.04952042 C18.5778964,1.55164643 19.907309,2.30070842 21.06799,3.29672886 C22.228671,4.2927493 23.1629641,5.54392977 23.8708972,7.05030779 C24.5788303,8.55668581 24.9327915,10.305869 24.9327915,12.2979099 L24.9327915,21.2373545 C24.9327915,23.2458585 24.5788303,25.0073889 23.8708972,26.5219985 C23.1629641,28.0366081 22.228671,29.3001357 21.06799,30.3126193 C19.907309,31.3251029 18.5778964,32.0823963 17.0797124,32.5845223 C15.5815284,33.0866483 14.0504402,33.3377076 12.486402,33.3377076 C10.9388273,33.3377076 9.42420247,33.0866483 7.94248203,32.5845223 C6.46076158,32.0823963 5.13958067,31.3251029 3.97889966,30.3126193 C2.81821864,29.3001357 1.8839256,28.0366081 1.1759925,26.5219985 C0.468059397,25.0073889 0.114098156,23.2458585 0.114098156,21.2373545 L0.114098156,12.2979099 Z M36.020944,32.0535885 C35.7410635,32.4651672 35.4323764,32.736805 35.0948734,32.8685102 C34.7573704,33.0002154 34.407525,33.066067 34.0453267,33.066067 C33.732519,33.066067 33.4361794,33.0084468 33.1562988,32.8932048 C32.8764183,32.7779628 32.6294686,32.6174495 32.4154423,32.4116601 C32.201416,32.2058708 32.0326671,31.963043 31.9091904,31.6831695 C31.7857137,31.403296 31.7239762,31.1069638 31.7239762,30.794164 C31.7239762,30.5636799 31.7610187,30.3249678 31.8351047,30.0780206 C31.9091907,29.8310734 32.0367814,29.5841299 32.2178806,29.3371827 L52.492654,1.25942451 C52.7560709,0.930161553 53.0441789,0.687333765 53.3569866,0.530933861 C53.6697942,0.374533957 53.9743655,0.296335178 54.2707096,0.296335178 C54.5670537,0.296335178 54.8592775,0.353955331 55.1473898,0.469197366 C55.4355021,0.5844394 55.6906835,0.744952684 55.9129415,0.950742031 C56.1351996,1.15653138 56.3121802,1.39524344 56.4438887,1.66688538 C56.5755972,1.93852732 56.6414505,2.22251236 56.6414505,2.51884902 C56.6414505,2.73286994 56.6126397,2.9386562 56.5550172,3.13621397 C56.4973947,3.33377175 56.394499,3.53132656 56.246327,3.72888433 L36.020944,32.0535885 Z M28.4889028,7.68002004 C28.4889028,6.4946734 28.6741151,5.42870057 29.0445452,4.48206957 C29.4149753,3.53543858 29.9171063,2.72875644 30.5509534,2.06199895 C31.1848005,1.39524146 31.9297654,0.884891539 32.7858706,0.530933861 C33.6419757,0.176976184 34.5639213,0 35.5517349,0 C36.5395485,0 37.4656099,0.176976184 38.3299469,0.530933861 C39.1942838,0.884891539 39.9515962,1.39524146 40.6019068,2.06199895 C41.2522175,2.72875644 41.7625802,3.53543858 42.1330103,4.48206957 C42.5034404,5.42870057 42.6886527,6.4946734 42.6886527,7.68002004 C42.6886527,8.86536668 42.5034404,9.93545524 42.1330103,10.8903178 C41.7625802,11.8451804 41.2522175,12.6518625 40.6019068,13.3103884 C39.9515962,13.9689143 39.1942838,14.4751485 38.3299469,14.8291062 C37.4656099,15.1830639 36.5395485,15.3600401 35.5517349,15.3600401 C34.5639213,15.3600401 33.6419757,15.1830639 32.7858706,14.8291062 C31.9297654,14.4751485 31.1848005,13.9689143 30.5509534,13.3103884 C29.9171063,12.6518625 29.4149753,11.8451804 29.0445452,10.8903178 C28.6741151,9.93545524 28.4889028,8.86536668 28.4889028,7.68002004 Z M32.7858706,7.68002004 C32.7858706,8.86536668 33.0492836,9.77082623 33.5761175,10.3964258 C34.1029515,11.0220255 34.761484,11.3348206 35.5517349,11.3348206 C36.3419858,11.3348206 37.0128658,11.0220255 37.5643951,10.3964258 C38.1159244,9.77082623 38.3916849,8.86536668 38.3916849,7.68002004 C38.3916849,6.4946734 38.1159244,5.59332958 37.5643951,4.97596154 C37.0128658,4.3585935 36.3419858,4.04991411 35.5517349,4.04991411 C34.761484,4.04991411 34.1029515,4.3585935 33.5761175,4.97596154 C33.0492836,5.59332958 32.7858706,6.4946734 32.7858706,7.68002004 Z M45.7755549,25.6823821 C45.7755549,24.4970355 45.9607671,23.4310627 46.3311972,22.4844317 C46.7016274,21.5378007 47.2037584,20.7311185 47.8376055,20.064361 C48.4714526,19.3976036 49.2205333,18.8872536 50.0848703,18.533296 C50.9492072,18.1793383 51.8752686,18.0023621 52.8630822,18.0023621 C53.8508958,18.0023621 54.7769572,18.1793383 55.6412942,18.533296 C56.5056311,18.8872536 57.2629435,19.3976036 57.9132541,20.064361 C58.5635648,20.7311185 59.0739275,21.5378007 59.4443576,22.4844317 C59.8147877,23.4310627 60,24.4970355 60,25.6823821 C60,26.8677288 59.8147877,27.9378173 59.4443576,28.8926799 C59.0739275,29.8475425 58.5635648,30.6583403 57.9132541,31.3250978 C57.2629435,31.9918553 56.5056311,32.5022052 55.6412942,32.8561629 C54.7769572,33.2101206 53.8508958,33.3870968 52.8630822,33.3870968 C51.8752686,33.3870968 50.9492072,33.2101206 50.0848703,32.8561629 C49.2205333,32.5022052 48.4714526,31.9918553 47.8376055,31.3250978 C47.2037584,30.6583403 46.7016274,29.8475425 46.3311972,28.8926799 C45.9607671,27.9378173 45.7755549,26.8677288 45.7755549,25.6823821 Z M50.0725227,25.6823821 C50.0725227,26.8841919 50.3400515,27.7937672 50.8751172,28.4111352 C51.4101829,29.0285033 52.0728313,29.3371827 52.8630822,29.3371827 C53.2582077,29.3371827 53.6245164,29.2589839 53.9620194,29.102584 C54.2995224,28.9461841 54.5999778,28.7157035 54.8633948,28.4111352 C55.1268118,28.106567 55.3326032,27.7238046 55.4807752,27.2628364 C55.6289473,26.8018683 55.7030322,26.2750555 55.7030322,25.6823821 C55.7030322,25.0897088 55.6289473,24.5670117 55.4807752,24.1142751 C55.3326032,23.6615386 55.1268118,23.2828919 54.8633948,22.9783236 C54.5999778,22.6737554 54.2995224,22.4432748 53.9620194,22.2868749 C53.6245164,22.130475 53.2582077,22.0522762 52.8630822,22.0522762 C52.0728313,22.0522762 51.4101829,22.3609556 50.8751172,22.9783236 C50.3400515,23.5956917 50.0725227,24.4970355 50.0725227,25.6823821 Z"></path>
                </g>
                <text id="TO" font-family="HotelsSansWeb-Light, Hotels Sans Web" font-size="32" font-weight="300" letter-spacing="-1.20000005">
                    <tspan x="52.42" y="30">T</tspan>
                    <tspan x="71.092" y="30">O</tspan>
                </text>
                <text id="UP" font-family="HotelsSansWeb-Light, Hotels Sans Web" font-size="32" font-weight="300" letter-spacing="-0.899999976">
                    <tspan x="3.90199999" y="30">U</tspan>
                    <tspan x="27.002" y="30">P</tspan>
                </text>
                <text id="5" font-family="HotelsSansWeb-Bold, Hotels Sans Web" font-size="51" font-weight="bold" letter-spacing="2.38000035">
                    <tspan x="2" y="72">5</tspan>
                </text>
            </g>
        </g>
    </g>
</svg>