<?xml version="1.0" encoding="UTF-8" standalone="no"?>
<svg width="118px" height="30px" viewBox="0 0 118 30" version="1.1" xmlns="http://www.w3.org/2000/svg" xmlns:xlink="http://www.w3.org/1999/xlink">
    <!-- Generator: Sketch 42 (36781) - http://www.bohemiancoding.com/sketch -->
    <title>FREE_[white]</title>
    <desc>Created with Sketch.</desc>
    <defs></defs>
    <g id="Home-page" stroke="none" stroke-width="1" fill="none" fill-rule="evenodd">
        <g id="FREE_[white]" fill="#FFFFFF">
            <path d="M0,3.73477833 C0,3.21221414 0.0960581527,2.72423872 0.28817734,2.27083744 C0.480296527,1.81743616 0.741574702,1.42167657 1.0720197,1.0835468 C1.40246471,0.745417029 1.79438197,0.480296527 2.24778325,0.28817734 C2.70118453,0.0960581527 3.1968446,0 3.73477833,0 L22.6161576,0 C23.000396,0 23.3692593,0.0768465222 23.7227586,0.230541872 C24.0762579,0.384237222 24.383644,0.595565158 24.6449261,0.86453202 C24.9062082,1.13349888 25.1136938,1.44088497 25.2673892,1.78669951 C25.4210845,2.13251404 25.497931,2.49753502 25.497931,2.8817734 C25.497931,3.29675084 25.4210845,3.68482578 25.2673892,4.04600985 C25.1136938,4.40719392 24.9023659,4.72226467 24.633399,4.99123153 C24.3644322,5.26019839 24.0532037,5.47152633 23.6997044,5.62522167 C23.3462051,5.77891702 22.9696572,5.85576355 22.5700493,5.85576355 L7.42344828,5.85576355 L7.42344828,12.9564532 L21.2559606,12.9564532 C21.6555685,12.9564532 22.0321165,13.0332997 22.3856158,13.1869951 C22.7391151,13.3406904 23.0503435,13.5520184 23.3193103,13.8209852 C23.5882772,14.0899521 23.7996051,14.4011805 23.9533005,14.7546798 C24.1069958,15.1081791 24.1838424,15.4847271 24.1838424,15.884335 C24.1838424,16.2839429 24.1069958,16.6604908 23.9533005,17.0139901 C23.7996051,17.3674895 23.5882772,17.6787179 23.3193103,17.9476847 C23.0503435,18.2166516 22.7391151,18.4279795 22.3856158,18.5816749 C22.0321165,18.7353702 21.6555685,18.8122167 21.2559606,18.8122167 L7.42344828,18.8122167 L7.42344828,26.5814778 C7.42344828,27.1194116 7.33123245,27.6150716 7.14679803,28.0684729 C6.96236361,28.5218742 6.70492776,28.9176338 6.37448276,29.2557635 C6.04403776,29.5938933 5.65212049,29.8551715 5.19871921,30.0396059 C4.74531793,30.2240403 4.25734251,30.3162562 3.73477833,30.3162562 C3.1968446,30.3162562 2.70118453,30.2240403 2.24778325,30.0396059 C1.79438197,29.8551715 1.40246471,29.5938933 1.0720197,29.2557635 C0.741574702,28.9176338 0.480296527,28.5218742 0.28817734,28.0684729 C0.0960581527,27.6150716 0,27.1194116 0,26.5814778 L0,3.73477833 Z M37.1633498,14.6855172 L43.6185222,14.6855172 C44.6329115,14.6855172 45.5051195,14.5740898 46.2351724,14.3512315 C46.9652253,14.1283733 47.5684705,13.8286718 48.0449261,13.4521182 C48.5213817,13.0755646 48.8710334,12.6336971 49.0938916,12.1265025 C49.3167499,11.6193078 49.4281773,11.0736975 49.4281773,10.4896552 C49.4281773,9.82876517 49.2975383,9.21399299 49.0362562,8.6453202 C48.7749741,8.0766474 48.3945838,7.58482966 47.8950739,7.16985222 C47.395564,6.75487477 46.7846342,6.43211938 46.062266,6.20157635 C45.3398979,5.97103333 44.5253247,5.85576355 43.6185222,5.85576355 L37.1633498,5.85576355 L37.1633498,14.6855172 Z M37.1633498,20.5412808 L37.1633498,26.5814778 C37.1633498,27.1194116 37.0711339,27.6150716 36.8866995,28.0684729 C36.7022651,28.5218742 36.4448292,28.9176338 36.1143842,29.2557635 C35.7839392,29.5938933 35.3881796,29.8551715 34.9270936,30.0396059 C34.4660075,30.2240403 33.9665052,30.3162562 33.4285714,30.3162562 C32.9060072,30.3162562 32.4218741,30.2240403 31.9761576,30.0396059 C31.5304411,29.8551715 31.1423662,29.5977356 30.8119212,29.2672906 C30.4814762,28.9368456 30.220198,28.5487707 30.0280788,28.1030542 C29.8359596,27.6573377 29.7399015,27.1732046 29.7399015,26.6506404 L29.7399015,3.73477833 C29.7399015,3.21221414 29.8359596,2.72423872 30.0280788,2.27083744 C30.220198,1.81743616 30.4814762,1.42167657 30.8119212,1.0835468 C31.1423662,0.745417029 31.5342834,0.480296527 31.9876847,0.28817734 C32.441086,0.0960581527 32.9367461,0 33.4746798,0 L43.5724138,0 C45.7702573,0 47.699105,0.268962828 49.3590148,0.806896552 C51.0189246,1.34483028 52.402162,2.08255689 53.5087685,3.02009852 C54.615375,3.95764016 55.4491598,5.06423007 56.0101478,6.33990148 C56.5711358,7.61557288 56.8516256,8.98344098 56.8516256,10.4435468 C56.8516256,11.427197 56.7017749,12.3724093 56.402069,13.2792118 C56.102363,14.1860144 55.6720225,15.0313261 55.1110345,15.8151724 C54.5500465,16.5990187 53.8661124,17.309849 53.0592118,17.9476847 C52.2523112,18.5855204 51.3416799,19.1196038 50.3272906,19.5499507 L55.0995074,24.5988177 C55.4837458,24.9984256 55.7450239,25.3865006 55.8833498,25.7630542 C56.0216756,26.1396078 56.0908374,26.543052 56.0908374,26.973399 C56.0908374,27.4344851 56.0024639,27.8686679 55.8257143,28.2759606 C55.6489646,28.6832533 55.4184251,29.0367473 55.1340887,29.3364532 C54.8497523,29.6361591 54.5193122,29.8743834 54.1427586,30.051133 C53.766205,30.2278827 53.3781301,30.3162562 52.9785222,30.3162562 C52.455958,30.3162562 51.9602979,30.2394096 51.4915271,30.0857143 C51.0227563,29.9320189 50.619312,29.6630561 50.2811823,29.2788177 L42.1661084,20.5412808 L37.1633498,20.5412808 Z M68.5170443,24.1838424 L83.7558621,24.1838424 C84.15547,24.1838424 84.5320179,24.2606889 84.8855172,24.4143842 C85.2390165,24.5680796 85.550245,24.7755652 85.8192118,25.0368473 C86.0881787,25.2981294 86.2995066,25.6093578 86.453202,25.9705419 C86.6068973,26.3317259 86.6837438,26.7274855 86.6837438,27.1578325 C86.6837438,27.5574404 86.6068973,27.9301461 86.453202,28.2759606 C86.2995066,28.6217751 86.0881787,28.9253189 85.8192118,29.186601 C85.550245,29.4478831 85.2390165,29.6553687 84.8855172,29.809064 C84.5320179,29.9627594 84.15547,30.0396059 83.7558621,30.0396059 L64.8283744,30.0396059 C64.2904407,30.0396059 63.7947806,29.9435478 63.3413793,29.7514286 C62.887978,29.5593094 62.4960608,29.2980312 62.1656158,28.9675862 C61.8351708,28.6371412 61.5738926,28.2452239 61.3817734,27.7918227 C61.1896542,27.3384214 61.0935961,26.8427613 61.0935961,26.3048276 L61.0935961,3.73477833 C61.0935961,3.21221414 61.1896542,2.72423872 61.3817734,2.27083744 C61.5738926,1.81743616 61.8351708,1.42167657 62.1656158,1.0835468 C62.4960608,0.745417029 62.887978,0.480296527 63.3413793,0.28817734 C63.7947806,0.0960581527 64.2904407,0 64.8283744,0 L83.7097537,0 C84.0939921,0 84.4628554,0.0768465222 84.8163547,0.230541872 C85.169854,0.384237222 85.4772401,0.595565158 85.7385222,0.86453202 C85.9998043,1.13349888 86.2072899,1.44088497 86.3609852,1.78669951 C86.5146806,2.13251404 86.5915271,2.49753502 86.5915271,2.8817734 C86.5915271,3.29675084 86.5146806,3.68482578 86.3609852,4.04600985 C86.2072899,4.40719392 85.9959619,4.72226467 85.7269951,4.99123153 C85.4580282,5.26019839 85.1467998,5.47152633 84.7933005,5.62522167 C84.4398012,5.77891702 84.0632532,5.85576355 83.6636453,5.85576355 L68.5170443,5.85576355 L68.5170443,11.9651232 L82.8106404,11.9651232 C83.2102483,11.9651232 83.5867963,12.0419697 83.9402956,12.195665 C84.2937949,12.3493604 84.6050233,12.5606883 84.8739901,12.8296552 C85.142957,13.098622 85.3542849,13.4098504 85.5079803,13.7633498 C85.6616756,14.1168491 85.7385222,14.493397 85.7385222,14.8930049 C85.7385222,15.2926128 85.6616756,15.6691608 85.5079803,16.0226601 C85.3542849,16.3761594 85.142957,16.6873878 84.8739901,16.9563547 C84.6050233,17.2253215 84.2937949,17.4366495 83.9402956,17.5903448 C83.5867963,17.7440402 83.2102483,17.8208867 82.8106404,17.8208867 L68.5170443,17.8208867 L68.5170443,24.1838424 Z M98.8333005,24.1838424 L114.072118,24.1838424 C114.471726,24.1838424 114.848274,24.2606889 115.201773,24.4143842 C115.555273,24.5680796 115.866501,24.7755652 116.135468,25.0368473 C116.404435,25.2981294 116.615763,25.6093578 116.769458,25.9705419 C116.923153,26.3317259 117,26.7274855 117,27.1578325 C117,27.5574404 116.923153,27.9301461 116.769458,28.2759606 C116.615763,28.6217751 116.404435,28.9253189 116.135468,29.186601 C115.866501,29.4478831 115.555273,29.6553687 115.201773,29.809064 C114.848274,29.9627594 114.471726,30.0396059 114.072118,30.0396059 L95.1446305,30.0396059 C94.6066968,30.0396059 94.1110367,29.9435478 93.6576355,29.7514286 C93.2042342,29.5593094 92.8123169,29.2980312 92.4818719,28.9675862 C92.1514269,28.6371412 91.8901487,28.2452239 91.6980296,27.7918227 C91.5059104,27.3384214 91.4098522,26.8427613 91.4098522,26.3048276 L91.4098522,3.73477833 C91.4098522,3.21221414 91.5059104,2.72423872 91.6980296,2.27083744 C91.8901487,1.81743616 92.1514269,1.42167657 92.4818719,1.0835468 C92.8123169,0.745417029 93.2042342,0.480296527 93.6576355,0.28817734 C94.1110367,0.0960581527 94.6066968,0 95.1446305,0 L114.02601,0 C114.410248,0 114.779112,0.0768465222 115.132611,0.230541872 C115.48611,0.384237222 115.793496,0.595565158 116.054778,0.86453202 C116.31606,1.13349888 116.523546,1.44088497 116.677241,1.78669951 C116.830937,2.13251404 116.907783,2.49753502 116.907783,2.8817734 C116.907783,3.29675084 116.830937,3.68482578 116.677241,4.04600985 C116.523546,4.40719392 116.312218,4.72226467 116.043251,4.99123153 C115.774284,5.26019839 115.463056,5.47152633 115.109557,5.62522167 C114.756057,5.77891702 114.379509,5.85576355 113.979901,5.85576355 L98.8333005,5.85576355 L98.8333005,11.9651232 L113.126897,11.9651232 C113.526504,11.9651232 113.903052,12.0419697 114.256552,12.195665 C114.610051,12.3493604 114.921279,12.5606883 115.190246,12.8296552 C115.459213,13.098622 115.670541,13.4098504 115.824236,13.7633498 C115.977932,14.1168491 116.054778,14.493397 116.054778,14.8930049 C116.054778,15.2926128 115.977932,15.6691608 115.824236,16.0226601 C115.670541,16.3761594 115.459213,16.6873878 115.190246,16.9563547 C114.921279,17.2253215 114.610051,17.4366495 114.256552,17.5903448 C113.903052,17.7440402 113.526504,17.8208867 113.126897,17.8208867 L98.8333005,17.8208867 L98.8333005,24.1838424 Z" id="FREE"></path>
        </g>
    </g>
</svg>