<?xml version="1.0" encoding="UTF-8"?>
<svg width="270px" height="30px" viewBox="0 0 270 30" version="1.1" xmlns="http://www.w3.org/2000/svg" xmlns:xlink="http://www.w3.org/1999/xlink">
    <!-- Generator: Sketch 43.1 (39012) - http://www.bohemiancoding.com/sketch -->
    <title>FREE_NIGHTS_[white_thin]</title>
    <desc>Created with Sketch.</desc>
    <defs></defs>
    <g id="Home-page" stroke="none" stroke-width="1" fill="none" fill-rule="evenodd">
        <g id="FREE_NIGHTS_[white_thin]" fill="#FFFFFF">
            <path d="M7.10542736e-14,27.148 C7.10542736e-14,28.248 0.792,28.776 1.584,28.776 C2.376,28.776 3.168,28.204 3.168,27.104 L3.168,17.072 L19.228,17.072 C20.108,17.072 20.548,16.412 20.548,15.752 C20.548,15.048 20.108,14.344 19.228,14.344 L3.168,14.344 L3.168,3.344 L20.064,3.344 C20.988,3.344 21.428,2.64 21.428,1.936 C21.428,1.232 20.988,0.528 20.064,0.528 L1.936,0.528 C0.88,0.528 7.10542736e-14,1.408 7.10542736e-14,2.42 L7.10542736e-14,27.148 Z M29.04,3.344 L29.04,15.928 L37.928,15.928 C43.604,15.928 46.112,13.332 46.112,10.12 C46.112,6.424 43.164,3.344 37.928,3.344 L29.04,3.344 Z M37.576,18.7 L29.04,18.7 L29.04,27.236 C29.04,28.248 28.204,28.776 27.412,28.776 C26.62,28.776 25.828,28.292 25.828,27.28 L25.828,2.068 C25.828,1.144 26.488,0.528 27.456,0.528 L37.884,0.528 C45.496,0.528 49.368,4.796 49.368,9.944 C49.368,14.388 46.948,17.6 41.536,18.524 L48.576,26.18 C48.972,26.576 49.148,26.972 49.148,27.368 C49.148,28.204 48.4,28.82 47.564,28.82 C47.168,28.82 46.728,28.688 46.376,28.292 L37.576,18.7 Z M57.596,16.06 L74.14,16.06 C75.064,16.06 75.504,15.356 75.504,14.696 C75.504,13.948 75.02,13.244 74.14,13.244 L57.596,13.244 L57.596,3.344 L74.976,3.344 C75.9,3.344 76.384,2.64 76.384,1.892 C76.384,1.232 75.944,0.528 75.02,0.528 L56.452,0.528 C55.22,0.528 54.428,1.408 54.428,2.42 L54.428,26.576 C54.428,27.632 55.22,28.512 56.452,28.512 L74.976,28.512 C75.988,28.512 76.472,27.852 76.472,27.148 C76.472,26.4 75.944,25.608 74.976,25.608 L57.596,25.608 L57.596,16.06 Z M84.26,16.06 L100.804,16.06 C101.728,16.06 102.168,15.356 102.168,14.696 C102.168,13.948 101.684,13.244 100.804,13.244 L84.26,13.244 L84.26,3.344 L101.64,3.344 C102.564,3.344 103.048,2.64 103.048,1.892 C103.048,1.232 102.608,0.528 101.684,0.528 L83.116,0.528 C81.884,0.528 81.092,1.408 81.092,2.42 L81.092,26.576 C81.092,27.632 81.884,28.512 83.116,28.512 L101.64,28.512 C102.652,28.512 103.136,27.852 103.136,27.148 C103.136,26.4 102.608,25.608 101.64,25.608 L84.26,25.608 L84.26,16.06 Z M139.832,17.16 L140.272,23.848 L123.332,1.276 C122.804,0.616 122.188,0.264 121.528,0.264 C120.604,0.264 119.768,0.924 119.768,2.2 L119.768,27.148 C119.768,28.248 120.604,28.776 121.44,28.776 C122.276,28.776 123.112,28.248 123.112,27.148 L123.112,11.748 L122.76,5.808 L139.216,27.764 C139.612,28.424 140.404,28.776 141.152,28.776 C142.164,28.776 143.176,28.16 143.176,26.884 L143.176,1.672 C143.176,0.704 142.34,0.264 141.548,0.264 C140.668,0.264 139.832,0.748 139.832,1.672 L139.832,17.16 Z M149.336,27.148 C149.336,28.204 150.128,28.776 150.964,28.776 C151.932,28.776 152.636,28.204 152.636,27.148 L152.636,1.892 C152.636,0.836 151.8,0.264 150.964,0.264 C150.128,0.264 149.336,0.792 149.336,1.892 L149.336,27.148 Z M182.908,22.396 L182.908,14.828 C182.908,13.86 182.512,13.2 181.236,13.2 L171.908,13.2 C170.94,13.2 170.368,13.86 170.368,14.608 C170.368,15.312 170.896,16.104 171.908,16.104 L179.828,16.104 L179.828,22.088 C177.892,24.684 174.504,26.048 171.248,26.048 C165.352,26.048 160.556,21.56 160.556,14.52 C160.336,7.656 165.484,2.992 171.468,2.992 C174.196,2.992 177.496,4.048 179.388,6.248 C179.74,6.644 180.136,6.82 180.488,6.82 C181.324,6.82 182.072,6.072 182.072,5.192 C182.072,4.884 181.984,4.488 181.676,4.18 C179.036,1.408 175.252,-5.68434189e-14 171.424,-5.68434189e-14 C162.712,-5.68434189e-14 157.256,6.864 157.256,14.52 C157.256,23.408 163.812,29.04 171.336,29.04 C175.956,29.04 179.652,27.06 182.424,23.848 C182.776,23.408 182.908,22.88 182.908,22.396 Z M191.576,1.848 C191.576,0.836 190.74,0.264 189.948,0.264 C189.156,0.264 188.408,0.792 188.408,1.848 L188.408,27.148 C188.408,28.204 189.244,28.776 190.08,28.776 C190.828,28.776 191.576,28.248 191.576,27.148 L191.576,16.368 L207.768,16.368 L207.768,27.104 C207.768,28.204 208.56,28.776 209.352,28.776 C210.144,28.776 210.98,28.204 210.98,27.104 L210.98,1.848 C210.98,0.792 210.188,0.264 209.352,0.264 C208.56,0.264 207.768,0.792 207.768,1.848 L207.768,13.596 L191.576,13.596 L191.576,1.848 Z M215.864,0.528 C214.808,0.528 214.324,1.1 214.324,1.892 C214.324,2.64 214.808,3.344 215.864,3.344 L225.588,3.344 L225.588,27.148 C225.588,28.248 226.468,28.776 227.216,28.776 C227.964,28.776 228.888,28.248 228.888,27.148 L228.888,3.344 L238.656,3.344 C239.712,3.344 240.284,2.64 240.284,1.892 C240.284,1.1 239.712,0.528 238.656,0.528 L215.864,0.528 Z M243.408,20.504 C242.528,20.504 241.604,21.032 241.604,21.956 C241.604,24.508 245.696,29.04 254.452,29.04 C259.864,29.04 267.388,27.104 267.388,20.372 C267.388,8.316 245.388,16.588 245.388,8.448 C245.388,4.444 250.14,2.992 254.056,2.992 C257.224,2.992 261.888,3.828 263.252,7.172 C263.472,7.7 264,7.92 264.528,7.92 C265.408,7.92 266.332,7.348 266.332,6.468 C266.332,5.148 264.924,3.168 262.9,1.98 C260.656,0.66 257.62,-5.68434189e-14 254.012,-5.68434189e-14 C247.896,-5.68434189e-14 241.956,2.596 241.956,8.404 C241.956,20.46 264,12.188 264,20.416 C264,24.86 258.192,26.048 254.452,26.048 C250.932,26.048 246.048,25.256 244.904,21.56 C244.684,20.812 244.112,20.504 243.408,20.504 Z" id="FREE-NIGHTS"></path>
        </g>
    </g>
</svg>