<?xml version="1.0" encoding="UTF-8"?>
<svg width="372px" height="30px" viewBox="0 0 372 30" version="1.1" xmlns="http://www.w3.org/2000/svg" xmlns:xlink="http://www.w3.org/1999/xlink">
    <!-- Generator: Sketch 43.1 (39012) - http://www.bohemiancoding.com/sketch -->
    <title>INSTANT_SAVINGS_[white_thin]</title>
    <desc>Created with Sketch.</desc>
    <defs></defs>
    <g id="Home-page" stroke="none" stroke-width="1" fill="none" fill-rule="evenodd">
        <g id="INSTANT_SAVINGS_[white_thin]" fill="#FFFFFF">
            <path d="M0,27.192 C0,28.248 0.792,28.82 1.628,28.82 C2.596,28.82 3.3,28.248 3.3,27.192 L3.3,1.936 C3.3,0.88 2.464,0.308 1.628,0.308 C0.792,0.308 0,0.836 0,1.936 L0,27.192 Z M29.524,17.204 L29.964,23.892 L13.024,1.32 C12.496,0.66 11.88,0.308 11.22,0.308 C10.296,0.308 9.46,0.968 9.46,2.244 L9.46,27.192 C9.46,28.292 10.296,28.82 11.132,28.82 C11.968,28.82 12.804,28.292 12.804,27.192 L12.804,11.792 L12.452,5.852 L28.908,27.808 C29.304,28.468 30.096,28.82 30.844,28.82 C31.856,28.82 32.868,28.204 32.868,26.928 L32.868,1.716 C32.868,0.748 32.032,0.308 31.24,0.308 C30.36,0.308 29.524,0.792 29.524,1.716 L29.524,17.204 Z M38.852,20.548 C37.972,20.548 37.048,21.076 37.048,22 C37.048,24.552 41.14,29.084 49.896,29.084 C55.308,29.084 62.832,27.148 62.832,20.416 C62.832,8.36 40.832,16.632 40.832,8.492 C40.832,4.488 45.584,3.036 49.5,3.036 C52.668,3.036 57.332,3.872 58.696,7.216 C58.916,7.744 59.444,7.964 59.972,7.964 C60.852,7.964 61.776,7.392 61.776,6.512 C61.776,5.192 60.368,3.212 58.344,2.024 C56.1,0.704 53.064,0.044 49.456,0.044 C43.34,0.044 37.4,2.64 37.4,8.448 C37.4,20.504 59.444,12.232 59.444,20.46 C59.444,24.904 53.636,26.092 49.896,26.092 C46.376,26.092 41.492,25.3 40.348,21.604 C40.128,20.856 39.556,20.548 38.852,20.548 Z M65.736,0.572 C64.68,0.572 64.196,1.144 64.196,1.936 C64.196,2.684 64.68,3.388 65.736,3.388 L75.46,3.388 L75.46,27.192 C75.46,28.292 76.34,28.82 77.088,28.82 C77.836,28.82 78.76,28.292 78.76,27.192 L78.76,3.388 L88.528,3.388 C89.584,3.388 90.156,2.684 90.156,1.936 C90.156,1.144 89.584,0.572 88.528,0.572 L65.736,0.572 Z M112.508,18.568 L105.6,4.708 L98.648,18.568 L112.508,18.568 Z M113.872,21.34 L97.328,21.34 L93.896,28.028 C93.632,28.6 93.104,28.82 92.576,28.82 C91.696,28.82 90.816,28.204 90.816,27.368 C90.816,27.192 90.86,26.972 90.992,26.752 L104.148,0.836 C104.412,0.264 104.984,0 105.6,0 C106.172,0 106.7,0.264 107.008,0.836 L120.12,26.664 C120.252,26.928 120.296,27.192 120.296,27.412 C120.296,28.292 119.504,28.82 118.668,28.82 C118.052,28.82 117.48,28.556 117.172,27.94 L113.872,21.34 Z M143.88,17.204 L144.32,23.892 L127.38,1.32 C126.852,0.66 126.236,0.308 125.576,0.308 C124.652,0.308 123.816,0.968 123.816,2.244 L123.816,27.192 C123.816,28.292 124.652,28.82 125.488,28.82 C126.324,28.82 127.16,28.292 127.16,27.192 L127.16,11.792 L126.808,5.852 L143.264,27.808 C143.66,28.468 144.452,28.82 145.2,28.82 C146.212,28.82 147.224,28.204 147.224,26.928 L147.224,1.716 C147.224,0.748 146.388,0.308 145.596,0.308 C144.716,0.308 143.88,0.792 143.88,1.716 L143.88,17.204 Z M152.108,0.572 C151.052,0.572 150.568,1.144 150.568,1.936 C150.568,2.684 151.052,3.388 152.108,3.388 L161.832,3.388 L161.832,27.192 C161.832,28.292 162.712,28.82 163.46,28.82 C164.208,28.82 165.132,28.292 165.132,27.192 L165.132,3.388 L174.9,3.388 C175.956,3.388 176.528,2.684 176.528,1.936 C176.528,1.144 175.956,0.572 174.9,0.572 L152.108,0.572 Z M191.664,20.548 C190.784,20.548 189.86,21.076 189.86,22 C189.86,24.552 193.952,29.084 202.708,29.084 C208.12,29.084 215.644,27.148 215.644,20.416 C215.644,8.36 193.644,16.632 193.644,8.492 C193.644,4.488 198.396,3.036 202.312,3.036 C205.48,3.036 210.144,3.872 211.508,7.216 C211.728,7.744 212.256,7.964 212.784,7.964 C213.664,7.964 214.588,7.392 214.588,6.512 C214.588,5.192 213.18,3.212 211.156,2.024 C208.912,0.704 205.876,0.044 202.268,0.044 C196.152,0.044 190.212,2.64 190.212,8.448 C190.212,20.504 212.256,12.232 212.256,20.46 C212.256,24.904 206.448,26.092 202.708,26.092 C199.188,26.092 194.304,25.3 193.16,21.604 C192.94,20.856 192.368,20.548 191.664,20.548 Z M238.876,18.568 L231.968,4.708 L225.016,18.568 L238.876,18.568 Z M240.24,21.34 L223.696,21.34 L220.264,28.028 C220,28.6 219.472,28.82 218.944,28.82 C218.064,28.82 217.184,28.204 217.184,27.368 C217.184,27.192 217.228,26.972 217.36,26.752 L230.516,0.836 C230.78,0.264 231.352,0 231.968,0 C232.54,0 233.068,0.264 233.376,0.836 L246.488,26.664 C246.62,26.928 246.664,27.192 246.664,27.412 C246.664,28.292 245.872,28.82 245.036,28.82 C244.42,28.82 243.848,28.556 243.54,27.94 L240.24,21.34 Z M260.524,27.984 C260.876,28.732 261.316,29.084 262.02,29.084 C262.592,29.084 263.164,28.732 263.472,28.116 L276.144,2.42 C276.232,2.244 276.232,2.068 276.232,1.892 C276.232,0.924 275.352,0.308 274.516,0.308 C273.944,0.308 273.416,0.616 273.108,1.276 L262.064,24.2 L250.756,1.232 C250.404,0.572 249.876,0.308 249.304,0.308 C248.424,0.308 247.544,0.924 247.544,1.848 C247.544,2.024 247.588,2.244 247.676,2.464 L260.524,27.984 Z M279.752,27.192 C279.752,28.248 280.544,28.82 281.38,28.82 C282.348,28.82 283.052,28.248 283.052,27.192 L283.052,1.936 C283.052,0.88 282.216,0.308 281.38,0.308 C280.544,0.308 279.752,0.836 279.752,1.936 L279.752,27.192 Z M309.276,17.204 L309.716,23.892 L292.776,1.32 C292.248,0.66 291.632,0.308 290.972,0.308 C290.048,0.308 289.212,0.968 289.212,2.244 L289.212,27.192 C289.212,28.292 290.048,28.82 290.884,28.82 C291.72,28.82 292.556,28.292 292.556,27.192 L292.556,11.792 L292.204,5.852 L308.66,27.808 C309.056,28.468 309.848,28.82 310.596,28.82 C311.608,28.82 312.62,28.204 312.62,26.928 L312.62,1.716 C312.62,0.748 311.784,0.308 310.992,0.308 C310.112,0.308 309.276,0.792 309.276,1.716 L309.276,17.204 Z M342.892,22.44 L342.892,14.872 C342.892,13.904 342.496,13.244 341.22,13.244 L331.892,13.244 C330.924,13.244 330.352,13.904 330.352,14.652 C330.352,15.356 330.88,16.148 331.892,16.148 L339.812,16.148 L339.812,22.132 C337.876,24.728 334.488,26.092 331.232,26.092 C325.336,26.092 320.54,21.604 320.54,14.564 C320.32,7.7 325.468,3.036 331.452,3.036 C334.18,3.036 337.48,4.092 339.372,6.292 C339.724,6.688 340.12,6.864 340.472,6.864 C341.308,6.864 342.056,6.116 342.056,5.236 C342.056,4.928 341.968,4.532 341.66,4.224 C339.02,1.452 335.236,0.044 331.408,0.044 C322.696,0.044 317.24,6.908 317.24,14.564 C317.24,23.452 323.796,29.084 331.32,29.084 C335.94,29.084 339.636,27.104 342.408,23.892 C342.76,23.452 342.892,22.924 342.892,22.44 Z M348.216,20.548 C347.336,20.548 346.412,21.076 346.412,22 C346.412,24.552 350.504,29.084 359.26,29.084 C364.672,29.084 372.196,27.148 372.196,20.416 C372.196,8.36 350.196,16.632 350.196,8.492 C350.196,4.488 354.948,3.036 358.864,3.036 C362.032,3.036 366.696,3.872 368.06,7.216 C368.28,7.744 368.808,7.964 369.336,7.964 C370.216,7.964 371.14,7.392 371.14,6.512 C371.14,5.192 369.732,3.212 367.708,2.024 C365.464,0.704 362.428,0.044 358.82,0.044 C352.704,0.044 346.764,2.64 346.764,8.448 C346.764,20.504 368.808,12.232 368.808,20.46 C368.808,24.904 363,26.092 359.26,26.092 C355.74,26.092 350.856,25.3 349.712,21.604 C349.492,20.856 348.92,20.548 348.216,20.548 Z" id="INSTANT-SAVINGS"></path>
        </g>
    </g>
</svg>