<?xml version="1.0" encoding="UTF-8" standalone="no"?>
<svg width="118px" height="23px" viewBox="0 0 118 23" version="1.1" xmlns="http://www.w3.org/2000/svg" xmlns:xlink="http://www.w3.org/1999/xlink">
    <!-- Generator: Sketch 42 (36781) - http://www.bohemiancoding.com/sketch -->
    <title>NIGHTS_[white]</title>
    <desc>Created with Sketch.</desc>
    <defs></defs>
    <g id="Home-page" stroke="none" stroke-width="1" fill="none" fill-rule="evenodd">
        <g id="NIGHTS_[white]" fill="#FFFFFF">
            <path d="M15.7716124,1.3254996 C15.7716124,0.965261116 15.9095141,0.689457662 16.1853217,0.498080967 C16.4611293,0.306704271 16.7735189,0.211017358 17.1224999,0.211017358 C17.4377086,0.211017358 17.730398,0.301075629 18.0005769,0.481194872 C18.2707557,0.661314115 18.4058431,0.942746211 18.4058431,1.3254996 L18.4058431,21.1328886 C18.4058431,21.39181 18.360814,21.6141414 18.2707544,21.7998893 C18.1806948,21.9856373 18.059679,22.1376106 17.9077033,22.2558139 C17.7557277,22.3740171 17.5868685,22.4640754 17.4011205,22.5259914 C17.2153725,22.5879074 17.0211844,22.6188649 16.8185502,22.6188649 C16.5258565,22.6188649 16.2387957,22.5513212 15.9573594,22.4162318 C15.6759231,22.2811423 15.4564061,22.0841399 15.2988017,21.8252185 L2.36405325,4.56762977 L2.63423076,9.24507798 L2.63423076,21.3524078 C2.63423076,21.5662994 2.59764459,21.7520446 2.52447115,21.9096489 C2.4512977,22.0672533 2.35279647,22.1995264 2.22896449,22.3064722 C2.10513251,22.413418 1.96441646,22.492219 1.80681212,22.5428775 C1.64920779,22.593536 1.48597717,22.6188649 1.31711538,22.6188649 C1.14825359,22.6188649 0.985022974,22.593536 0.827418636,22.5428775 C0.669814299,22.492219 0.529098251,22.413418 0.405266271,22.3064722 C0.281434291,22.1995264 0.182933058,22.0672533 0.109759615,21.9096489 C0.0365861725,21.7520446 0,21.5662994 0,21.3524078 L0,1.73076587 C0,1.2241805 0.140716048,0.844247173 0.422152365,0.590954487 C0.703588683,0.337661801 1.02442127,0.211017358 1.38465976,0.211017358 C1.90250258,0.211017358 2.3753085,0.475563528 2.80309171,1.00466381 L16.1262204,18.7519492 L15.7716124,13.5003738 L15.7716124,1.3254996 Z M23.2352662,1.49436055 C23.2352662,1.06657735 23.3675393,0.745744757 23.6320894,0.531853156 C23.8966396,0.317961554 24.1921433,0.211017358 24.5186094,0.211017358 C24.6874712,0.211017358 24.8507018,0.239160568 25.0083061,0.295447831 C25.1659105,0.351735095 25.3066265,0.433350402 25.4304585,0.540296203 C25.5542905,0.647242004 25.6527917,0.78232941 25.7259652,0.945562474 C25.7991386,1.10879554 25.8357248,1.2917264 25.8357248,1.49436055 L25.8357248,21.3524078 C25.8357248,21.7689336 25.7118946,22.0841375 25.4642307,22.2980291 C25.2165667,22.5119207 24.9013628,22.6188649 24.5186094,22.6188649 C24.1921433,22.6188649 23.8966396,22.5119207 23.6320894,22.2980291 C23.3675393,22.0841375 23.2352662,21.7689336 23.2352662,21.3524078 L23.2352662,1.49436055 Z M49.6282321,17.6036948 C49.6282321,17.7950715 49.6000889,17.9892597 49.5438016,18.1862651 C49.4875143,18.3832705 49.3861988,18.57183 49.2398519,18.7519492 C48.147879,20.012784 46.8786202,21.0090536 45.4320376,21.740788 C43.9854549,22.4725224 42.3503344,22.8383841 40.5266271,22.8383841 C39.0519008,22.8383841 37.6447403,22.5710237 36.3051034,22.0362947 C34.9654666,21.5015656 33.7890804,20.7388847 32.7759097,19.7482288 C31.7627389,18.757573 30.9578431,17.5586723 30.3611981,16.1514907 C29.7645531,14.7443091 29.4662351,13.1682894 29.4662351,11.4233842 C29.4662351,10.4214709 29.5816223,9.4420872 29.8124,8.48520372 C30.0431778,7.52832024 30.3808963,6.62773753 30.8255657,5.78342858 C31.2702351,4.93911963 31.8162134,4.16236704 32.4635169,3.45314752 C33.1108204,2.743928 33.8453582,2.13603468 34.6671523,1.62944931 C35.4889463,1.12286393 36.397972,0.726044679 37.3942565,0.438979635 C38.3905411,0.151914592 39.4571687,0.00838422262 40.5941715,0.00838422262 C42.1026701,0.00838422262 43.5604884,0.281373356 44.96767,0.827359812 C46.3748516,1.37334627 47.6018955,2.19231367 48.6488386,3.28428658 C48.7726706,3.40811856 48.8571002,3.54320596 48.90213,3.68955285 C48.9471598,3.83589973 48.9696744,3.97098714 48.9696744,4.09481912 C48.9696744,4.26368091 48.9359025,4.42691153 48.8683578,4.58451586 C48.8008131,4.7421202 48.7079405,4.87720761 48.5897373,4.98978213 C48.471534,5.10235666 48.3392609,5.19241493 48.192914,5.25995965 C48.0465672,5.32750437 47.8889652,5.36127622 47.7201034,5.36127622 C47.585014,5.36127622 47.4414836,5.32750437 47.289508,5.25995965 C47.1375324,5.19241493 46.994002,5.07984209 46.8589126,4.92223776 C46.4874166,4.4831971 46.0540112,4.10326377 45.5586833,3.78242637 C45.0633554,3.46158897 44.5398917,3.1970428 43.9882765,2.98877992 C43.4366613,2.78051705 42.8737971,2.62291507 42.299667,2.51596927 C41.7255369,2.40902347 41.1683014,2.35555137 40.6279437,2.35555137 C39.4571686,2.35555137 38.3426975,2.57506841 37.2844969,3.01410906 C36.2262964,3.45314972 35.3031991,4.06948601 34.5151774,4.86313643 C33.7271557,5.65678684 33.1080051,6.61084165 32.657707,7.72532946 C32.2074089,8.83981728 32.0047778,10.0724899 32.0498076,11.4233842 C32.0498076,12.8080509 32.2721389,14.0576094 32.7168083,15.1720972 C33.1614777,16.286585 33.7637424,17.2350112 34.5236204,18.0174041 C35.2834985,18.7997971 36.1728239,19.4048761 37.1916234,19.8326593 C38.2104229,20.2604425 39.2995651,20.4743309 40.4590827,20.4743309 C41.1007575,20.4743309 41.7396084,20.4096015 42.3756544,20.2801408 C43.0117005,20.1506801 43.6252225,19.9536776 44.2162388,19.6891275 C44.807255,19.4245774 45.3560476,19.0981161 45.862633,18.709734 C46.3692184,18.3213519 46.8138811,17.8738749 47.1966345,17.3672895 L47.1966345,12.6560691 L40.9825516,12.6560691 C40.5885408,12.6560691 40.2874085,12.532239 40.0791456,12.284575 C39.8708827,12.0369111 39.7667528,11.7723649 39.7667528,11.4909286 C39.7667528,11.1982348 39.873697,10.9393173 40.0875886,10.7141682 C40.3014802,10.4890192 40.5997982,10.3764463 40.9825516,10.3764463 L48.3111167,10.3764463 C48.8177021,10.3764463 49.1638636,10.4946478 49.3496115,10.7310543 C49.5353595,10.9674608 49.6282321,11.2770361 49.6282321,11.6597895 L49.6282321,17.6036948 Z M56.4333282,10.6972821 L69.1485575,10.6972821 L69.1485575,1.46058836 C69.1485575,1.04406261 69.2780162,0.731672983 69.5369376,0.523410108 C69.795859,0.315147234 70.0829198,0.211017358 70.3981285,0.211017358 C70.7245946,0.211017358 71.0200983,0.315147234 71.2846484,0.523410108 C71.5491986,0.731672983 71.6814717,1.04406261 71.6814717,1.46058836 L71.6814717,21.3017495 C71.6814717,21.7407902 71.5463842,22.0700657 71.2762054,22.2895861 C71.0060265,22.5091064 70.7133371,22.6188649 70.3981285,22.6188649 C70.0829198,22.6188649 69.795859,22.5091064 69.5369376,22.2895861 C69.2780162,22.0700657 69.1485575,21.7407902 69.1485575,21.3017495 L69.1485575,12.8755883 L56.4333282,12.8755883 L56.4333282,21.3524078 C56.4333282,21.780191 56.3094981,22.0982093 56.0618341,22.3064722 C55.8141702,22.514735 55.5439954,22.6188649 55.2513016,22.6188649 C55.0824398,22.6188649 54.9192092,22.5907217 54.7616048,22.5344344 C54.6040005,22.4781472 54.4632845,22.3965319 54.3394525,22.2895861 C54.2156205,22.1826403 54.1171193,22.0503672 54.0439458,21.8927628 C53.9707724,21.7351585 53.9341862,21.555042 53.9341862,21.3524078 L53.9341862,1.46058836 C53.9341862,1.04406261 54.0580163,0.731672983 54.3056803,0.523410108 C54.5533443,0.315147234 54.8347763,0.211017358 55.149985,0.211017358 C55.4651937,0.211017358 55.7578831,0.320775875 56.0280619,0.540296203 C56.2982408,0.759816531 56.4333282,1.06657752 56.4333282,1.46058836 L56.4333282,10.6972821 Z M93.4307615,0.413650493 C93.8472873,0.413650493 94.1653055,0.514966048 94.3848259,0.717600197 C94.6043462,0.920234345 94.7141047,1.17915187 94.7141047,1.49436055 C94.7141047,1.78705432 94.6043462,2.05160049 94.3848259,2.288007 C94.1653055,2.5244135 93.8472873,2.64261498 93.4307615,2.64261498 L85.7475885,2.64261498 L85.7475885,21.3524078 C85.7475885,21.5662994 85.7053737,21.7520446 85.6209428,21.9096489 C85.5365119,22.0672533 85.432382,22.1995264 85.30855,22.3064722 C85.184718,22.413418 85.044002,22.492219 84.8863976,22.5428775 C84.7287933,22.593536 84.57682,22.6188649 84.4304731,22.6188649 C84.2841262,22.6188649 84.1377815,22.593536 83.9914346,22.5428775 C83.8450877,22.492219 83.7100003,22.413418 83.5861684,22.3064722 C83.4623364,22.1995264 83.3610208,22.0672533 83.2822187,21.9096489 C83.2034165,21.7520446 83.164016,21.5662994 83.164016,21.3524078 L83.164016,2.64261498 L75.5146151,2.64261498 C75.0980894,2.64261498 74.7913284,2.5244135 74.594323,2.288007 C74.3973176,2.05160049 74.2988163,1.78705432 74.2988163,1.49436055 C74.2988163,1.17915187 74.3973176,0.920234345 74.594323,0.717600197 C74.7913284,0.514966048 75.0980894,0.413650493 75.5146151,0.413650493 L93.4307615,0.413650493 Z M97.1625884,16.1177185 C97.4440248,16.1177185 97.6888707,16.1824479 97.8971335,16.3119086 C98.1053964,16.4413693 98.2545554,16.6524434 98.3446151,16.9451371 C98.5697641,17.6768716 98.9553261,18.2706933 99.5013125,18.7266201 C100.047299,19.1825469 100.674893,19.5399657 101.384112,19.7988871 C102.093332,20.0578085 102.839127,20.2351107 103.62152,20.3307991 C104.403913,20.4264874 105.144079,20.4743309 105.842041,20.4743309 C106.326112,20.4743309 106.849575,20.4461877 107.412448,20.3899004 C107.975321,20.3336132 108.53537,20.2379263 109.092614,20.1028368 C109.649858,19.9677474 110.184579,19.7904452 110.696793,19.5709248 C111.209007,19.3514045 111.662113,19.0784154 112.056124,18.7519492 C112.450135,18.4254831 112.765339,18.0399211 113.001745,17.5952518 C113.238152,17.1505824 113.356353,16.6355617 113.356353,16.0501741 C113.356353,15.4084993 113.195937,14.8822213 112.875099,14.4713243 C112.554262,14.0604272 112.115228,13.733966 111.557984,13.4919308 C111.00074,13.2498955 110.353446,13.069779 109.616083,12.9515757 C108.87872,12.8333725 108.093525,12.7376856 107.260473,12.6645121 C106.427422,12.5913387 105.571868,12.523795 104.693787,12.461879 C103.815705,12.399963 102.960152,12.3014618 102.1271,12.1663723 C101.294049,12.0312829 100.508853,11.8427234 99.7714901,11.6006882 C99.0341269,11.3586529 98.3868331,11.0265631 97.8295892,10.6044086 C97.2723453,10.1822541 96.8333112,9.64753314 96.5124738,9.00022961 C96.1916364,8.35292608 96.0312201,7.55647325 96.0312201,6.61084722 C96.0312201,5.4738445 96.2985806,4.48883216 96.8333096,3.65578066 C97.3680386,2.82272916 98.0772475,2.13603485 98.9609575,1.59567712 C99.8446675,1.05531939 100.855009,0.655685811 101.992011,0.396764399 C103.129014,0.137842987 104.299772,0.00838422262 105.504319,0.00838422262 C106.934016,0.00838422262 108.234232,0.137842987 109.405007,0.396764399 C110.575782,0.655685811 111.600195,1.0440621 112.478276,1.56190493 C112.883545,1.79831143 113.252221,2.06567193 113.584315,2.36399442 C113.91641,2.66231692 114.200657,2.97189222 114.437063,3.29272963 C114.67347,3.61356703 114.856401,3.92877098 114.985861,4.23835092 C115.115322,4.54793087 115.180051,4.83217729 115.180051,5.0910987 C115.180051,5.25996049 115.137837,5.41474815 115.053406,5.5554663 C114.968975,5.69618446 114.859216,5.81720026 114.724127,5.91851734 C114.589037,6.01983441 114.437064,6.0986354 114.268202,6.15492266 C114.09934,6.21120993 113.930481,6.23935314 113.761619,6.23935314 C113.558985,6.23935314 113.364797,6.19150968 113.179049,6.09582133 C112.993301,6.00013298 112.855399,5.85097397 112.76534,5.64833983 C112.495161,4.99540757 112.08427,4.45505794 111.532655,4.02727474 C110.98104,3.59949154 110.364703,3.26177302 109.683628,3.01410906 C109.002552,2.76644511 108.296157,2.59477153 107.564423,2.49908318 C106.832688,2.40339483 106.157251,2.35555137 105.538091,2.35555137 C104.772585,2.35555137 103.984575,2.43153804 103.174038,2.58351365 C102.363502,2.73548926 101.628964,2.98033519 100.970403,3.31805877 C100.311842,3.65578235 99.7714922,4.09763074 99.3493377,4.6436172 C98.9271832,5.18960365 98.7161091,5.85659772 98.7161091,6.64461941 C98.7161091,7.28629421 98.8765254,7.80694359 99.1973628,8.20658316 C99.5182002,8.60622273 99.9572343,8.92705532 100.514478,9.16909055 C101.071722,9.41112579 101.719016,9.58842801 102.456379,9.70100253 C103.193742,9.81357706 103.976123,9.90644965 104.803546,9.97962309 C105.630969,10.0527965 106.483708,10.1203402 107.36179,10.1822562 C108.239871,10.2441722 109.09261,10.3398591 109.920033,10.4693198 C110.747456,10.5987805 111.529837,10.7845257 112.2672,11.026561 C113.004563,11.2685962 113.651857,11.6006861 114.209101,12.0228405 C114.766345,12.444995 115.205379,12.979716 115.526216,13.6270195 C115.847054,14.2743231 116.00747,15.0707759 116.00747,16.0164019 C116.00747,16.8944832 115.855497,17.6740501 115.551545,18.355126 C115.247594,19.0362019 114.836703,19.6300236 114.318861,20.136609 C113.801018,20.6431944 113.201567,21.0681568 112.520491,21.4115092 C111.839416,21.7548615 111.121764,22.0334792 110.367514,22.2473708 C109.613265,22.4612624 108.84777,22.6132358 108.071006,22.7032954 C107.294241,22.793355 106.551261,22.8383841 105.842041,22.8383841 C104.693781,22.8383841 103.649668,22.7483259 102.709671,22.5682066 C101.769673,22.3880874 100.925377,22.1460558 100.176756,21.8421046 C99.4281357,21.5381533 98.7752133,21.1919919 98.2179693,20.8036097 C97.6607254,20.4152276 97.1991768,20.0155941 96.8333096,19.604697 C96.4674424,19.1938 96.1944532,18.7857235 96.014334,18.3804552 C95.8342148,17.9751869 95.7441565,17.6036965 95.7441565,17.2659729 C95.7441565,17.0858537 95.7863713,16.9254374 95.8708022,16.7847192 C95.9552331,16.6440011 96.0649916,16.5229853 96.200081,16.4216682 C96.3351705,16.3203511 96.4871438,16.2443645 96.6560056,16.1937059 C96.8248674,16.1430474 96.9937266,16.1177185 97.1625884,16.1177185 Z" id="NIGHTS"></path>
        </g>
    </g>
</svg>