<?xml version="1.0" encoding="UTF-8" standalone="no"?>
<svg width="72px" height="22px" viewBox="0 0 72 22" version="1.1" xmlns="http://www.w3.org/2000/svg" xmlns:xlink="http://www.w3.org/1999/xlink">
    <!-- Generator: Sketch 42 (36781) - http://www.bohemiancoding.com/sketch -->
    <title>OFF_[white]</title>
    <desc>Created with Sketch.</desc>
    <defs></defs>
    <g id="Home-page" stroke="none" stroke-width="1" fill="none" fill-rule="evenodd">
        <g id="OFF_[white]" fill="#FFFFFF">
            <g id="Group-5" transform="translate(2.000000, 0.000000)">
                <path d="M0,11 C0,9.40531747 0.282788892,7.93541107 0.848375161,6.59023669 C1.41396143,5.24506231 2.19728666,4.08432441 3.19837436,3.10798817 C4.19946205,2.13165192 5.38151962,1.36957868 6.74458253,0.821745562 C8.10764544,0.273912448 9.58663135,0 11.1815846,0 C12.7765379,0 14.2555238,0.273912448 15.6185867,0.821745562 C16.9816496,1.36957868 18.1637072,2.13165192 19.1647949,3.10798817 C20.1658826,4.08432441 20.9520357,5.24506231 21.5232778,6.59023669 C22.09452,7.93541107 22.3801368,9.40531747 22.3801368,11 C22.3801368,12.5946825 22.09452,14.0645889 21.5232778,15.4097633 C20.9520357,16.7549377 20.1658826,17.9156756 19.1647949,18.8920118 C18.1637072,19.8683481 16.9816496,20.6304213 15.6185867,21.1782544 C14.2555238,21.7260876 12.7765379,22 11.1815846,22 C9.58663135,22 8.10764544,21.7260876 6.74458253,21.1782544 C5.38151962,20.6304213 4.19946205,19.8683481 3.19837436,18.8920118 C2.19728666,17.9156756 1.41396143,16.7549377 0.848375161,15.4097633 C0.282788892,14.0645889 0,12.5946825 0,11 Z M2.59602799,11 C2.59602799,12.3126298 2.81377544,13.5059118 3.24927687,14.5798817 C3.68477829,15.6538515 4.28711864,16.570509 5.05631596,17.3298817 C5.82551329,18.0892543 6.73326563,18.6777593 7.77960023,19.0954142 C8.82593483,19.5130691 9.95991828,19.7218935 11.1815846,19.7218935 C12.403251,19.7218935 13.5372344,19.5130691 14.583569,19.0954142 C15.6299036,18.6777593 16.537656,18.0892543 17.3068533,17.3298817 C18.0760506,16.570509 18.678391,15.6538515 19.1138924,14.5798817 C19.5493938,13.5059118 19.7671413,12.3126298 19.7671413,11 C19.7671413,9.68737016 19.5493938,8.49137621 19.1138924,7.41198225 C18.678391,6.33258829 18.0760506,5.41321879 17.3068533,4.65384615 C16.537656,3.89447352 15.6299036,3.30596856 14.583569,2.88831361 C13.5372344,2.47065866 12.403251,2.26183432 11.1815846,2.26183432 C9.95991828,2.26183432 8.82593483,2.47065866 7.77960023,2.88831361 C6.73326563,3.30596856 5.82551329,3.89447352 5.05631596,4.65384615 C4.28711864,5.41321879 3.68477829,6.33258829 3.24927687,7.41198225 C2.81377544,8.49137621 2.59602799,9.68737016 2.59602799,11 Z M29.3413377,1.8387574 C29.3413377,1.64349015 29.3809281,1.45907385 29.4601102,1.28550296 C29.5392923,1.11193207 29.6495799,0.957347818 29.7909765,0.821745562 C29.9323731,0.686143306 30.0963906,0.580375133 30.2830341,0.50443787 C30.4696776,0.428500607 30.6648019,0.390532544 30.868413,0.390532544 L45.1889857,0.390532544 C45.5509609,0.390532544 45.8224382,0.501724726 46.0034258,0.724112426 C46.1844134,0.946500126 46.2749059,1.19329253 46.2749059,1.46449704 C46.2749059,1.73570155 46.1844134,1.98249396 46.0034258,2.20488166 C45.8224382,2.42726936 45.5509609,2.53846154 45.1889857,2.53846154 L31.8525282,2.53846154 L31.8525282,10.8698225 L44.5272531,10.8698225 C44.8779165,10.8698225 45.1409102,10.9783027 45.316242,11.1952663 C45.4915737,11.4122299 45.5792383,11.6563103 45.5792383,11.9275148 C45.5792383,12.1770229 45.4915737,12.4075433 45.316242,12.6190828 C45.1409102,12.8306224 44.8779165,12.9363905 44.5272531,12.9363905 L31.8525282,12.9363905 L31.8525282,20.5192308 C31.8525282,20.9423098 31.7224453,21.2596143 31.4622756,21.4711538 C31.2021059,21.6826934 30.9136612,21.7884615 30.5969329,21.7884615 C30.2802046,21.7884615 29.9917599,21.6881174 29.7315902,21.487426 C29.4714206,21.2867347 29.3413377,20.9802782 29.3413377,20.5680473 L29.3413377,1.8387574 Z M53.0664318,1.8387574 C53.0664318,1.64349015 53.1060222,1.45907385 53.1852043,1.28550296 C53.2643864,1.11193207 53.374674,0.957347818 53.5160706,0.821745562 C53.6574672,0.686143306 53.8214847,0.580375133 54.0081282,0.50443787 C54.1947717,0.428500607 54.389896,0.390532544 54.5935071,0.390532544 L68.9140798,0.390532544 C69.276055,0.390532544 69.5475323,0.501724726 69.7285199,0.724112426 C69.9095076,0.946500126 70,1.19329253 70,1.46449704 C70,1.73570155 69.9095076,1.98249396 69.7285199,2.20488166 C69.5475323,2.42726936 69.276055,2.53846154 68.9140798,2.53846154 L55.5776223,2.53846154 L55.5776223,10.8698225 L68.2523472,10.8698225 C68.6030107,10.8698225 68.8660043,10.9783027 69.0413361,11.1952663 C69.2166678,11.4122299 69.3043324,11.6563103 69.3043324,11.9275148 C69.3043324,12.1770229 69.2166678,12.4075433 69.0413361,12.6190828 C68.8660043,12.8306224 68.6030107,12.9363905 68.2523472,12.9363905 L55.5776223,12.9363905 L55.5776223,20.5192308 C55.5776223,20.9423098 55.4475394,21.2596143 55.1873697,21.4711538 C54.9272,21.6826934 54.6387553,21.7884615 54.322027,21.7884615 C54.0052987,21.7884615 53.716854,21.6881174 53.4566844,21.487426 C53.1965147,21.2867347 53.0664318,20.9802782 53.0664318,20.5680473 L53.0664318,1.8387574 Z" id="OFF"></path>
            </g>
        </g>
    </g>
</svg>