<?xml version="1.0" encoding="UTF-8" standalone="no"?>
<svg width="96px" height="63px" viewBox="0 0 96 63" version="1.1" xmlns="http://www.w3.org/2000/svg" xmlns:xlink="http://www.w3.org/1999/xlink">
    <!-- Generator: Sketch 43.1 (39012) - http://www.bohemiancoding.com/sketch -->
    <title>Punch</title>
    <desc>Created with Sketch.</desc>
    <defs></defs>
    <g id="Homepage" stroke="none" stroke-width="1" fill="none" fill-rule="evenodd">
        <g id="Homepage-desktop-04---Tag-Horz-2" transform="translate(-599.000000, -136.000000)">
            <g id="Punch" transform="translate(599.000000, 136.000000)">
                <rect id="Rectangle" fill-opacity="0.1" fill="#000000" x="1" y="4" width="95" height="59" rx="4"></rect>
                <rect id="Rectangle" fill="#F2EAF0" x="0" y="-3.55271368e-15" width="92" height="59" rx="4"></rect>
                <g id="Logo" transform="translate(21.000000, 6.000000)" fill="#990066">
                    <path d="M1.65401754,5.15480769 L4.19323153,5.15480769 C5.81505208,5.15480769 6.53301216,4.38592949 6.53301216,3.43128205 C6.53301216,2.33362179 5.68969397,1.42025641 4.19323153,1.42025641 L1.65401754,1.42025641 L1.65401754,5.15480769 L1.65401754,5.15480769 Z M1.65401754,5.97897436 L1.65401754,8.97413462 C1.65401754,9.27490385 1.41469751,9.43044872 1.18891046,9.43044872 C0.960986628,9.43044872 0.735199578,9.28596154 0.735199578,8.98740385 L0.735199578,1.03987179 C0.735199578,0.765641026 0.924661267,0.584294872 1.20101892,0.584294872 L4.18112308,0.584294872 C6.35565893,0.584294872 7.46322632,1.85076923 7.46322632,3.38115385 C7.46322632,4.69923077 6.77090767,5.65387821 5.22458689,5.92737179 L7.63274467,8.64903846 C7.74670659,8.76551282 7.79727719,8.88125 7.79727719,8.99919872 C7.79727719,9.24689103 7.58288634,9.43044872 7.34356631,9.43044872 C7.23031665,9.43044872 7.10424628,9.39137821 7.0045296,9.27269231 L4.09280259,5.97897436 L1.65401754,5.97897436 L1.65401754,5.97897436 Z" id="Fill-14"></path>
                    <path d="M11.3165637,3.43128205 C9.75884671,3.43128205 8.94045769,4.66089744 8.94045769,5.99445513 L13.6435236,5.60301282 C13.4932363,4.41246795 12.5879513,3.43128205 11.3165637,3.43128205 L11.3165637,3.43128205 Z M11.2667053,8.55615385 C11.8956327,8.55615385 12.600772,8.35932692 13.090096,7.86320513 C13.2289871,7.73198718 13.3301283,7.69144231 13.4804156,7.69144231 C13.7076272,7.69144231 13.8835559,7.86320513 13.8835559,8.09467949 C13.8835559,8.21410256 13.8450937,8.3313141 13.7453771,8.45073718 C13.1534873,9.11714744 12.1990563,9.43044872 11.3165637,9.43044872 C9.46824382,9.43044872 8.03374817,8.05782051 8.03374817,6.00772436 C8.03374817,4.33580128 9.10356568,2.55698718 11.2916345,2.55698718 C13.0032001,2.55698718 14.3857006,3.78660256 14.5359879,5.73349359 L14.5359879,5.79762821 C14.5359879,6.12272436 14.348663,6.34682692 13.9704518,6.37189103 L9.05370734,6.78987179 C9.34359797,7.78285256 10.1356333,8.55615385 11.2667053,8.55615385 L11.2667053,8.55615385 Z" id="Fill-15"></path>
                    <path d="M14.9063641,3.22044872 C14.8807227,3.16810897 14.8807227,3.11503205 14.8807227,3.06342949 C14.8807227,2.78919872 15.1449719,2.64692308 15.3964003,2.64692308 C15.5602206,2.64692308 15.7105079,2.70958333 15.7731869,2.85407051 L17.8594023,7.81307692 L19.8473255,3.51900641 C19.9477545,3.30964744 20.0973295,3.19391026 20.2739704,3.19391026 C20.4506114,3.19391026 20.6130072,3.30964744 20.7148606,3.51900641 L22.7262885,7.83814103 L24.76407,2.90641026 C24.837433,2.73464744 24.9891448,2.64544872 25.1657858,2.64544872 C25.3922851,2.64544872 25.6430013,2.80099359 25.6430013,3.05089744 C25.6430013,3.10102564 25.6301806,3.15262821 25.606676,3.21971154 L23.1671786,9.15990385 C23.0923911,9.32871795 22.9264341,9.42012821 22.7640384,9.42012821 C22.5745767,9.42012821 22.3979357,9.32871795 22.3231482,9.15990385 L20.3124326,4.74862179 L18.2376134,9.14810897 C18.1621137,9.31692308 17.9605435,9.42307692 17.7839025,9.42307692 C17.6079738,9.42307692 17.4569743,9.34272436 17.3821868,9.14810897 L14.9063641,3.22044872" id="Fill-16"></path>
                    <path d="M31.299786,6.48983974 L31.299786,5.45926282 C31.299786,4.30852564 30.4571801,3.43128205 29.3132873,3.43128205 C28.0055743,3.43128205 26.960686,4.45301282 26.960686,5.99445513 C26.960686,7.53294872 28.0055743,8.55615385 29.3132873,8.55615385 C30.4571801,8.55615385 31.299786,7.77105769 31.299786,6.48983974 L31.299786,6.48983974 Z M31.3247152,8.2811859 C30.8980703,9.08839744 30.0170022,9.43044872 29.3261081,9.43044872 C27.5148258,9.43044872 26.0440048,8.01948718 26.0440048,5.99445513 C26.0440048,3.96794872 27.5148258,2.55698718 29.3261081,2.55698718 C30.1672895,2.55698718 30.9215749,2.91157051 31.299786,3.60378205 L31.299786,3.09365385 C31.299786,2.79288462 31.5255731,2.65060897 31.7656054,2.65060897 C31.9913924,2.65060897 32.2178917,2.79288462 32.2178917,3.09365385 L32.2178917,8.90705128 C32.2178917,9.1938141 32.0426753,9.36262821 31.7520724,9.36262821 C31.462894,9.36262821 31.3247152,9.1938141 31.3247152,8.90705128 L31.3247152,8.2811859 L31.3247152,8.2811859 Z" id="Fill-17"></path>
                    <path d="M34.3924276,3.70625 C34.7941433,2.83121795 35.5484288,2.55698718 36.2663889,2.55698718 C36.5541427,2.55698718 36.7436044,2.71326923 36.7436044,3.01330128 C36.7436044,3.30153846 36.5541427,3.46003205 36.2663889,3.46003205 C34.9693598,3.46003205 34.4159322,4.56801282 34.4159322,5.88977564 L34.4159322,8.90705128 C34.4159322,9.18201923 34.2029659,9.36262821 33.9636459,9.36262821 C33.6872882,9.36262821 33.4978265,9.18201923 33.4978265,8.90705128 L33.4978265,3.09955128 C33.4978265,2.8113141 33.7257504,2.65576923 33.9636459,2.65576923 C34.1780367,2.65576923 34.3924276,2.79878205 34.3924276,3.09955128 L34.3924276,3.70625" id="Fill-18"></path>
                    <path d="M42.2301585,6.48983974 L42.2301585,5.45926282 C42.2301585,4.30852564 41.3868403,3.43128205 40.2436598,3.43128205 C38.9359468,3.43128205 37.9038792,4.45301282 37.9038792,5.99445513 C37.9038792,7.53294872 38.9359468,8.55615385 40.2436598,8.55615385 C41.3868403,8.55615385 42.2301585,7.77105769 42.2301585,6.48983974 L42.2301585,6.48983974 Z M42.2550877,8.2811859 C41.8277305,9.08839744 40.9459501,9.43044872 40.2543437,9.43044872 C38.4430615,9.43044872 36.9729528,8.01948718 36.9729528,5.99445513 C36.9729528,3.96794872 38.4430615,2.55698718 40.2543437,2.55698718 C41.0990865,2.55698718 41.8533719,2.91157051 42.2301585,3.60378205 L42.2301585,1.02807692 C42.2301585,0.728044872 42.4566578,0.584294872 42.6945533,0.584294872 C42.9217649,0.584294872 43.1482642,0.728044872 43.1482642,1.02807692 L43.1482642,8.90705128 C43.1482642,9.1938141 42.9716232,9.36262821 42.6824449,9.36262821 C42.3925542,9.36262821 42.2550877,9.1938141 42.2550877,8.90705128 L42.2550877,8.2811859 L42.2550877,8.2811859 Z" id="Fill-19"></path>
                    <path d="M44.1083934,7.74525641 C44.1083934,7.48282051 44.3484257,7.30073718 44.5863212,7.30073718 C44.7757829,7.30073718 44.9524238,7.41794872 45.0037067,7.6774359 C45.1155318,8.26791667 46.108425,8.58195513 47.0265307,8.58195513 C47.6440619,8.58195513 48.9645956,8.22737179 48.9645956,7.32653846 C48.9645956,5.56173077 44.1717847,7.48282051 44.1717847,4.55548077 C44.1717847,3.15705128 45.7067093,2.55698718 46.9139933,2.55698718 C47.8819574,2.55698718 49.2665947,2.71326923 49.6683105,3.90455128 C49.6811312,3.96794872 49.6918151,4.02102564 49.6918151,4.07410256 C49.6918151,4.33580128 49.4403866,4.50461538 49.2010666,4.50461538 C49.0379586,4.50461538 48.8755629,4.42573718 48.8128838,4.24217949 C48.5472101,3.48583333 47.4788171,3.40621795 46.9139933,3.40621795 C46.1853493,3.40621795 45.0913149,3.76153846 45.0913149,4.56801282 C45.0913149,6.28121795 49.8812768,4.39919872 49.8812768,7.32653846 C49.8812768,8.97339744 48.0699945,9.43044872 47.0265307,9.43044872 C45.9830669,9.43044872 44.4239254,9.1436859 44.1219263,7.8499359 C44.1083934,7.80865385 44.1083934,7.78285256 44.1083934,7.74525641" id="Fill-20"></path>
                </g>
                <rect id="Rectangle-2" fill="#990066" x="5" y="24" width="12" height="12" rx="2"></rect>
                <g id="Moon" transform="translate(7.000000, 26.000000)">
                    <path d="M7.19516863,6.34841569 C6.47097611,7.31531765 5.32171408,7.94130784 4.02485847,7.94130784 C1.83128984,7.94130784 0.0536071301,6.1612098 0.0536071301,3.96597451 C0.0536071301,2.66538627 0.680715865,1.51456275 1.643682,0.789386275 C2.12319715,0.428111765 2.68536471,0.171278431 3.30000998,0.058954902 C3.25605989,0.29542549 3.23047701,0.536494118 3.23047701,0.786758824 C3.23047701,0.819601961 3.23375686,0.852445098 3.23506881,0.889229412 C3.23834866,1.02388627 3.24950018,1.15854314 3.26524349,1.28925882 C3.4928656,3.08183725 4.90714011,4.49606275 6.69531836,4.72465098 C6.82716863,4.74107255 6.96098681,4.75026863 7.09742888,4.7542098 C7.13088342,4.75552353 7.16433797,4.76077843 7.19976043,4.76077843 C7.44771765,4.76077843 7.68845918,4.73581765 7.92526488,4.69115098 C7.81046988,5.30400392 7.55398503,5.86627843 7.19516863,6.34841569" id="Fill-3" fill="#FFFFFF"></path>
                    <path d="M1.22089034,4.0672414 C1.22089034,5.66940353 2.51859872,6.9688751 4.1197841,6.9688751 C4.23231601,6.9688751 4.34424934,6.96048368 4.45438695,6.94789654 C2.76461262,6.76508343 1.42380692,5.42245598 1.24303758,3.72978637 C1.22986895,3.8412724 1.22089034,3.95215904 1.22089034,4.0672414 Z" id="Fill-1" fill="#990066"></path>
                </g>
                <rect id="Rectangle-2" fill="#990066" x="22" y="24" width="12" height="12" rx="2"></rect>
                <g id="Moon" transform="translate(24.000000, 26.000000)">
                    <path d="M7.19516863,6.34841569 C6.47097611,7.31531765 5.32171408,7.94130784 4.02485847,7.94130784 C1.83128984,7.94130784 0.0536071301,6.1612098 0.0536071301,3.96597451 C0.0536071301,2.66538627 0.680715865,1.51456275 1.643682,0.789386275 C2.12319715,0.428111765 2.68536471,0.171278431 3.30000998,0.058954902 C3.25605989,0.29542549 3.23047701,0.536494118 3.23047701,0.786758824 C3.23047701,0.819601961 3.23375686,0.852445098 3.23506881,0.889229412 C3.23834866,1.02388627 3.24950018,1.15854314 3.26524349,1.28925882 C3.4928656,3.08183725 4.90714011,4.49606275 6.69531836,4.72465098 C6.82716863,4.74107255 6.96098681,4.75026863 7.09742888,4.7542098 C7.13088342,4.75552353 7.16433797,4.76077843 7.19976043,4.76077843 C7.44771765,4.76077843 7.68845918,4.73581765 7.92526488,4.69115098 C7.81046988,5.30400392 7.55398503,5.86627843 7.19516863,6.34841569" id="Fill-3" fill="#FFFFFF"></path>
                    <path d="M1.22089034,4.0672414 C1.22089034,5.66940353 2.51859872,6.9688751 4.1197841,6.9688751 C4.23231601,6.9688751 4.34424934,6.96048368 4.45438695,6.94789654 C2.76461262,6.76508343 1.42380692,5.42245598 1.24303758,3.72978637 C1.22986895,3.8412724 1.22089034,3.95215904 1.22089034,4.0672414 Z" id="Fill-1" fill="#990066"></path>
                </g>
                <rect id="Rectangle-2" fill="#990066" x="40" y="24" width="12" height="12" rx="2"></rect>
                <g id="Moon" transform="translate(42.000000, 26.000000)">
                    <path d="M7.19516863,6.34841569 C6.47097611,7.31531765 5.32171408,7.94130784 4.02485847,7.94130784 C1.83128984,7.94130784 0.0536071301,6.1612098 0.0536071301,3.96597451 C0.0536071301,2.66538627 0.680715865,1.51456275 1.643682,0.789386275 C2.12319715,0.428111765 2.68536471,0.171278431 3.30000998,0.058954902 C3.25605989,0.29542549 3.23047701,0.536494118 3.23047701,0.786758824 C3.23047701,0.819601961 3.23375686,0.852445098 3.23506881,0.889229412 C3.23834866,1.02388627 3.24950018,1.15854314 3.26524349,1.28925882 C3.4928656,3.08183725 4.90714011,4.49606275 6.69531836,4.72465098 C6.82716863,4.74107255 6.96098681,4.75026863 7.09742888,4.7542098 C7.13088342,4.75552353 7.16433797,4.76077843 7.19976043,4.76077843 C7.44771765,4.76077843 7.68845918,4.73581765 7.92526488,4.69115098 C7.81046988,5.30400392 7.55398503,5.86627843 7.19516863,6.34841569" id="Fill-3" fill="#FFFFFF"></path>
                    <path d="M1.22089034,4.0672414 C1.22089034,5.66940353 2.51859872,6.9688751 4.1197841,6.9688751 C4.23231601,6.9688751 4.34424934,6.96048368 4.45438695,6.94789654 C2.76461262,6.76508343 1.42380692,5.42245598 1.24303758,3.72978637 C1.22986895,3.8412724 1.22089034,3.95215904 1.22089034,4.0672414 Z" id="Fill-1" fill="#990066"></path>
                </g>
                <rect id="Rectangle-2" stroke="#990066" stroke-width="2" x="58" y="25" width="10" height="10" rx="2"></rect>
                <rect id="Rectangle-2" stroke="#990066" stroke-width="2" x="76" y="25" width="10" height="10" rx="2"></rect>
                <rect id="Rectangle-2" stroke="#990066" stroke-width="2" x="6" y="42" width="10" height="10" rx="2"></rect>
                <rect id="Rectangle-2" stroke="#990066" stroke-width="2" x="23" y="42" width="10" height="10" rx="2"></rect>
                <rect id="Rectangle-2" stroke="#990066" stroke-width="2" x="41" y="42" width="10" height="10" rx="2"></rect>
                <rect id="Rectangle-2" stroke="#990066" stroke-width="2" x="58" y="42" width="10" height="10" rx="2"></rect>
                <rect id="Rectangle-2" stroke="#990066" stroke-width="2" x="76" y="42" width="10" height="10" rx="2"></rect>
            </g>
        </g>
    </g>
</svg>