<?xml version="1.0" encoding="UTF-8" standalone="no"?>
<svg width="59px" height="115px" viewBox="0 0 59 115" version="1.1" xmlns="http://www.w3.org/2000/svg" xmlns:xlink="http://www.w3.org/1999/xlink">
    <!-- Generator: Sketch 43.1 (39012) - http://www.bohemiancoding.com/sketch -->
    <title>Tag 50% [white]</title>
    <desc>Created with Sketch.</desc>
    <defs>
        <ellipse id="path-1" cx="27.1408658" cy="41.5859399" rx="8.31107851" ry="8.17332927"></ellipse>
        <filter x="-9.0%" y="-9.2%" width="118.0%" height="118.4%" filterUnits="objectBoundingBox" id="filter-2">
            <feOffset dx="2" dy="3" in="SourceAlpha" result="shadowOffsetInner1"></feOffset>
            <feComposite in="shadowOffsetInner1" in2="SourceAlpha" operator="arithmetic" k2="-1" k3="1" result="shadowInnerInner1"></feComposite>
            <feColorMatrix values="0 0 0 0 0   0 0 0 0 0   0 0 0 0 0  0 0 0 0.2 0" type="matrix" in="shadowInnerInner1"></feColorMatrix>
        </filter>
    </defs>
    <g id="Homepage" stroke="none" stroke-width="1" fill="none" fill-rule="evenodd">
        <g id="Tag-50%-[white]">
            <path d="M2.29420397,41.6216228 C2.29420397,40.4409946 3.07595832,38.906466 4.03050093,38.2013962 L27.6554859,20.7508776 C28.6144162,20.0425668 30.1837312,20.0037348 31.1772318,20.6753541 L57.214551,38.2769198 C58.2006273,38.9435201 59,40.4384006 59,41.6216228 L59,111.780059 C59,113.544922 57.5412912,114.975626 55.7475803,114.975626 L5.5466236,114.975626 C3.75036184,114.975626 2.29420397,113.534989 2.29420397,111.780059 L2.29420397,41.6216228 Z" id="Rectangle-5" fill-opacity="0.100000001" fill="#000000" fill-rule="nonzero"></path>
            <path d="M0,36.9749235 C0,35.8455721 0.765055413,34.3915264 1.70137666,33.7324462 L25.8290708,16.7488666 C26.7687153,16.0874471 28.2955029,16.0897864 29.2318242,16.7488666 L53.3595184,33.7324462 C54.2991628,34.3938656 55.0608951,35.842493 55.0608951,36.9749235 L55.0608951,106.141488 C55.0608951,107.839173 53.6722935,109.215418 51.942822,109.215418 L3.11807307,109.215418 C1.39600887,109.215418 0,107.830401 0,106.141488 L0,36.9749235 Z" id="Rectangle-5" fill="#FFFFFF" fill-rule="nonzero"></path>
            <g id="Oval-2" fill-rule="nonzero">
                <use fill="#8D005E" fill-rule="evenodd" xlink:href="#path-1"></use>
                <use fill="black" fill-opacity="1" filter="url(#filter-2)" xlink:href="#path-1"></use>
            </g>
            <path d="M23.8510638,3.7242341 C23.8510638,1.94414971 25.2440439,0.501106195 26.9893617,0.501106195 C28.7225958,0.501106195 30.1276596,1.93436823 30.1276596,3.7242341 L30.1276596,38.2779783 C30.1276596,40.0580627 28.7346795,41.5011062 26.9893617,41.5011062 C25.2561276,41.5011062 23.8510638,40.0678442 23.8510638,38.2779783 L23.8510638,3.7242341 Z" id="Rectangle-6" fill="#B30077" fill-rule="nonzero"></path>
            <g id="50%" transform="translate(6.000000, 63.000000)" fill="#B30077">
                <g transform="translate(13.915226, 14.531250)" id="10%">
                    <path d="M8.37319507,5.95680011 C8.37319507,5.44644253 8.30604779,5.00985412 8.1717512,4.64702177 C8.03745462,4.28418943 7.85773689,3.98914338 7.63259262,3.76187477 C7.40744835,3.53460616 7.15070873,3.36914114 6.86236607,3.26547476 C6.57402341,3.16180838 6.27581047,3.10997596 5.96771831,3.10997596 C5.67542574,3.10997596 5.38906233,3.16180838 5.10861946,3.26547476 C4.8281766,3.36914114 4.57736174,3.53460616 4.35616737,3.76187477 C4.134973,3.98914338 3.95723019,4.28418943 3.82293361,4.64702177 C3.68863702,5.00985412 3.62148974,5.44644253 3.62148974,5.95680011 L3.62148974,10.2868436 C3.62148974,10.7812525 3.68863702,11.2078731 3.82293361,11.5667183 C3.95723019,11.9255635 4.134973,12.2226031 4.35616737,12.457846 C4.57736174,12.693089 4.8281766,12.8685217 5.10861946,12.9841496 C5.38906233,13.0997775 5.67542574,13.1575906 5.96771831,13.1575906 C6.27581047,13.1575906 6.57402341,13.1037646 6.86236607,12.9961111 C7.15070873,12.8884575 7.40744835,12.720999 7.63259262,12.4937304 C7.85773689,12.2664617 8.03745462,11.9714157 8.1717512,11.6085833 C8.30604779,11.245751 8.37319507,10.8051755 8.37319507,10.2868436 L8.37319507,5.95680011 Z M0.0547483331,5.95680011 C0.0547483331,4.99190531 0.224591464,4.14464469 0.56428282,3.41499283 C0.903974176,2.68534098 1.35228104,2.07930044 1.90921687,1.59685304 C2.4661527,1.11440564 3.10010206,0.75157874 3.81108397,0.508361455 C4.52206588,0.26514417 5.24883648,0.143537352 5.99141759,0.143537352 C6.74189849,0.143537352 7.47656877,0.26514417 8.19545048,0.508361455 C8.91433219,0.75157874 9.55223139,1.11440564 10.1091672,1.59685304 C10.666103,2.07930044 11.1144099,2.68534098 11.4541013,3.41499283 C11.7937926,4.14464469 11.9636358,4.99190531 11.9636358,5.95680011 L11.9636358,10.2868436 C11.9636358,11.2597127 11.7937926,12.112954 11.4541013,12.846593 C11.1144099,13.580232 10.666103,14.1922532 10.1091672,14.682675 C9.55223139,15.1730967 8.91433219,15.5399107 8.19545048,15.783128 C7.47656877,16.0263453 6.74189849,16.1479521 5.99141759,16.1479521 C5.24883648,16.1479521 4.52206588,16.0263453 3.81108397,15.783128 C3.10010206,15.5399107 2.4661527,15.1730967 1.90921687,14.682675 C1.35228104,14.1922532 0.903974176,13.580232 0.56428282,12.846593 C0.224591464,12.112954 0.0547483331,11.2597127 0.0547483331,10.2868436 L0.0547483331,5.95680011 Z M17.2841238,15.5259569 C17.1498272,15.7253153 17.0017082,15.8568899 16.8397623,15.9206846 C16.6778164,15.9844793 16.5099482,16.0163762 16.3361526,16.0163762 C16.1860564,16.0163762 16.0438622,15.9884664 15.9095656,15.9326461 C15.775269,15.8768257 15.6567738,15.7990771 15.5540764,15.6993979 C15.4513791,15.5997187 15.3704073,15.482099 15.3111588,15.3465352 C15.2519103,15.2109715 15.2222865,15.0674356 15.2222865,14.9159232 C15.2222865,14.8042824 15.2400608,14.6886563 15.2756099,14.5690412 C15.311159,14.4494262 15.3723815,14.3298129 15.4592793,14.2101979 L25.1878331,0.610033746 C25.3142299,0.450547002 25.4524743,0.332927293 25.6025705,0.257171089 C25.7526667,0.181414886 25.8988108,0.143537352 26.0410072,0.143537352 C26.1832035,0.143537352 26.3234229,0.171447114 26.4616693,0.227267474 C26.5999158,0.283087835 26.7223609,0.360836456 26.8290082,0.460515671 C26.9356555,0.560194886 27.020577,0.675821041 27.0837754,0.807397605 C27.1469738,0.938974169 27.1785725,1.07652942 27.1785725,1.22006749 C27.1785725,1.32373388 27.1647481,1.4234116 27.1370988,1.51910364 C27.1094495,1.61479569 27.0600765,1.7104863 26.9889783,1.80617835 L17.2841238,15.5259569 Z M13.6699838,3.72000971 C13.6699838,3.14585743 13.7588552,2.62952684 13.9366007,2.17100245 C14.1143462,1.71247806 14.3552864,1.3217414 14.6594287,0.998780741 C14.9635709,0.675820085 15.3210315,0.428619339 15.731821,0.257171089 C16.1426106,0.0857228391 16.5849927,0 17.0589806,0 C17.5329686,0 17.9773256,0.0857228391 18.392065,0.257171089 C18.8068045,0.428619339 19.1701898,0.675820085 19.4822318,0.998780741 C19.7942739,1.3217414 20.039164,1.71247806 20.2169095,2.17100245 C20.394655,2.62952684 20.4835264,3.14585743 20.4835264,3.72000971 C20.4835264,4.29416199 20.394655,4.81248613 20.2169095,5.27499769 C20.039164,5.73750925 19.7942739,6.12824591 19.4822318,6.4472194 C19.1701898,6.76619289 18.8068045,7.01140008 18.392065,7.18284833 C17.9773256,7.35429658 17.5329686,7.44001942 17.0589806,7.44001942 C16.5849927,7.44001942 16.1426106,7.35429658 15.731821,7.18284833 C15.3210315,7.01140008 14.9635709,6.76619289 14.6594287,6.4472194 C14.3552864,6.12824591 14.1143462,5.73750925 13.9366007,5.27499769 C13.7588552,4.81248613 13.6699838,4.29416199 13.6699838,3.72000971 Z M15.731821,3.72000971 C15.731821,4.29416199 15.8582159,4.73274395 16.1110095,5.03576877 C16.3638031,5.33879358 16.6797903,5.49030372 17.0589806,5.49030372 C17.438171,5.49030372 17.760083,5.33879358 18.0247262,5.03576877 C18.2893695,4.73274395 18.4216891,4.29416199 18.4216891,3.72000971 C18.4216891,3.14585743 18.2893695,2.70926902 18.0247262,2.41023137 C17.760083,2.11119372 17.438171,1.96167714 17.0589806,1.96167714 C16.6797903,1.96167714 16.3638031,2.11119372 16.1110095,2.41023137 C15.8582159,2.70926902 15.731821,3.14585743 15.731821,3.72000971 Z M21.9647313,12.4399038 C21.9647313,11.8657516 22.0536027,11.349421 22.2313481,10.8908966 C22.4090936,10.4323722 22.6500339,10.0416355 22.9541761,9.71867488 C23.2583184,9.39571422 23.6177539,9.14851348 24.0324933,8.97706523 C24.4472328,8.80561698 24.8915898,8.71989414 25.3655777,8.71989414 C25.8395657,8.71989414 26.2839227,8.80561698 26.6986621,8.97706523 C27.1134016,9.14851348 27.4767869,9.39571422 27.7888289,9.71867488 C28.100871,10.0416355 28.3457611,10.4323722 28.5235066,10.8908966 C28.7012521,11.349421 28.7901235,11.8657516 28.7901235,12.4399038 C28.7901235,13.0140561 28.7012521,13.5323803 28.5235066,13.9948918 C28.3457611,14.4574034 28.100871,14.8501336 27.7888289,15.1730943 C27.4767869,15.4960549 27.1134016,15.7432557 26.6986621,15.9147039 C26.2839227,16.0861522 25.8395657,16.171875 25.3655777,16.171875 C24.8915898,16.171875 24.4472328,16.0861522 24.0324933,15.9147039 C23.6177539,15.7432557 23.2583184,15.4960549 22.9541761,15.1730943 C22.6500339,14.8501336 22.4090936,14.4574034 22.2313481,13.9948918 C22.0536027,13.5323803 21.9647313,13.0140561 21.9647313,12.4399038 Z M24.0265685,12.4399038 C24.0265685,13.0220305 24.1549383,13.462606 24.4116818,13.7616436 C24.6684252,14.0606813 24.9863874,14.2101979 25.3655777,14.2101979 C25.5551729,14.2101979 25.7309408,14.1723203 25.8928867,14.0965641 C26.0548325,14.0208079 26.1990017,13.9091689 26.3253985,13.7616436 C26.4517953,13.6141184 26.5505413,13.4287178 26.6216395,13.2054364 C26.6927377,12.9821549 26.7282862,12.72698 26.7282862,12.4399038 C26.7282862,12.1528277 26.6927377,11.8996463 26.6216395,11.680352 C26.5505413,11.4610578 26.4517953,11.2776507 26.3253985,11.1301255 C26.1990017,10.9826003 26.0548325,10.8709612 25.8928867,10.795205 C25.7309408,10.7194488 25.5551729,10.6815713 25.3655777,10.6815713 C24.9863874,10.6815713 24.6684252,10.8310879 24.4116818,11.1301255 C24.1549383,11.4291632 24.0265685,11.8657516 24.0265685,12.4399038 Z"></path>
                </g>
                <path d="M24.016721,0.313875 C23.6482074,0.313875 23.4793054,0.515375 23.4793054,0.794375 C23.4793054,1.057875 23.6482074,1.305875 24.016721,1.305875 L27.4101169,1.305875 L27.4101169,9.691375 C27.4101169,10.078875 27.7172115,10.264875 27.978242,10.264875 C28.2392724,10.264875 28.5617218,10.078875 28.5617218,9.691375 L28.5617218,1.305875 L31.9704724,1.305875 C32.338986,1.305875 32.5385975,1.057875 32.5385975,0.794375 C32.5385975,0.515375 32.338986,0.313875 31.9704724,0.313875 L24.016721,0.313875 Z M32.884079,5.242875 C32.884079,2.266875 35.0183868,0.127875 37.8283029,0.127875 C40.6382189,0.127875 42.7725267,2.266875 42.7725267,5.242875 C42.7725267,8.218875 40.6382189,10.357875 37.8283029,10.357875 C35.0183868,10.357875 32.884079,8.218875 32.884079,5.242875 Z M34.0356839,5.242875 C34.0356839,7.691875 35.6786403,9.303875 37.8283029,9.303875 C39.9779654,9.303875 41.6209218,7.691875 41.6209218,5.242875 C41.6209218,2.793875 39.9779654,1.181875 37.8283029,1.181875 C35.6786403,1.181875 34.0356839,2.793875 34.0356839,5.242875 Z" id="TO"></path>
                <path d="M9.08904197,5.940375 C9.08904197,8.187875 7.40002139,9.303875 5.71100082,9.303875 C4.02198024,9.303875 2.33295967,8.187875 2.33295967,5.940375 L2.33295967,0.747875 C2.33295967,0.391375 2.04121975,0.220875 1.74947983,0.220875 C1.45773991,0.220875 1.18135473,0.391375 1.18135473,0.732375 L1.18135473,5.878375 C1.18135473,8.854375 3.46920987,10.357875 5.71100082,10.357875 C7.95279176,10.357875 10.2406469,8.854375 10.2406469,5.878375 L10.2406469,0.778875 C10.2406469,0.406875 9.94890699,0.220875 9.6725218,0.220875 C9.38078189,0.220875 9.08904197,0.406875 9.08904197,0.794375 L9.08904197,5.940375 Z M13.371093,1.305875 L13.371093,6.250375 L16.1195901,6.250375 C18.1310601,6.250375 18.9755704,5.087875 18.9755704,3.925375 C18.9755704,2.638875 18.0082222,1.305875 16.1810091,1.305875 L13.371093,1.305875 Z M16.1195901,7.257875 L13.371093,7.257875 L13.371093,9.737875 C13.371093,10.094375 13.0947078,10.264875 12.8183226,10.264875 C12.5419375,10.264875 12.2655523,10.094375 12.2655523,9.753375 L12.2655523,0.856375 C12.2655523,0.530875 12.5265827,0.313875 12.8336774,0.313875 L16.1656543,0.313875 C18.8220231,0.313875 20.0657564,2.080875 20.0657564,3.863375 C20.0657564,5.723375 18.8066683,7.257875 16.1195901,7.257875 Z" id="UP"></path>
                <path d="M4.00806502,25.8714375 C3.885707,24.8833125 3.05367243,24.4386562 2.19716626,24.4386562 C1.29171687,24.4386562 0.38626749,25.0068281 0.38626749,26.0690625 C0.38626749,28.0453125 1.903507,30.8120625 6.47969712,30.8120625 C10.3217391,30.8120625 12.4997119,27.9465 12.4997119,25.17975 C12.4997119,22.3388906 10.4440971,19.6956562 6.35733909,19.6956562 L4.27725267,19.6956562 L4.27725267,17.867625 L9.63653416,17.867625 C10.884586,17.867625 11.4719045,17.1018281 11.4719045,16.3360312 C11.4719045,15.5702344 10.884586,14.8044375 9.63653416,14.8044375 L2.71106996,14.8044375 C1.53643292,14.8044375 0.679926749,15.3726094 0.679926749,16.48425 L0.679926749,21.2025469 C0.679926749,22.0918594 1.51196132,22.6847344 2.51529712,22.6847344 L6.35733909,22.6847344 C7.99693663,22.6847344 8.82897119,23.9198906 8.82897119,25.1550469 C8.82897119,26.4149062 8.02140823,27.8723906 6.45522551,27.8723906 C5.23164527,27.8723906 4.25278107,27.5265469 4.00806502,25.8714375 Z" id="5"></path>
            </g>
        </g>
    </g>
</svg>