<?xml version="1.0" encoding="UTF-8" standalone="no"?>
<svg width="59px" height="115px" viewBox="0 0 59 115" version="1.1" xmlns="http://www.w3.org/2000/svg" xmlns:xlink="http://www.w3.org/1999/xlink">
    <!-- Generator: Sketch 43.1 (39012) - http://www.bohemiancoding.com/sketch -->
    <title>Tag [white]</title>
    <desc>Created with Sketch.</desc>
    <defs>
        <ellipse id="path-1" cx="27.1408658" cy="41.5859399" rx="8.31107851" ry="8.17332927"></ellipse>
        <filter x="-9.0%" y="-9.2%" width="118.0%" height="118.4%" filterUnits="objectBoundingBox" id="filter-2">
            <feOffset dx="2" dy="3" in="SourceAlpha" result="shadowOffsetInner1"></feOffset>
            <feComposite in="shadowOffsetInner1" in2="SourceAlpha" operator="arithmetic" k2="-1" k3="1" result="shadowInnerInner1"></feComposite>
            <feColorMatrix values="0 0 0 0 0   0 0 0 0 0   0 0 0 0 0  0 0 0 0.2 0" type="matrix" in="shadowInnerInner1"></feColorMatrix>
        </filter>
    </defs>
    <g id="SRP" stroke="none" stroke-width="1" fill="none" fill-rule="evenodd">
        <g id="SRP-Desktop---Tag-vert" transform="translate(-328.000000, -245.000000)">
            <g id="SRP---Banner" transform="translate(304.000000, 245.000000)">
                <g id="Tag-[white]" transform="translate(24.000000, 0.000000)">
                    <path d="M2.29420397,41.6216228 C2.29420397,40.4409946 3.07595832,38.906466 4.03050093,38.2013962 L27.6554859,20.7508776 C28.6144162,20.0425668 30.1837312,20.0037348 31.1772318,20.6753541 L57.214551,38.2769198 C58.2006273,38.9435201 59,40.4384006 59,41.6216228 L59,111.780059 C59,113.544922 57.5412912,114.975626 55.7475803,114.975626 L5.5466236,114.975626 C3.75036184,114.975626 2.29420397,113.534989 2.29420397,111.780059 L2.29420397,41.6216228 Z" id="Rectangle-5" fill-opacity="0.100000001" fill="#000000" fill-rule="nonzero"></path>
                    <path d="M0,36.9749235 C0,35.8455721 0.765055413,34.3915264 1.70137666,33.7324462 L25.8290708,16.7488666 C26.7687153,16.0874471 28.2955029,16.0897864 29.2318242,16.7488666 L53.3595184,33.7324462 C54.2991628,34.3938656 55.0608951,35.842493 55.0608951,36.9749235 L55.0608951,106.141488 C55.0608951,107.839173 53.6722935,109.215418 51.942822,109.215418 L3.11807307,109.215418 C1.39600887,109.215418 0,107.830401 0,106.141488 L0,36.9749235 Z" id="Rectangle-5" fill="#FFFFFF" fill-rule="nonzero"></path>
                    <g id="Oval-2" fill-rule="nonzero">
                        <use fill="#8D005E" fill-rule="evenodd" xlink:href="#path-1"></use>
                        <use fill="black" fill-opacity="1" filter="url(#filter-2)" xlink:href="#path-1"></use>
                    </g>
                    <path d="M23.8510638,3.7242341 C23.8510638,1.94414971 25.2440439,0.501106195 26.9893617,0.501106195 C28.7225958,0.501106195 30.1276596,1.93436823 30.1276596,3.7242341 L30.1276596,38.2779783 C30.1276596,40.0580627 28.7346795,41.5011062 26.9893617,41.5011062 C25.2561276,41.5011062 23.8510638,40.0678442 23.8510638,38.2779783 L23.8510638,3.7242341 Z" id="Rectangle-6" fill="#B30077" fill-rule="nonzero"></path>
                    <path d="M10.3886852,64.5612981 C10.4738083,64.4448034 10.5823388,64.3428721 10.7142797,64.2555011 C10.8462206,64.1681301 10.9887998,64.0974023 11.1420215,64.0433155 C11.2952433,63.9892286 11.4527188,63.947624 11.6144528,63.9185004 C11.7761869,63.8893767 11.9336624,63.8748151 12.0868841,63.8748151 C12.3337413,63.8748151 12.5763388,63.910179 12.8146837,63.9809079 C13.0530286,64.0516368 13.2658333,64.1577286 13.4531043,64.2991864 C13.6403753,64.4406442 13.7914667,64.6133033 13.906383,64.817169 C14.0212993,65.0210347 14.0787566,65.2519403 14.0787566,65.5098928 L14.0787566,78.9275148 C14.0787566,79.1937883 14.0234273,79.4226137 13.9127672,79.6139978 C13.8021071,79.8053819 13.6573998,79.9634794 13.4786412,80.0882951 C13.2998825,80.2131108 13.0955899,80.3067212 12.8657573,80.3691291 C12.6359247,80.4315369 12.4018395,80.4627404 12.1634946,80.4627404 C11.9166374,80.4627404 11.6804241,80.4315369 11.4548477,80.3691291 C11.2292712,80.3067212 11.0271067,80.2131108 10.848348,80.0882951 C10.6695894,79.9634794 10.5270102,79.8053819 10.4206062,79.6139978 C10.3142022,79.4226137 10.261001,79.1937883 10.261001,78.9275148 L10.261001,70.8020525 C10.0481931,71.0350418 9.80772371,71.207701 9.53958569,71.3200351 C9.27144767,71.4323693 8.98841734,71.4885355 8.69048621,71.4885355 C8.41809203,71.4885355 8.16059827,71.4469309 7.91799721,71.3637204 C7.67539615,71.2805099 7.46259139,71.1660973 7.27957655,71.0204789 C7.09656171,70.8748606 6.94972643,70.7042817 6.83906629,70.5087371 C6.72840616,70.3131924 6.67307692,70.1030891 6.67307692,69.8784209 C6.67307692,69.7619262 6.70286959,69.6287914 6.76245582,69.4790126 C6.82204204,69.3292337 6.92418833,69.1586548 7.06889773,68.9672707 L10.3886852,64.5612981 Z M25.5192548,69.9657914 C25.5192548,69.4332444 25.4469012,68.9776739 25.3021918,68.5990662 C25.1574824,68.2204585 24.9638301,67.9125844 24.721229,67.6754345 C24.4786279,67.4382847 24.2019817,67.2656255 23.8912821,67.1574519 C23.5805825,67.0492783 23.2592473,66.9951923 22.9272669,66.9951923 C22.6123112,66.9951923 22.3037443,67.0492783 22.001557,67.1574519 C21.6993697,67.2656255 21.4291076,67.4382847 21.1907627,67.6754345 C20.9524178,67.9125844 20.7608936,68.2204585 20.6161841,68.5990662 C20.4714747,68.9776739 20.3991211,69.4332444 20.3991211,69.9657914 L20.3991211,74.4840976 C20.3991211,75.0000026 20.4714747,75.4451719 20.6161841,75.8196191 C20.7608936,76.1940662 20.9524178,76.5040206 21.1907627,76.7494915 C21.4291076,76.9949624 21.6993697,77.1780227 22.001557,77.2986779 C22.3037443,77.4193331 22.6123112,77.4796598 22.9272669,77.4796598 C23.2592473,77.4796598 23.5805825,77.4234935 23.8912821,77.3111594 C24.2019817,77.1988253 24.4786279,77.0240859 24.721229,76.786936 C24.9638301,76.5497862 25.1574824,76.241912 25.3021918,75.8633044 C25.4469012,75.4846967 25.5192548,75.0249657 25.5192548,74.4840976 L25.5192548,69.9657914 Z M16.5558287,69.9657914 C16.5558287,68.9589447 16.7388408,68.0748466 17.1048705,67.3134708 C17.4709002,66.5520949 17.953967,65.9197048 18.5540854,65.4162814 C19.1542038,64.9128581 19.8373071,64.5342561 20.6034157,64.2804641 C21.3695244,64.0266722 22.1526459,63.8997781 22.9528038,63.8997781 C23.761474,63.8997781 24.5531077,64.0266722 25.3277286,64.2804641 C26.1023496,64.5342561 26.7897089,64.9128581 27.3898273,65.4162814 C27.9899458,65.9197048 28.4730126,66.5520949 28.8390422,67.3134708 C29.2050719,68.0748466 29.388084,68.9589447 29.388084,69.9657914 L29.388084,74.4840976 C29.388084,75.4992654 29.2050719,76.3896042 28.8390422,77.1551405 C28.4730126,77.9206769 27.9899458,78.5593077 27.3898273,79.0710521 C26.7897089,79.5827966 26.1023496,79.965559 25.3277286,80.219351 C24.5531077,80.4731429 23.761474,80.600037 22.9528038,80.600037 C22.1526459,80.600037 21.3695244,80.4731429 20.6034157,80.219351 C19.8373071,79.965559 19.1542038,79.5827966 18.5540854,79.0710521 C17.953967,78.5593077 17.4709002,77.9206769 17.1048705,77.1551405 C16.7388408,76.3896042 16.5558287,75.4992654 16.5558287,74.4840976 L16.5558287,69.9657914 Z M35.1211015,79.9509985 C34.9763921,80.1590247 34.8167886,80.2963199 34.6422861,80.3628883 C34.4677835,80.4294567 34.2868995,80.4627404 34.0996285,80.4627404 C33.9378944,80.4627404 33.784675,80.4336172 33.6399656,80.3753698 C33.4952562,80.3171225 33.3675734,80.2359935 33.2569132,80.1319804 C33.1462531,80.0279673 33.0590031,79.9052337 32.9951607,79.7637759 C32.9313184,79.6223181 32.8993976,79.4725415 32.8993976,79.3144416 C32.8993976,79.1979469 32.9185501,79.0772935 32.9568555,78.9524778 C32.9951609,78.8276621 33.0611304,78.7028483 33.1547659,78.5780325 L43.6376332,64.386557 C43.7738302,64.220136 43.9227936,64.0974024 44.0845276,64.0183524 C44.2462617,63.9393025 44.4037372,63.8997781 44.5569589,63.8997781 C44.7101806,63.8997781 44.861272,63.9289013 45.0102376,63.9871487 C45.1592031,64.045396 45.2911421,64.126525 45.4060584,64.2305381 C45.5209747,64.3345512 45.6124807,64.4552046 45.6805793,64.5925018 C45.7486778,64.7297991 45.7827266,64.873335 45.7827266,65.0231139 C45.7827266,65.1312875 45.7678302,65.2352991 45.7380371,65.3351516 C45.708244,65.4350042 45.6550428,65.5348553 45.578432,65.6347078 L35.1211015,79.9509985 Z M31.2267355,67.6317493 C31.2267355,67.0326338 31.3224977,66.4938541 31.5140248,66.0153939 C31.705552,65.5369336 31.9651738,65.1292084 32.292898,64.792206 C32.6206223,64.4552036 33.0057989,64.197255 33.4484394,64.0183524 C33.89108,63.8394499 34.3677626,63.75 34.8785017,63.75 C35.3892408,63.75 35.8680515,63.8394499 36.3149482,64.0183524 C36.7618449,64.197255 37.1534056,64.4552036 37.4896422,64.792206 C37.8258788,65.1292084 38.0897567,65.5369336 38.2812838,66.0153939 C38.472811,66.4938541 38.5685731,67.0326338 38.5685731,67.6317493 C38.5685731,68.2308647 38.472811,68.7717247 38.2812838,69.2543454 C38.0897567,69.7369662 37.8258788,70.1446914 37.4896422,70.4775333 C37.1534056,70.8103752 36.7618449,71.0662436 36.3149482,71.2451461 C35.8680515,71.4240486 35.3892408,71.5134985 34.8785017,71.5134985 C34.3677626,71.5134985 33.89108,71.4240486 33.4484394,71.2451461 C33.0057989,71.0662436 32.6206223,70.8103752 32.292898,70.4775333 C31.9651738,70.1446914 31.705552,69.7369662 31.5140248,69.2543454 C31.3224977,68.7717247 31.2267355,68.2308647 31.2267355,67.6317493 Z M33.4484394,67.6317493 C33.4484394,68.2308647 33.5846345,68.6885154 33.8570286,69.0047152 C34.1294228,69.320915 34.4699104,69.4790126 34.8785017,69.4790126 C35.287093,69.4790126 35.6339647,69.320915 35.9191274,69.0047152 C36.20429,68.6885154 36.3468692,68.2308647 36.3468692,67.6317493 C36.3468692,67.0326338 36.20429,66.5770633 35.9191274,66.265024 C35.6339647,65.9529848 35.287093,65.7969675 34.8785017,65.7969675 C34.4699104,65.7969675 34.1294228,65.9529848 33.8570286,66.265024 C33.5846345,66.5770633 33.4484394,67.0326338 33.4484394,67.6317493 Z M40.1646248,76.7307692 C40.1646248,76.1316538 40.2603869,75.5928741 40.4519141,75.1144138 C40.6434412,74.6359536 40.903063,74.2282284 41.2307873,73.891226 C41.5585115,73.5542235 41.9458162,73.2962749 42.3927129,73.1173724 C42.8396096,72.9384699 43.3184203,72.84902 43.8291594,72.84902 C44.3398984,72.84902 44.8187091,72.9384699 45.2656058,73.1173724 C45.7125025,73.2962749 46.1040633,73.5542235 46.4402999,73.891226 C46.7765364,74.2282284 47.0404143,74.6359536 47.2319415,75.1144138 C47.4234686,75.5928741 47.5192308,76.1316538 47.5192308,76.7307692 C47.5192308,77.3298847 47.4234686,77.8707446 47.2319415,78.3533654 C47.0404143,78.8359861 46.7765364,79.2457916 46.4402999,79.582794 C46.1040633,79.9197964 45.7125025,80.177745 45.2656058,80.3566476 C44.8187091,80.5355501 44.3398984,80.625 43.8291594,80.625 C43.3184203,80.625 42.8396096,80.5355501 42.3927129,80.3566476 C41.9458162,80.177745 41.5585115,79.9197964 41.2307873,79.582794 C40.903063,79.2457916 40.6434412,78.8359861 40.4519141,78.3533654 C40.2603869,77.8707446 40.1646248,77.3298847 40.1646248,76.7307692 Z M42.3863287,76.7307692 C42.3863287,77.3382057 42.5246518,77.7979367 42.8013021,78.109976 C43.0779524,78.4220152 43.4205681,78.5780325 43.8291594,78.5780325 C44.033455,78.5780325 44.2228512,78.5385082 44.3973537,78.4594582 C44.5718563,78.3804083 44.7272037,78.2639153 44.8634008,78.109976 C44.9995979,77.9560366 45.1060003,77.7625751 45.1826112,77.5295858 C45.259222,77.2965965 45.2975269,77.0303269 45.2975269,76.7307692 C45.2975269,76.4312115 45.259222,76.1670222 45.1826112,75.9381934 C45.1060003,75.7093646 44.9995979,75.5179834 44.8634008,75.364044 C44.7272037,75.2101046 44.5718563,75.0936117 44.3973537,75.0145618 C44.2228512,74.9355118 44.033455,74.8959874 43.8291594,74.8959874 C43.4205681,74.8959874 43.0779524,75.0520047 42.8013021,75.364044 C42.5246518,75.6760833 42.3863287,76.1316538 42.3863287,76.7307692 Z" id="10%" fill="#B30077"></path>
                    <path d="M7.80769231,91.3125 C7.80769231,90.4154911 7.96812062,89.5886687 8.28898206,88.8320081 C8.6098435,88.0753475 9.05422993,87.4224325 9.62215468,86.8732433 C10.1900794,86.3240542 10.8606698,85.895388 11.6339459,85.5872319 C12.4072219,85.2790758 13.246262,85.125 14.1510913,85.125 C15.0559205,85.125 15.8949606,85.2790758 16.6682367,85.5872319 C17.4415128,85.895388 18.1121031,86.3240542 18.6800279,86.8732433 C19.2479526,87.4224325 19.6939433,88.0753475 20.0180134,88.8320081 C20.3420834,89.5886687 20.504116,90.4154911 20.504116,91.3125 C20.504116,92.2095089 20.3420834,93.0363313 20.0180134,93.7929919 C19.6939433,94.5496525 19.2479526,95.2025675 18.6800279,95.7517567 C18.1121031,96.3009458 17.4415128,96.729612 16.6682367,97.0377681 C15.8949606,97.3459242 15.0559205,97.5 14.1510913,97.5 C13.246262,97.5 12.4072219,97.3459242 11.6339459,97.0377681 C10.8606698,96.729612 10.1900794,96.3009458 9.62215468,95.7517567 C9.05422993,95.2025675 8.6098435,94.5496525 8.28898206,93.7929919 C7.96812062,93.0363313 7.80769231,92.2095089 7.80769231,91.3125 Z M9.28043896,91.3125 C9.28043896,92.0508543 9.40396876,92.7220754 9.65103207,93.3261834 C9.89809538,93.9302915 10.2398077,94.4459113 10.6761792,94.8730584 C11.1125508,95.3002055 11.6275257,95.6312396 12.2211194,95.8661705 C12.814713,96.1011014 13.4580306,96.2185651 14.1510913,96.2185651 C14.844152,96.2185651 15.4874695,96.1011014 16.0810632,95.8661705 C16.6746569,95.6312396 17.1896317,95.3002055 17.6260033,94.8730584 C18.0623749,94.4459113 18.4040872,93.9302915 18.6511505,93.3261834 C18.8982138,92.7220754 19.0217436,92.0508543 19.0217436,91.3125 C19.0217436,90.5741457 18.8982138,89.9013991 18.6511505,89.29424 C18.4040872,88.6870809 18.0623749,88.1699356 17.6260033,87.7427885 C17.1896317,87.3156414 16.6746569,86.9846073 16.0810632,86.7496764 C15.4874695,86.5147455 14.844152,86.3972818 14.1510913,86.3972818 C13.4580306,86.3972818 12.814713,86.5147455 12.2211194,86.7496764 C11.6275257,86.9846073 11.1125508,87.3156414 10.6761792,87.7427885 C10.2398077,88.1699356 9.89809538,88.6870809 9.65103207,89.29424 C9.40396876,89.9013991 9.28043896,90.5741457 9.28043896,91.3125 Z M24.4532589,86.159301 C24.4532589,86.0494632 24.4757188,85.945729 24.5206394,85.8480954 C24.56556,85.7504618 24.6281271,85.6635081 24.7083424,85.5872319 C24.7885578,85.5109556 24.8816062,85.451461 24.9874905,85.4087463 C25.0933748,85.3660316 25.2040703,85.3446746 25.3195804,85.3446746 L33.4437515,85.3446746 C33.6491028,85.3446746 33.803114,85.4072202 33.9057897,85.5323132 C34.0084653,85.6574063 34.0598024,85.796227 34.0598024,85.9487796 C34.0598024,86.1013321 34.0084653,86.2401529 33.9057897,86.3652459 C33.803114,86.490339 33.6491028,86.5528846 33.4437515,86.5528846 L25.8778765,86.5528846 L25.8778765,91.2392751 L33.0683455,91.2392751 C33.2672796,91.2392751 33.4164779,91.3002952 33.515945,91.4223373 C33.615412,91.5443793 33.6651448,91.6816745 33.6651448,91.8342271 C33.6651448,91.9745754 33.615412,92.1042431 33.515945,92.2232341 C33.4164779,92.3422251 33.2672796,92.4017197 33.0683455,92.4017197 L25.8778765,92.4017197 L25.8778765,96.6670673 C25.8778765,96.9050493 25.8040795,97.0835331 25.6564833,97.202524 C25.508887,97.321515 25.3452501,97.3810096 25.1655677,97.3810096 C24.9858853,97.3810096 24.8222484,97.324566 24.6746522,97.2116771 C24.5270559,97.0987883 24.4532589,96.9264065 24.4532589,96.6945266 L24.4532589,86.159301 Z M37.9126873,86.159301 C37.9126873,86.0494632 37.9351472,85.945729 37.9800678,85.8480954 C38.0249884,85.7504618 38.0875555,85.6635081 38.1677708,85.5872319 C38.2479862,85.5109556 38.3410346,85.451461 38.4469189,85.4087463 C38.5528032,85.3660316 38.6634987,85.3446746 38.7790088,85.3446746 L46.9031799,85.3446746 C47.1085312,85.3446746 47.2625424,85.4072202 47.365218,85.5323132 C47.4678937,85.6574063 47.5192308,85.796227 47.5192308,85.9487796 C47.5192308,86.1013321 47.4678937,86.2401529 47.365218,86.3652459 C47.2625424,86.490339 47.1085312,86.5528846 46.9031799,86.5528846 L39.3373049,86.5528846 L39.3373049,91.2392751 L46.5277739,91.2392751 C46.726708,91.2392751 46.8759063,91.3002952 46.9753733,91.4223373 C47.0748404,91.5443793 47.1245732,91.6816745 47.1245732,91.8342271 C47.1245732,91.9745754 47.0748404,92.1042431 46.9753733,92.2232341 C46.8759063,92.3422251 46.726708,92.4017197 46.5277739,92.4017197 L39.3373049,92.4017197 L39.3373049,96.6670673 C39.3373049,96.9050493 39.2635079,97.0835331 39.1159116,97.202524 C38.9683154,97.321515 38.8046785,97.3810096 38.6249961,97.3810096 C38.4453137,97.3810096 38.2816768,97.324566 38.1340805,97.2116771 C37.9864843,97.0987883 37.9126873,96.9264065 37.9126873,96.6945266 L37.9126873,86.159301 Z" id="OFF" fill="#B30077"></path>
                </g>
            </g>
        </g>
    </g>
</svg>