<?xml version="1.0" encoding="UTF-8" standalone="no"?>
<svg width="37px" height="62px" viewBox="0 0 37 62" version="1.1" xmlns="http://www.w3.org/2000/svg" xmlns:xlink="http://www.w3.org/1999/xlink">
    <!-- Generator: Sketch 42 (36781) - http://www.bohemiancoding.com/sketch -->
    <title>TAG_PERCENT_[plum]</title>
    <desc>Created with Sketch.</desc>
    <defs></defs>
    <g id="Home-page" stroke="none" stroke-width="1" fill="none" fill-rule="evenodd">
        <g id="TAG_PERCENT_[plum]" fill="#B30077">
            <g id="Deal_OnWhite">
                <path d="M0,15.7059974 C0,14.7945324 0.594575144,13.6091517 1.33047438,13.0565329 L17.1695256,1.16229919 C17.9043263,0.610505323 19.0945751,0.609680394 19.8304744,1.16229919 L35.6695256,13.0565329 C36.4043263,13.6083268 37,14.78955 37,15.7059974 L37,59.5065595 C37,60.8836487 35.8926635,62 34.5148729,62 L2.48512714,62 C1.11262932,62 0,60.8854493 0,59.5065595 L0,15.7059974 Z M26.7780482,30.4700887 C26.9906237,30.1727253 27.0614822,29.875362 27.0614822,29.5779987 C27.0614822,28.6859088 26.2466095,27.9425005 25.3963076,27.9425005 C24.9711567,27.9425005 24.5105765,28.165523 24.1562841,28.6487383 L9.94915669,49.2783185 C9.70115198,49.6500226 9.59486424,50.0217268 9.59486424,50.3562605 C9.59486424,51.2855209 10.3388784,52.0289291 11.2246095,52.0289291 C11.720619,52.0289291 12.2166284,51.8802475 12.6063501,51.2855209 L26.7780482,30.4700887 Z M7.32739254,33.369381 C7.32739254,36.8634 9.52400575,39.019284 12.2874869,39.019284 C15.050968,39.019284 17.2830105,36.8634 17.2830105,33.369381 C17.2830105,29.875362 15.050968,27.719478 12.2874869,27.719478 C9.52400575,27.719478 7.32739254,29.875362 7.32739254,33.369381 Z M10.3388784,33.369381 C10.3388784,31.6223715 11.1891803,30.6931112 12.2874869,30.6931112 C13.3857935,30.6931112 14.2715246,31.6223715 14.2715246,33.369381 C14.2715246,35.1163905 13.3857935,36.0456509 12.2874869,36.0456509 C11.1891803,36.0456509 10.3388784,35.1163905 10.3388784,33.369381 Z M19.4441944,46.6020486 C19.4441944,50.0960676 21.6408076,52.2519516 24.4042888,52.2519516 C27.1677699,52.2519516 29.3998124,50.0960676 29.3998124,46.6020486 C29.3998124,43.1080296 27.1677699,40.9521456 24.4042888,40.9521456 C21.6408076,40.9521456 19.4441944,43.1080296 19.4441944,46.6020486 Z M22.4556803,46.6020486 C22.4556803,44.8550391 23.3059822,43.9257788 24.4042888,43.9257788 C25.5025954,43.9257788 26.3883265,44.8550391 26.3883265,46.6020486 C26.3883265,48.3490581 25.5025954,49.2783185 24.4042888,49.2783185 C23.3059822,49.2783185 22.4556803,48.3490581 22.4556803,46.6020486 Z" id="Combined-Shape"></path>
            </g>
        </g>
    </g>
</svg>