<?xml version="1.0" encoding="UTF-8" standalone="no"?>
<svg width="47px" height="105px" viewBox="0 0 47 105" version="1.1" xmlns="http://www.w3.org/2000/svg" xmlns:xlink="http://www.w3.org/1999/xlink">
    <!-- Generator: Sketch 42 (36781) - http://www.bohemiancoding.com/sketch -->
    <title>TAG_[plum]</title>
    <desc>Created with Sketch.</desc>
    <defs></defs>
    <g id="Home-page" stroke="none" stroke-width="1" fill="none" fill-rule="evenodd">
        <g id="TAG_[plum]">
            <g id="Tag-[white]">
                <g id="SRP">
                    <g>
                        <g id="Tag-[white]">
                            <path d="M1.82758621,44.6495941 C1.82758621,43.6932429 2.45033968,42.4502198 3.21073803,41.879088 L22.0306413,27.7435424 C22.7945349,27.1697853 24.0446672,27.13833 24.8360999,27.6823657 L45.5776932,41.9402648 C46.3632116,42.4802349 47,43.6911417 47,44.6495941 L47,101.480442 C47,102.910044 45.8379777,104.068966 44.4090894,104.068966 L4.41849677,104.068966 C2.98757638,104.068966 1.82758621,102.901998 1.82758621,101.480442 L1.82758621,44.6495941 Z M21.5,54 C26.7467051,54 31,49.7467051 31,44.5 C31,39.2532949 26.7467051,35 21.5,35 C16.2532949,35 12,39.2532949 12,44.5 C12,49.7467051 16.2532949,54 21.5,54 Z" id="Combined-Shape" fill="#D8D8D8"></path>
                            <path d="M0,40.8856011 C0,39.970786 0.609450922,38.7929569 1.35533395,38.2590783 L20.5757005,24.5017701 C21.3242308,23.9659966 22.5404854,23.9678915 23.2863684,24.5017701 L42.506735,38.2590783 C43.2552653,38.7948517 43.862069,39.9682918 43.862069,40.8856011 L43.862069,96.9129978 C43.862069,98.2881831 42.7558948,99.402991 41.3781802,99.402991 L2.48388872,99.402991 C1.11207486,99.402991 0,98.2810774 0,96.9129978 L0,40.8856011 Z M21.6206897,51.2413794 C25.2771956,51.2413794 28.2413794,48.2771956 28.2413794,44.6206897 C28.2413794,40.9641838 25.2771956,38 21.6206897,38 C17.9641838,38 15,40.9641838 15,44.6206897 C15,48.2771956 17.9641838,51.2413794 21.6206897,51.2413794 Z" id="Combined-Shape" fill="#B30077" fill-rule="nonzero"></path>
                            <path d="M19,2.50582704 C19,1.12189698 20.1096621,0 21.5,0 L21.5,0 C22.8807119,0 24,1.11429235 24,2.50582704 L24,43.494173 C24,44.878103 22.8903379,46 21.5,46 L21.5,46 C20.1192881,46 19,44.8857077 19,43.494173 L19,2.50582704 Z" id="Rectangle-6" fill="#800055" fill-rule="nonzero"></path>
                            <rect id="Rectangle-4" fill="#800055" fill-rule="nonzero" x="19" y="0" width="5" height="5"></rect>
                        </g>
                    </g>
                </g>
            </g>
        </g>
    </g>
</svg>