<?xml version="1.0" encoding="UTF-8" standalone="no"?>
<svg width="59px" height="62px" viewBox="0 0 59 62" version="1.1" xmlns="http://www.w3.org/2000/svg" xmlns:xlink="http://www.w3.org/1999/xlink">
    <!-- Generator: Sketch 42 (36781) - http://www.bohemiancoding.com/sketch -->
    <title>TAG_ANGLE_[white]</title>
    <desc>Created with Sketch.</desc>
    <defs></defs>
    <g id="Home-page" stroke="none" stroke-width="1" fill="none" fill-rule="evenodd">
        <g id="TAG_ANGLE_[white]" fill="#FFFFFF">
            <g id="Deal_OnWhite">
                <path d="M26.138941,2.67446566 C26.6655988,1.92232028 27.8273024,1.30145589 28.7579,1.28735932 L49.1104357,0.979061963 C50.0301889,0.965129669 51.0166412,1.64809338 51.3216779,2.52739044 L57.9929503,21.7579619 C58.2944324,22.6270124 58.107325,23.9477727 57.5852335,24.6933967 L32.4963299,60.5240643 C31.7072842,61.6509383 30.1604233,61.9292128 29.0285868,61.1366924 L1.66039332,41.973277 C0.534257392,41.1847481 0.25996002,39.6334807 1.0500374,38.5051333 L26.138941,2.67446566 Z M41.3614228,18.9746642 C43.905611,18.9746642 45.968083,16.9266056 45.968083,14.4001973 C45.968083,11.8737889 43.905611,9.8257303 41.3614228,9.8257303 C38.8172346,9.8257303 36.7547626,11.8737889 36.7547626,14.4001973 C36.7547626,16.9266056 38.8172346,18.9746642 41.3614228,18.9746642 Z" id="Combined-Shape"></path>
            </g>
        </g>
    </g>
</svg>