<?xml version="1.0" encoding="UTF-8" standalone="no"?>
<svg width="59px" height="137px" viewBox="0 0 59 137" version="1.1" xmlns="http://www.w3.org/2000/svg" xmlns:xlink="http://www.w3.org/1999/xlink">
    <!-- Generator: Sketch 43.1 (39012) - http://www.bohemiancoding.com/sketch -->
    <title>Tag [white]</title>
    <desc>Created with Sketch.</desc>
    <defs>
        <ellipse id="path-1" cx="27.1408658" cy="63.5859399" rx="8.31107851" ry="8.17332927"></ellipse>
        <filter x="-9.0%" y="-9.2%" width="118.0%" height="118.4%" filterUnits="objectBoundingBox" id="filter-2">
            <feOffset dx="2" dy="3" in="SourceAlpha" result="shadowOffsetInner1"></feOffset>
            <feComposite in="shadowOffsetInner1" in2="SourceAlpha" operator="arithmetic" k2="-1" k3="1" result="shadowInnerInner1"></feComposite>
            <feColorMatrix values="0 0 0 0 0   0 0 0 0 0   0 0 0 0 0  0 0 0 0.2 0" type="matrix" in="shadowInnerInner1"></feColorMatrix>
        </filter>
        <ellipse id="path-3" cx="26.9537644" cy="7.37569376" rx="7.5" ry="7.37569372"></ellipse>
        <filter x="-10.0%" y="-10.2%" width="120.0%" height="120.3%" filterUnits="objectBoundingBox" id="filter-4">
            <feOffset dx="2" dy="3" in="SourceAlpha" result="shadowOffsetInner1"></feOffset>
            <feComposite in="shadowOffsetInner1" in2="SourceAlpha" operator="arithmetic" k2="-1" k3="1" result="shadowInnerInner1"></feComposite>
            <feColorMatrix values="0 0 0 0 0   0 0 0 0 0   0 0 0 0 0  0 0 0 0.3 0" type="matrix" in="shadowInnerInner1"></feColorMatrix>
        </filter>
    </defs>
    <g id="Homepage" stroke="none" stroke-width="1" fill="none" fill-rule="evenodd">
        <g id="Homepage-desktop-01---Tag-vert" transform="translate(-73.000000, -75.000000)">
            <g id="Tag-[white]" transform="translate(73.000000, 75.000000)">
                <g id="SRP" fill-rule="nonzero">
                    <g>
                        <g id="Tag-[white]">
                            <path d="M2.29420397,63.6216228 C2.29420397,62.4409946 3.07595832,60.906466 4.03050093,60.2013962 L27.6554859,42.7508776 C28.6144162,42.0425668 30.1837312,42.0037348 31.1772318,42.6753541 L57.214551,60.2769198 C58.2006273,60.9435201 59,62.4384006 59,63.6216228 L59,133.780059 C59,135.544922 57.5412912,136.975626 55.7475803,136.975626 L5.5466236,136.975626 C3.75036184,136.975626 2.29420397,135.534989 2.29420397,133.780059 L2.29420397,63.6216228 Z" id="Rectangle-5" fill-opacity="0.100000001" fill="#000000"></path>
                            <path d="M0,58.9749235 C0,57.8455721 0.765055413,56.3915264 1.70137666,55.7324462 L25.8290708,38.7488666 C26.7687153,38.0874471 28.2955029,38.0897864 29.2318242,38.7488666 L53.3595184,55.7324462 C54.2991628,56.3938656 55.0608951,57.842493 55.0608951,58.9749235 L55.0608951,128.141488 C55.0608951,129.839173 53.6722935,131.215418 51.942822,131.215418 L3.11807307,131.215418 C1.39600887,131.215418 0,129.830401 0,128.141488 L0,58.9749235 Z" id="Rectangle-5" fill="#FFFFFF"></path>
                            <g id="Oval-2">
                                <use fill="#8D005E" fill-rule="evenodd" xlink:href="#path-1"></use>
                                <use fill="black" fill-opacity="1" filter="url(#filter-2)" xlink:href="#path-1"></use>
                            </g>
                            <g id="Oval-2">
                                <use fill="#848484" fill-rule="evenodd" xlink:href="#path-3"></use>
                                <use fill="black" fill-opacity="1" filter="url(#filter-4)" xlink:href="#path-3"></use>
                            </g>
                            <path d="M23.8510638,11.7242341 C23.8510638,9.94414971 25.2440439,8.50110619 26.9893617,8.50110619 C28.7225958,8.50110619 30.1276596,9.93436823 30.1276596,11.7242341 L30.1276596,60.2779783 C30.1276596,62.0580627 28.7346795,63.5011062 26.9893617,63.5011062 C25.2561276,63.5011062 23.8510638,62.0678442 23.8510638,60.2779783 L23.8510638,11.7242341 Z" id="Rectangle-6" fill="#B30077"></path>
                        </g>
                    </g>
                </g>
                <path d="M10.3886852,86.5612981 C10.4738083,86.4448034 10.5823388,86.3428721 10.7142797,86.2555011 C10.8462206,86.1681301 10.9887998,86.0974023 11.1420215,86.0433155 C11.2952433,85.9892286 11.4527188,85.947624 11.6144528,85.9185004 C11.7761869,85.8893767 11.9336624,85.8748151 12.0868841,85.8748151 C12.3337413,85.8748151 12.5763388,85.910179 12.8146837,85.9809079 C13.0530286,86.0516368 13.2658333,86.1577286 13.4531043,86.2991864 C13.6403753,86.4406442 13.7914667,86.6133033 13.906383,86.817169 C14.0212993,87.0210347 14.0787566,87.2519403 14.0787566,87.5098928 L14.0787566,100.927515 C14.0787566,101.193788 14.0234273,101.422614 13.9127672,101.613998 C13.8021071,101.805382 13.6573998,101.963479 13.4786412,102.088295 C13.2998825,102.213111 13.0955899,102.306721 12.8657573,102.369129 C12.6359247,102.431537 12.4018395,102.46274 12.1634946,102.46274 C11.9166374,102.46274 11.6804241,102.431537 11.4548477,102.369129 C11.2292712,102.306721 11.0271067,102.213111 10.848348,102.088295 C10.6695894,101.963479 10.5270102,101.805382 10.4206062,101.613998 C10.3142022,101.422614 10.261001,101.193788 10.261001,100.927515 L10.261001,92.8020525 C10.0481931,93.0350418 9.80772371,93.207701 9.53958569,93.3200351 C9.27144767,93.4323693 8.98841734,93.4885355 8.69048621,93.4885355 C8.41809203,93.4885355 8.16059827,93.4469309 7.91799721,93.3637204 C7.67539615,93.2805099 7.46259139,93.1660973 7.27957655,93.0204789 C7.09656171,92.8748606 6.94972643,92.7042817 6.83906629,92.5087371 C6.72840616,92.3131924 6.67307692,92.1030891 6.67307692,91.8784209 C6.67307692,91.7619262 6.70286959,91.6287914 6.76245582,91.4790126 C6.82204204,91.3292337 6.92418833,91.1586548 7.06889773,90.9672707 L10.3886852,86.5612981 Z M25.5192548,91.9657914 C25.5192548,91.4332444 25.4469012,90.9776739 25.3021918,90.5990662 C25.1574824,90.2204585 24.9638301,89.9125844 24.721229,89.6754345 C24.4786279,89.4382847 24.2019817,89.2656255 23.8912821,89.1574519 C23.5805825,89.0492783 23.2592473,88.9951923 22.9272669,88.9951923 C22.6123112,88.9951923 22.3037443,89.0492783 22.001557,89.1574519 C21.6993697,89.2656255 21.4291076,89.4382847 21.1907627,89.6754345 C20.9524178,89.9125844 20.7608936,90.2204585 20.6161841,90.5990662 C20.4714747,90.9776739 20.3991211,91.4332444 20.3991211,91.9657914 L20.3991211,96.4840976 C20.3991211,97.0000026 20.4714747,97.4451719 20.6161841,97.8196191 C20.7608936,98.1940662 20.9524178,98.5040206 21.1907627,98.7494915 C21.4291076,98.9949624 21.6993697,99.1780227 22.001557,99.2986779 C22.3037443,99.4193331 22.6123112,99.4796598 22.9272669,99.4796598 C23.2592473,99.4796598 23.5805825,99.4234935 23.8912821,99.3111594 C24.2019817,99.1988253 24.4786279,99.0240859 24.721229,98.786936 C24.9638301,98.5497862 25.1574824,98.241912 25.3021918,97.8633044 C25.4469012,97.4846967 25.5192548,97.0249657 25.5192548,96.4840976 L25.5192548,91.9657914 Z M16.5558287,91.9657914 C16.5558287,90.9589447 16.7388408,90.0748466 17.1048705,89.3134708 C17.4709002,88.5520949 17.953967,87.9197048 18.5540854,87.4162814 C19.1542038,86.9128581 19.8373071,86.5342561 20.6034157,86.2804641 C21.3695244,86.0266722 22.1526459,85.8997781 22.9528038,85.8997781 C23.761474,85.8997781 24.5531077,86.0266722 25.3277286,86.2804641 C26.1023496,86.5342561 26.7897089,86.9128581 27.3898273,87.4162814 C27.9899458,87.9197048 28.4730126,88.5520949 28.8390422,89.3134708 C29.2050719,90.0748466 29.388084,90.9589447 29.388084,91.9657914 L29.388084,96.4840976 C29.388084,97.4992654 29.2050719,98.3896042 28.8390422,99.1551405 C28.4730126,99.9206769 27.9899458,100.559308 27.3898273,101.071052 C26.7897089,101.582797 26.1023496,101.965559 25.3277286,102.219351 C24.5531077,102.473143 23.761474,102.600037 22.9528038,102.600037 C22.1526459,102.600037 21.3695244,102.473143 20.6034157,102.219351 C19.8373071,101.965559 19.1542038,101.582797 18.5540854,101.071052 C17.953967,100.559308 17.4709002,99.9206769 17.1048705,99.1551405 C16.7388408,98.3896042 16.5558287,97.4992654 16.5558287,96.4840976 L16.5558287,91.9657914 Z M35.1211015,101.950999 C34.9763921,102.159025 34.8167886,102.29632 34.6422861,102.362888 C34.4677835,102.429457 34.2868995,102.46274 34.0996285,102.46274 C33.9378944,102.46274 33.784675,102.433617 33.6399656,102.37537 C33.4952562,102.317122 33.3675734,102.235993 33.2569132,102.13198 C33.1462531,102.027967 33.0590031,101.905234 32.9951607,101.763776 C32.9313184,101.622318 32.8993976,101.472541 32.8993976,101.314442 C32.8993976,101.197947 32.9185501,101.077294 32.9568555,100.952478 C32.9951609,100.827662 33.0611304,100.702848 33.1547659,100.578033 L43.6376332,86.386557 C43.7738302,86.220136 43.9227936,86.0974024 44.0845276,86.0183524 C44.2462617,85.9393025 44.4037372,85.8997781 44.5569589,85.8997781 C44.7101806,85.8997781 44.861272,85.9289013 45.0102376,85.9871487 C45.1592031,86.045396 45.2911421,86.126525 45.4060584,86.2305381 C45.5209747,86.3345512 45.6124807,86.4552046 45.6805793,86.5925018 C45.7486778,86.7297991 45.7827266,86.873335 45.7827266,87.0231139 C45.7827266,87.1312875 45.7678302,87.2352991 45.7380371,87.3351516 C45.708244,87.4350042 45.6550428,87.5348553 45.578432,87.6347078 L35.1211015,101.950999 Z M31.2267355,89.6317493 C31.2267355,89.0326338 31.3224977,88.4938541 31.5140248,88.0153939 C31.705552,87.5369336 31.9651738,87.1292084 32.292898,86.792206 C32.6206223,86.4552036 33.0057989,86.197255 33.4484394,86.0183524 C33.89108,85.8394499 34.3677626,85.75 34.8785017,85.75 C35.3892408,85.75 35.8680515,85.8394499 36.3149482,86.0183524 C36.7618449,86.197255 37.1534056,86.4552036 37.4896422,86.792206 C37.8258788,87.1292084 38.0897567,87.5369336 38.2812838,88.0153939 C38.472811,88.4938541 38.5685731,89.0326338 38.5685731,89.6317493 C38.5685731,90.2308647 38.472811,90.7717247 38.2812838,91.2543454 C38.0897567,91.7369662 37.8258788,92.1446914 37.4896422,92.4775333 C37.1534056,92.8103752 36.7618449,93.0662436 36.3149482,93.2451461 C35.8680515,93.4240486 35.3892408,93.5134985 34.8785017,93.5134985 C34.3677626,93.5134985 33.89108,93.4240486 33.4484394,93.2451461 C33.0057989,93.0662436 32.6206223,92.8103752 32.292898,92.4775333 C31.9651738,92.1446914 31.705552,91.7369662 31.5140248,91.2543454 C31.3224977,90.7717247 31.2267355,90.2308647 31.2267355,89.6317493 Z M33.4484394,89.6317493 C33.4484394,90.2308647 33.5846345,90.6885154 33.8570286,91.0047152 C34.1294228,91.320915 34.4699104,91.4790126 34.8785017,91.4790126 C35.287093,91.4790126 35.6339647,91.320915 35.9191274,91.0047152 C36.20429,90.6885154 36.3468692,90.2308647 36.3468692,89.6317493 C36.3468692,89.0326338 36.20429,88.5770633 35.9191274,88.265024 C35.6339647,87.9529848 35.287093,87.7969675 34.8785017,87.7969675 C34.4699104,87.7969675 34.1294228,87.9529848 33.8570286,88.265024 C33.5846345,88.5770633 33.4484394,89.0326338 33.4484394,89.6317493 Z M40.1646248,98.7307692 C40.1646248,98.1316538 40.2603869,97.5928741 40.4519141,97.1144138 C40.6434412,96.6359536 40.903063,96.2282284 41.2307873,95.891226 C41.5585115,95.5542235 41.9458162,95.2962749 42.3927129,95.1173724 C42.8396096,94.9384699 43.3184203,94.84902 43.8291594,94.84902 C44.3398984,94.84902 44.8187091,94.9384699 45.2656058,95.1173724 C45.7125025,95.2962749 46.1040633,95.5542235 46.4402999,95.891226 C46.7765364,96.2282284 47.0404143,96.6359536 47.2319415,97.1144138 C47.4234686,97.5928741 47.5192308,98.1316538 47.5192308,98.7307692 C47.5192308,99.3298847 47.4234686,99.8707446 47.2319415,100.353365 C47.0404143,100.835986 46.7765364,101.245792 46.4402999,101.582794 C46.1040633,101.919796 45.7125025,102.177745 45.2656058,102.356648 C44.8187091,102.53555 44.3398984,102.625 43.8291594,102.625 C43.3184203,102.625 42.8396096,102.53555 42.3927129,102.356648 C41.9458162,102.177745 41.5585115,101.919796 41.2307873,101.582794 C40.903063,101.245792 40.6434412,100.835986 40.4519141,100.353365 C40.2603869,99.8707446 40.1646248,99.3298847 40.1646248,98.7307692 Z M42.3863287,98.7307692 C42.3863287,99.3382057 42.5246518,99.7979367 42.8013021,100.109976 C43.0779524,100.422015 43.4205681,100.578033 43.8291594,100.578033 C44.033455,100.578033 44.2228512,100.538508 44.3973537,100.459458 C44.5718563,100.380408 44.7272037,100.263915 44.8634008,100.109976 C44.9995979,99.9560366 45.1060003,99.7625751 45.1826112,99.5295858 C45.259222,99.2965965 45.2975269,99.0303269 45.2975269,98.7307692 C45.2975269,98.4312115 45.259222,98.1670222 45.1826112,97.9381934 C45.1060003,97.7093646 44.9995979,97.5179834 44.8634008,97.364044 C44.7272037,97.2101046 44.5718563,97.0936117 44.3973537,97.0145618 C44.2228512,96.9355118 44.033455,96.8959874 43.8291594,96.8959874 C43.4205681,96.8959874 43.0779524,97.0520047 42.8013021,97.364044 C42.5246518,97.6760833 42.3863287,98.1316538 42.3863287,98.7307692 Z" id="10%" fill="#B30077"></path>
                <path d="M7.80769231,113.3125 C7.80769231,112.415491 7.96812062,111.588669 8.28898206,110.832008 C8.6098435,110.075348 9.05422993,109.422432 9.62215468,108.873243 C10.1900794,108.324054 10.8606698,107.895388 11.6339459,107.587232 C12.4072219,107.279076 13.246262,107.125 14.1510913,107.125 C15.0559205,107.125 15.8949606,107.279076 16.6682367,107.587232 C17.4415128,107.895388 18.1121031,108.324054 18.6800279,108.873243 C19.2479526,109.422432 19.6939433,110.075348 20.0180134,110.832008 C20.3420834,111.588669 20.504116,112.415491 20.504116,113.3125 C20.504116,114.209509 20.3420834,115.036331 20.0180134,115.792992 C19.6939433,116.549652 19.2479526,117.202568 18.6800279,117.751757 C18.1121031,118.300946 17.4415128,118.729612 16.6682367,119.037768 C15.8949606,119.345924 15.0559205,119.5 14.1510913,119.5 C13.246262,119.5 12.4072219,119.345924 11.6339459,119.037768 C10.8606698,118.729612 10.1900794,118.300946 9.62215468,117.751757 C9.05422993,117.202568 8.6098435,116.549652 8.28898206,115.792992 C7.96812062,115.036331 7.80769231,114.209509 7.80769231,113.3125 Z M9.28043896,113.3125 C9.28043896,114.050854 9.40396876,114.722075 9.65103207,115.326183 C9.89809538,115.930291 10.2398077,116.445911 10.6761792,116.873058 C11.1125508,117.300206 11.6275257,117.63124 12.2211194,117.86617 C12.814713,118.101101 13.4580306,118.218565 14.1510913,118.218565 C14.844152,118.218565 15.4874695,118.101101 16.0810632,117.86617 C16.6746569,117.63124 17.1896317,117.300206 17.6260033,116.873058 C18.0623749,116.445911 18.4040872,115.930291 18.6511505,115.326183 C18.8982138,114.722075 19.0217436,114.050854 19.0217436,113.3125 C19.0217436,112.574146 18.8982138,111.901399 18.6511505,111.29424 C18.4040872,110.687081 18.0623749,110.169936 17.6260033,109.742788 C17.1896317,109.315641 16.6746569,108.984607 16.0810632,108.749676 C15.4874695,108.514745 14.844152,108.397282 14.1510913,108.397282 C13.4580306,108.397282 12.814713,108.514745 12.2211194,108.749676 C11.6275257,108.984607 11.1125508,109.315641 10.6761792,109.742788 C10.2398077,110.169936 9.89809538,110.687081 9.65103207,111.29424 C9.40396876,111.901399 9.28043896,112.574146 9.28043896,113.3125 Z M24.4532589,108.159301 C24.4532589,108.049463 24.4757188,107.945729 24.5206394,107.848095 C24.56556,107.750462 24.6281271,107.663508 24.7083424,107.587232 C24.7885578,107.510956 24.8816062,107.451461 24.9874905,107.408746 C25.0933748,107.366032 25.2040703,107.344675 25.3195804,107.344675 L33.4437515,107.344675 C33.6491028,107.344675 33.803114,107.40722 33.9057897,107.532313 C34.0084653,107.657406 34.0598024,107.796227 34.0598024,107.94878 C34.0598024,108.101332 34.0084653,108.240153 33.9057897,108.365246 C33.803114,108.490339 33.6491028,108.552885 33.4437515,108.552885 L25.8778765,108.552885 L25.8778765,113.239275 L33.0683455,113.239275 C33.2672796,113.239275 33.4164779,113.300295 33.515945,113.422337 C33.615412,113.544379 33.6651448,113.681675 33.6651448,113.834227 C33.6651448,113.974575 33.615412,114.104243 33.515945,114.223234 C33.4164779,114.342225 33.2672796,114.40172 33.0683455,114.40172 L25.8778765,114.40172 L25.8778765,118.667067 C25.8778765,118.905049 25.8040795,119.083533 25.6564833,119.202524 C25.508887,119.321515 25.3452501,119.38101 25.1655677,119.38101 C24.9858853,119.38101 24.8222484,119.324566 24.6746522,119.211677 C24.5270559,119.098788 24.4532589,118.926406 24.4532589,118.694527 L24.4532589,108.159301 Z M37.9126873,108.159301 C37.9126873,108.049463 37.9351472,107.945729 37.9800678,107.848095 C38.0249884,107.750462 38.0875555,107.663508 38.1677708,107.587232 C38.2479862,107.510956 38.3410346,107.451461 38.4469189,107.408746 C38.5528032,107.366032 38.6634987,107.344675 38.7790088,107.344675 L46.9031799,107.344675 C47.1085312,107.344675 47.2625424,107.40722 47.365218,107.532313 C47.4678937,107.657406 47.5192308,107.796227 47.5192308,107.94878 C47.5192308,108.101332 47.4678937,108.240153 47.365218,108.365246 C47.2625424,108.490339 47.1085312,108.552885 46.9031799,108.552885 L39.3373049,108.552885 L39.3373049,113.239275 L46.5277739,113.239275 C46.726708,113.239275 46.8759063,113.300295 46.9753733,113.422337 C47.0748404,113.544379 47.1245732,113.681675 47.1245732,113.834227 C47.1245732,113.974575 47.0748404,114.104243 46.9753733,114.223234 C46.8759063,114.342225 46.726708,114.40172 46.5277739,114.40172 L39.3373049,114.40172 L39.3373049,118.667067 C39.3373049,118.905049 39.2635079,119.083533 39.1159116,119.202524 C38.9683154,119.321515 38.8046785,119.38101 38.6249961,119.38101 C38.4453137,119.38101 38.2816768,119.324566 38.1340805,119.211677 C37.9864843,119.098788 37.9126873,118.926406 37.9126873,118.694527 L37.9126873,108.159301 Z" id="OFF" fill="#B30077"></path>
            </g>
        </g>
    </g>
</svg>