<?xml version="1.0" encoding="UTF-8" standalone="no"?>
<svg width="128px" height="86px" viewBox="0 0 128 86" version="1.1" xmlns="http://www.w3.org/2000/svg" xmlns:xlink="http://www.w3.org/1999/xlink">
    <!-- Generator: Sketch 43.1 (39012) - http://www.bohemiancoding.com/sketch -->
    <title>Tag 50% [white] horz</title>
    <desc>Created with Sketch.</desc>
    <defs></defs>
    <g id="Homepage" stroke="none" stroke-width="1" fill="none" fill-rule="evenodd">
        <g id="Tag-50%-[white]-horz" transform="translate(-1.000000, 0.000000)">
            <g id="Tag-[white]" fill-rule="nonzero">
                <g id="SRP">
                    <g id="Tag-[white]" transform="translate(64.988440, 43.408100) rotate(-270.000000) translate(-64.988440, -43.408100) translate(21.988440, -20.591900)">
                        <path d="M3.36505925,31.0116744 C3.36505925,29.2637073 4.51170957,26.9917766 5.91179975,25.9478927 L40.5641128,1.11170417 C41.9706387,0.0630218566 44.2724558,0.00552955434 45.7296883,0.99988869 L82.9203301,27.0597083 C84.3666728,28.0466366 85.539165,30.2598668 85.539165,32.0116744 L85.539165,122.368411 C85.539165,124.98136 83.3995812,127.099575 80.768628,127.099575 L8.1355962,127.099575 C5.50090139,127.099575 3.36505925,124.966654 3.36505925,122.368411 L3.36505925,31.0116744 Z" id="Rectangle-5" fill-opacity="0.100000001" fill="#000000"></path>
                        <path d="M-1.3933299e-14,33.01529 C-1.3933299e-14,31.3432403 1.12215689,29.1904677 2.4955206,28.2146732 L37.8851902,3.06980662 C39.2634283,2.09054869 41.5028678,2.09401208 42.8762314,3.06980662 L78.2659012,28.2146732 C79.6441392,29.193931 80.7614219,31.3386815 80.7614219,33.01529 L80.7614219,122.903522 C80.7614219,125.417011 78.7246689,127.454597 76.1879397,127.454597 L4.57348204,127.454597 C2.04761766,127.454597 8.69487697e-15,125.404024 8.69487697e-15,122.903522 L-1.3933299e-14,33.01529 Z" id="Rectangle-5" fill="#FFFFFF"></path>
                    </g>
                </g>
            </g>
            <path d="M67.7974314,41.3165928 C67.7974314,40.2852646 67.9777424,39.3346328 68.3383698,38.4646689 C68.6989971,37.594705 69.1984586,36.8440216 69.836769,36.2125962 C70.4750795,35.5811707 71.2287794,35.0883155 72.0978914,34.7340157 C72.9670034,34.3797159 73.9100299,34.2025686 74.9269991,34.2025686 C75.9439683,34.2025686 76.8869948,34.3797159 77.7561068,34.7340157 C78.6252188,35.0883155 79.3789187,35.5811707 80.0172292,36.2125962 C80.6555397,36.8440216 81.1568042,37.594705 81.5210379,38.4646689 C81.8852715,39.3346328 82.0673856,40.2852646 82.0673856,41.3165928 C82.0673856,42.347921 81.8852715,43.2985528 81.5210379,44.1685167 C81.1568042,45.0384806 80.6555397,45.789164 80.0172292,46.4205894 C79.3789187,47.0520148 78.6252188,47.5448701 77.7561068,47.8991699 C76.8869948,48.2534697 75.9439683,48.4306169 74.9269991,48.4306169 C73.9100299,48.4306169 72.9670034,48.2534697 72.0978914,47.8991699 C71.2287794,47.5448701 70.4750795,47.0520148 69.836769,46.4205894 C69.1984586,45.789164 68.6989971,45.0384806 68.3383698,44.1685167 C67.9777424,43.2985528 67.7974314,42.347921 67.7974314,41.3165928 Z M69.4527028,41.3165928 C69.4527028,42.1655092 69.5915423,42.9372398 69.8692253,43.6318077 C70.1469084,44.3263757 70.5309708,44.9192051 71.0214241,45.4103138 C71.5118773,45.9014224 72.0906756,46.2820259 72.7578362,46.5521357 C73.4249969,46.8222455 74.148044,46.9572983 74.9269991,46.9572983 C75.7059543,46.9572983 76.4290013,46.8222455 77.096162,46.5521357 C77.7633226,46.2820259 78.3421209,45.9014224 78.8325742,45.4103138 C79.3230274,44.9192051 79.7070898,44.3263757 79.9847729,43.6318077 C80.262456,42.9372398 80.4012954,42.1655092 80.4012954,41.3165928 C80.4012954,40.4676764 80.262456,39.6941918 79.9847729,38.996116 C79.7070898,38.2980401 79.3230274,37.7034567 78.8325742,37.2123481 C78.3421209,36.7212394 77.7633226,36.3406359 77.096162,36.0705261 C76.4290013,35.8004164 75.7059543,35.6653635 74.9269991,35.6653635 C74.148044,35.6653635 73.4249969,35.8004164 72.7578362,36.0705261 C72.0906756,36.3406359 71.5118773,36.7212394 71.0214241,37.2123481 C70.5309708,37.7034567 70.1469084,38.2980401 69.8692253,38.996116 C69.5915423,39.6941918 69.4527028,40.4676764 69.4527028,41.3165928 Z M86.5059652,35.3917472 C86.5059652,35.2654621 86.5312088,35.1461947 86.5816966,35.0339413 C86.6321844,34.9216879 86.7025057,34.8217137 86.7926626,34.7340157 C86.8828194,34.6463177 86.9873998,34.5779143 87.1064068,34.5288035 C87.2254139,34.4796926 87.3498284,34.4551375 87.4796543,34.4551375 L96.610694,34.4551375 C96.8414955,34.4551375 97.0145941,34.5270488 97.1299948,34.6708735 C97.2453956,34.8146981 97.3030951,34.9743061 97.3030951,35.149702 C97.3030951,35.325098 97.2453956,35.4847059 97.1299948,35.6285306 C97.0145941,35.7723552 96.8414955,35.8442665 96.610694,35.8442665 L88.1071428,35.8442665 L88.1071428,41.2324031 L96.1887621,41.2324031 C96.4123511,41.2324031 96.5800403,41.3025605 96.6918348,41.4428772 C96.8036292,41.583194 96.8595257,41.741048 96.8595257,41.9164439 C96.8595257,42.0778082 96.8036292,42.2268925 96.6918348,42.3637014 C96.5800403,42.5005102 96.4123511,42.5689136 96.1887621,42.5689136 L88.1071428,42.5689136 L88.1071428,47.4729598 C88.1071428,47.7465775 88.0241998,47.9517877 87.8583112,48.0885965 C87.6924226,48.2254054 87.5085054,48.2938088 87.306554,48.2938088 C87.1046027,48.2938088 86.9206855,48.2289133 86.7547969,48.0991203 C86.5889083,47.9693272 86.5059652,47.7711328 86.5059652,47.504531 L86.5059652,35.3917472 Z M101.633487,35.3917472 C101.633487,35.2654621 101.658731,35.1461947 101.709218,35.0339413 C101.759706,34.9216879 101.830028,34.8217137 101.920184,34.7340157 C102.010341,34.6463177 102.114922,34.5779143 102.233929,34.5288035 C102.352936,34.4796926 102.47735,34.4551375 102.607176,34.4551375 L111.738216,34.4551375 C111.969017,34.4551375 112.142116,34.5270488 112.257517,34.6708735 C112.372917,34.8146981 112.430617,34.9743061 112.430617,35.149702 C112.430617,35.325098 112.372917,35.4847059 112.257517,35.6285306 C112.142116,35.7723552 111.969017,35.8442665 111.738216,35.8442665 L103.234665,35.8442665 L103.234665,41.2324031 L111.316284,41.2324031 C111.539873,41.2324031 111.707562,41.3025605 111.819357,41.4428772 C111.931151,41.583194 111.987047,41.741048 111.987047,41.9164439 C111.987047,42.0778082 111.931151,42.2268925 111.819357,42.3637014 C111.707562,42.5005102 111.539873,42.5689136 111.316284,42.5689136 L103.234665,42.5689136 L103.234665,47.4729598 C103.234665,47.7465775 103.151722,47.9517877 102.985833,48.0885965 C102.819944,48.2254054 102.636027,48.2938088 102.434076,48.2938088 C102.232125,48.2938088 102.048207,48.2289133 101.882319,48.0991203 C101.71643,47.9693272 101.633487,47.7711328 101.633487,47.504531 L101.633487,35.3917472 Z" id="OFF" fill="#B30077" transform="translate(90.114024, 41.316593) rotate(-90.000000) translate(-90.114024, -41.316593) "></path>
            <g id="50%" transform="translate(12.000000, 18.000000)" fill="#B30077">
                <g transform="translate(0.000000, 21.938462)">
                    <path d="M32.6682308,8.70313624 C32.6682308,7.95748229 32.5698128,7.3196082 32.3729737,6.78949484 C32.1761346,6.25938148 31.9127216,5.82830675 31.5827267,5.49625773 C31.2527319,5.1642087 30.8764276,4.92245733 30.4538025,4.77099637 C30.0311775,4.61953541 29.5940856,4.54380607 29.1425136,4.54380607 C28.7140992,4.54380607 28.2943752,4.61953541 27.8833289,4.77099637 C27.4722827,4.92245733 27.1046623,5.1642087 26.7804568,5.49625773 C26.4562513,5.82830675 26.1957329,6.25938148 25.9988939,6.78949484 C25.8020548,7.3196082 25.7036368,7.95748229 25.7036368,8.70313624 L25.7036368,15.0295124 C25.7036368,15.7518647 25.8020548,16.3751754 25.9988939,16.8994633 C26.1957329,17.4237513 26.4562513,17.8577387 26.7804568,18.2014385 C27.1046623,18.5451384 27.4722827,18.8014531 27.8833289,18.9703903 C28.2943752,19.1393276 28.7140992,19.2237949 29.1425136,19.2237949 C29.5940856,19.2237949 30.0311775,19.1451529 30.4538025,18.9878665 C30.8764276,18.8305801 31.2527319,18.5859161 31.5827267,18.2538671 C31.9127216,17.921818 32.1761346,17.4907433 32.3729737,16.96063 C32.5698128,16.4305166 32.6682308,15.7868172 32.6682308,15.0295124 L32.6682308,8.70313624 Z M20.4758493,8.70313624 C20.4758493,7.29338423 20.724789,6.05550073 21.222676,4.98944859 C21.7205631,3.92339645 22.3776483,3.03794566 23.1939514,2.33306966 C24.0102545,1.62819365 24.9394367,1.09808824 25.9815258,0.742737531 C27.0236149,0.387386818 28.0888456,0.209714126 29.1772498,0.209714126 C30.2772327,0.209714126 31.354042,0.387386818 32.4077098,0.742737531 C33.4613777,1.09808824 34.3963492,1.62819365 35.2126523,2.33306966 C36.0289554,3.03794566 36.6860407,3.92339645 37.1839277,4.98944859 C37.6818147,6.05550073 37.9307545,7.29338423 37.9307545,8.70313624 L37.9307545,15.0295124 C37.9307545,16.4509152 37.6818147,17.6975367 37.1839277,18.7694143 C36.6860407,19.8412919 36.0289554,20.7354807 35.2126523,21.4520075 C34.3963492,22.1685344 33.4613777,22.7044651 32.4077098,23.0598158 C31.354042,23.4151665 30.2772327,23.5928392 29.1772498,23.5928392 C28.0888456,23.5928392 27.0236149,23.4151665 25.9815258,23.0598158 C24.9394367,22.7044651 24.0102545,22.1685344 23.1939514,21.4520075 C22.3776483,20.7354807 21.7205631,19.8412919 21.222676,18.7694143 C20.724789,17.6975367 20.4758493,16.4509152 20.4758493,15.0295124 L20.4758493,8.70313624 Z M45.7290156,22.684078 C45.5321765,22.9753491 45.3150779,23.1675851 45.0777132,23.2607918 C44.8403484,23.3539986 44.5943033,23.4006013 44.3395704,23.4006013 C44.1195738,23.4006013 43.9111591,23.3598239 43.7143201,23.278268 C43.517481,23.1967121 43.3438021,23.0831181 43.1932781,22.9374826 C43.0427541,22.791847 42.9240735,22.6199997 42.8372328,22.4219353 C42.750392,22.223871 42.7069723,22.014159 42.7069723,21.792793 C42.7069723,21.6296812 42.7330241,21.4607465 42.7851286,21.2859838 C42.837233,21.1112212 42.9269672,20.9364611 43.0543336,20.7616985 L57.3135149,0.891285037 C57.4987752,0.658268176 57.7014006,0.486420819 57.9213971,0.37573781 C58.1413937,0.265054801 58.3555977,0.209714126 58.5640155,0.209714126 C58.7724334,0.209714126 58.9779534,0.250491465 59.1805818,0.332047367 C59.3832103,0.413603268 59.5626785,0.527197284 59.7189919,0.672832822 C59.8753052,0.81846836 59.9997751,0.98740305 60.0924053,1.17964196 C60.1850354,1.37188087 60.2313498,1.5728549 60.2313498,1.78257007 C60.2313498,1.93403103 60.2110872,2.07966439 60.1705615,2.2194745 C60.1300359,2.35928462 60.0576696,2.49909264 59.9534607,2.63890276 L45.7290156,22.684078 Z M40.4317558,5.43509111 C40.4317558,4.59623041 40.562015,3.84184964 40.8225373,3.17192616 C41.0830595,2.50200269 41.4362067,1.93111994 41.8819892,1.4592608 C42.3277718,0.987401652 42.8517032,0.626230935 43.4537991,0.37573781 C44.055895,0.125244684 44.7042963,0 45.3990224,0 C46.0937484,0 46.7450443,0.125244684 47.3529297,0.37573781 C47.960815,0.626230935 48.4934303,0.987401652 48.9507916,1.4592608 C49.408153,1.93111994 49.7670894,2.50200269 50.0276117,3.17192616 C50.2881339,3.84184964 50.4183931,4.59623041 50.4183931,5.43509111 C50.4183931,6.27395181 50.2881339,7.03124524 50.0276117,7.70699414 C49.7670894,8.38274304 49.408153,8.95362578 48.9507916,9.41965951 C48.4934303,9.88569323 47.960815,10.2439513 47.3529297,10.4944444 C46.7450443,10.7449375 46.0937484,10.8701822 45.3990224,10.8701822 C44.7042963,10.8701822 44.055895,10.7449375 43.4537991,10.4944444 C42.8517032,10.2439513 42.3277718,9.88569323 41.8819892,9.41965951 C41.4362067,8.95362578 41.0830595,8.38274304 40.8225373,7.70699414 C40.562015,7.03124524 40.4317558,6.27395181 40.4317558,5.43509111 Z M43.4537991,5.43509111 C43.4537991,6.27395181 43.6390566,6.91473856 44.0095772,7.3574706 C44.3800977,7.80020263 44.8432415,8.02156533 45.3990224,8.02156533 C45.9548032,8.02156533 46.4266309,7.80020263 46.8145196,7.3574706 C47.2024084,6.91473856 47.3963498,6.27395181 47.3963498,5.43509111 C47.3963498,4.59623041 47.2024084,3.95835632 46.8145196,3.5214497 C46.4266309,3.08454309 45.9548032,2.86609306 45.3990224,2.86609306 C44.8432415,2.86609306 44.3800977,3.08454309 44.0095772,3.5214497 C43.6390566,3.95835632 43.4537991,4.59623041 43.4537991,5.43509111 Z M52.5894012,18.1752243 C52.5894012,17.3363636 52.7196604,16.5819828 52.9801827,15.9120593 C53.240705,15.2421359 53.5938521,14.6712531 54.0396346,14.199394 C54.4854172,13.7275348 55.0122432,13.3663641 55.6201285,13.115871 C56.2280139,12.8653779 56.8793098,12.7401332 57.5740358,12.7401332 C58.2687619,12.7401332 58.9200578,12.8653779 59.5279431,13.115871 C60.1358285,13.3663641 60.6684438,13.7275348 61.1258051,14.199394 C61.5831664,14.6712531 61.9421029,15.2421359 62.2026251,15.9120593 C62.4631474,16.5819828 62.5934066,17.3363636 62.5934066,18.1752243 C62.5934066,19.014085 62.4631474,19.7713784 62.2026251,20.4471273 C61.9421029,21.1228762 61.5831664,21.6966716 61.1258051,22.1685308 C60.6684438,22.6403899 60.1358285,23.0015606 59.5279431,23.2520538 C58.9200578,23.5025469 58.2687619,23.6277916 57.5740358,23.6277916 C56.8793098,23.6277916 56.2280139,23.5025469 55.6201285,23.2520538 C55.0122432,23.0015606 54.4854172,22.6403899 54.0396346,22.1685308 C53.5938521,21.6966716 53.240705,21.1228762 52.9801827,20.4471273 C52.7196604,19.7713784 52.5894012,19.014085 52.5894012,18.1752243 Z M55.6114445,18.1752243 C55.6114445,19.0257358 55.7995967,19.6694352 56.1759066,20.1063419 C56.5522166,20.5432485 57.018255,20.7616985 57.5740358,20.7616985 C57.8519263,20.7616985 58.10955,20.7063578 58.3469147,20.5956748 C58.5842795,20.4849918 58.7955888,20.3218825 58.9808491,20.1063419 C59.1661094,19.8908013 59.3108418,19.6199232 59.4150507,19.2936996 C59.5192596,18.967476 59.5713633,18.5946546 59.5713633,18.1752243 C59.5713633,17.7557939 59.5192596,17.3858852 59.4150507,17.065487 C59.3108418,16.7450888 59.1661094,16.4771235 58.9808491,16.2615829 C58.7955888,16.0460423 58.5842795,15.8829329 58.3469147,15.7722499 C58.10955,15.6615669 57.8519263,15.6062262 57.5740358,15.6062262 C57.018255,15.6062262 56.5522166,15.8246763 56.1759066,16.2615829 C55.7995967,16.6984895 55.6114445,17.3363636 55.6114445,18.1752243 Z" id="10%"></path>
                    <path d="M5.87463736,16.5684923 C5.6952967,15.1248 4.47578022,14.4751385 3.2203956,14.4751385 C1.89327473,14.4751385 0.566153846,15.3052615 0.566153846,16.8572308 C0.566153846,19.7446154 2.78997802,23.7869538 9.49731868,23.7869538 C15.1286154,23.7869538 18.3208791,19.6002462 18.3208791,15.5579077 C18.3208791,11.4072923 15.307956,7.54541538 9.31797802,7.54541538 L6.26918681,7.54541538 L6.26918681,4.87458462 L14.1243077,4.87458462 C15.9535824,4.87458462 16.8144176,3.75572308 16.8144176,2.63686154 C16.8144176,1.518 15.9535824,0.399138462 14.1243077,0.399138462 L3.97362637,0.399138462 C2.25195604,0.399138462 0.996571429,1.22926154 0.996571429,2.85341538 L0.996571429,9.74704615 C0.996571429,11.0463692 2.21608791,11.9125846 3.68668132,11.9125846 L9.31797802,11.9125846 C11.7211429,11.9125846 12.9406593,13.7172 12.9406593,15.5218154 C12.9406593,17.3625231 11.757011,19.4919692 9.46145055,19.4919692 C7.66804396,19.4919692 6.23331868,18.9866769 5.87463736,16.5684923 Z" id="5"></path>
                </g>
                <path d="M35.9947253,0.458584615 L47.2249671,0.458584615 C47.9901539,0.458584615 48.6203077,1.09267692 48.6203077,1.84 C48.6203077,2.63261538 47.9901539,3.26670769 47.2249671,3.26670769 L43.3765275,3.26670769 L43.3765275,13.2083692 C43.3765275,14.2274462 42.6338462,14.9974154 41.5985934,14.9974154 C40.6083517,14.9974154 39.8431649,14.2274462 39.8431649,13.2083692 L39.8431649,3.26670769 L35.9947253,3.26670769 C35.2295385,3.26670769 34.5993846,2.63261538 34.5993846,1.84 C34.5993846,1.09267692 35.2295385,0.458584615 35.9947253,0.458584615 Z M48.4515165,7.61476923 C48.4515165,3.22141538 51.7148132,0.186830769 55.9908571,0.186830769 C60.2669011,0.186830769 63.5527033,3.22141538 63.5527033,7.61476923 C63.5527033,12.0081231 60.2669011,15.1332923 55.9908571,15.1332923 C51.7148132,15.1332923 48.4515165,12.0081231 48.4515165,7.61476923 Z M51.9848791,7.61476923 C51.9848791,10.4228923 53.7178022,12.2798769 55.9908571,12.2798769 C58.2864176,12.2798769 60.0193407,10.4228923 60.0193407,7.61476923 C60.0193407,4.784 58.2864176,3.06289231 55.9908571,3.06289231 C53.7178022,3.06289231 51.9848791,4.784 51.9848791,7.61476923 Z" id="TO"></path>
                <path d="M11.8041319,8.38473846 C11.8041319,10.8531692 10.2962637,12.2119385 8.3382857,12.2119385 C6.38030768,12.2119385 4.87243954,10.8531692 4.87243954,8.38473846 L4.87243954,2.11175385 C4.87243954,1.11532308 4.08474724,0.322707692 3.09450548,0.322707692 C2.10426372,0.322707692 1.33907691,1.11532308 1.33907691,2.08910769 L1.33907691,8.45267692 C1.33907691,12.8913231 4.6473846,15.1332923 8.3382857,15.1332923 C12.0291868,15.1332923 15.3374945,12.8913231 15.3374945,8.45267692 L15.3374945,2.11175385 C15.3374945,1.11532308 14.5498022,0.322707692 13.6045714,0.322707692 C12.5918242,0.322707692 11.8041319,1.11532308 11.8041319,2.1344 L11.8041319,8.38473846 Z M21.6137143,3.26670769 L21.6137143,8.15827692 L24.1793407,8.15827692 C26.1823297,8.15827692 26.970022,6.98067692 26.9475165,5.78043077 C26.9475165,4.4896 26.0022857,3.26670769 24.2693626,3.26670769 L21.6137143,3.26670769 Z M24.1793407,11.0116923 L21.6137143,11.0116923 L21.6137143,13.2083692 C21.6137143,14.2274462 20.871033,14.9974154 19.8357802,14.9974154 C18.8455385,14.9974154 18.0803516,14.2274462 18.0803516,13.2310154 L18.0803516,2.24763077 C18.0803516,1.2512 18.8455385,0.458584615 19.8357802,0.458584615 L24.2468571,0.458584615 C28.4778901,0.458584615 30.4358681,3.04024615 30.4358681,5.75778462 C30.4358681,8.65649231 28.4553846,11.0116923 24.1793407,11.0116923 Z" id="UP"></path>
            </g>
        </g>
    </g>
</svg>