<?xml version="1.0" encoding="UTF-8" standalone="no"?>
<svg width="59px" height="144px" viewBox="0 0 59 144" version="1.1" xmlns="http://www.w3.org/2000/svg" xmlns:xlink="http://www.w3.org/1999/xlink">
    <!-- Generator: Sketch 43.1 (39012) - http://www.bohemiancoding.com/sketch -->
    <title>Tag 50% [white] SQM</title>
    <desc>Created with Sketch.</desc>
    <defs>
        <ellipse id="path-1" cx="27.1408658" cy="63.5859399" rx="8.31107851" ry="8.17332927"></ellipse>
        <filter x="-9.0%" y="-9.2%" width="118.0%" height="118.4%" filterUnits="objectBoundingBox" id="filter-2">
            <feOffset dx="2" dy="3" in="SourceAlpha" result="shadowOffsetInner1"></feOffset>
            <feComposite in="shadowOffsetInner1" in2="SourceAlpha" operator="arithmetic" k2="-1" k3="1" result="shadowInnerInner1"></feComposite>
            <feColorMatrix values="0 0 0 0 0   0 0 0 0 0   0 0 0 0 0  0 0 0 0.2 0" type="matrix" in="shadowInnerInner1"></feColorMatrix>
        </filter>
        <ellipse id="path-3" cx="26.9537644" cy="7.37569376" rx="7.5" ry="7.37569372"></ellipse>
        <filter x="-10.0%" y="-10.2%" width="120.0%" height="120.3%" filterUnits="objectBoundingBox" id="filter-4">
            <feOffset dx="2" dy="3" in="SourceAlpha" result="shadowOffsetInner1"></feOffset>
            <feComposite in="shadowOffsetInner1" in2="SourceAlpha" operator="arithmetic" k2="-1" k3="1" result="shadowInnerInner1"></feComposite>
            <feColorMatrix values="0 0 0 0 0   0 0 0 0 0   0 0 0 0 0  0 0 0 0.3 0" type="matrix" in="shadowInnerInner1"></feColorMatrix>
        </filter>
    </defs>
    <g id="Homepage" stroke="none" stroke-width="1" fill="none" fill-rule="evenodd">
        <g id="Tag-50%-[white]-SQM">
            <path d="M2.29420397,70.6216228 C2.29420397,69.4409946 3.07595832,67.906466 4.03050093,67.2013962 L27.6554859,49.7508776 C28.6144162,49.0425668 30.1837312,49.0037348 31.1772318,49.6753541 L57.214551,67.2769198 C58.2006273,67.9435201 59,69.4384006 59,70.6216228 L59,140.780059 C59,142.544922 57.5412912,143.975626 55.7475803,143.975626 L5.5466236,143.975626 C3.75036184,143.975626 2.29420397,142.534989 2.29420397,140.780059 L2.29420397,70.6216228 Z" id="Rectangle-5" fill-opacity="0.100000001" fill="#000000" fill-rule="nonzero"></path>
            <path d="M0,65.9749235 C0,64.8455721 0.765055413,63.3915264 1.70137666,62.7324462 L25.8290708,45.7488666 C26.7687153,45.0874471 28.2955029,45.0897864 29.2318242,45.7488666 L53.3595184,62.7324462 C54.2991628,63.3938656 55.0608951,64.842493 55.0608951,65.9749235 L55.0608951,135.141488 C55.0608951,136.839173 53.6722935,138.215418 51.942822,138.215418 L3.11807307,138.215418 C1.39600887,138.215418 0,136.830401 0,135.141488 L0,65.9749235 Z" id="Rectangle-5" fill="#FFFFFF" fill-rule="nonzero"></path>
            <g id="Oval-2" fill-rule="nonzero">
                <use fill="#8D005E" fill-rule="evenodd" xlink:href="#path-1"></use>
                <use fill="black" fill-opacity="1" filter="url(#filter-2)" xlink:href="#path-1"></use>
            </g>
            <g id="Oval-2" fill-rule="nonzero">
                <use fill="#848484" fill-rule="evenodd" xlink:href="#path-3"></use>
                <use fill="black" fill-opacity="1" filter="url(#filter-4)" xlink:href="#path-3"></use>
            </g>
            <path d="M23.8510638,11.6666782 C23.8510638,9.91838108 25.2440439,8.50110619 26.9893617,8.50110619 C28.7225958,8.50110619 30.1276596,9.90877427 30.1276596,11.6666782 L30.1276596,60.3355342 C30.1276596,62.0838313 28.7346795,63.5011062 26.9893617,63.5011062 C25.2561276,63.5011062 23.8510638,62.0934382 23.8510638,60.3355342 L23.8510638,11.6666782 Z" id="Rectangle-6" fill="#B30077" fill-rule="nonzero"></path>
            <g id="50%" transform="translate(5.000000, 80.000000)" fill="#B30077">
                <g transform="translate(0.000000, 16.215385)">
                    <path d="M23.4802909,6.43275287 C23.4802909,5.88161734 23.4095529,5.41014519 23.2680748,5.01832227 C23.1265968,4.62649936 22.9372687,4.3078789 22.7000848,4.06245136 C22.462901,3.81702382 22.1924323,3.63833803 21.8886706,3.52638862 C21.5849088,3.41443922 21.270749,3.35846536 20.9461817,3.35846536 C20.6382588,3.35846536 20.3365822,3.41443922 20.0411427,3.52638862 C19.7457032,3.63833803 19.481476,3.81702382 19.2484533,4.06245136 C19.0154306,4.3078789 18.828183,4.62649936 18.686705,5.01832227 C18.5452269,5.41014519 18.4744889,5.88161734 18.4744889,6.43275287 L18.4744889,11.10877 C18.4744889,11.6426826 18.5452269,12.1033905 18.686705,12.4909077 C18.828183,12.8784249 19.0154306,13.1991982 19.2484533,13.4532372 C19.481476,13.7072762 19.7457032,13.8967262 20.0411427,14.0215929 C20.3365822,14.1464595 20.6382588,14.2088919 20.9461817,14.2088919 C21.270749,14.2088919 21.5849088,14.1507652 21.8886706,14.03451 C22.1924323,13.9182549 22.462901,13.7374163 22.7000848,13.4919887 C22.9372687,13.2465612 23.1265968,12.9279407 23.2680748,12.5361178 C23.4095529,12.1442949 23.4802909,11.668517 23.4802909,11.10877 L23.4802909,6.43275287 Z M14.7170167,6.43275287 C14.7170167,5.39076226 14.8959421,4.47580489 15.2537984,3.6878533 C15.6116547,2.89990172 16.0839347,2.2454381 16.6706526,1.72444279 C17.2573704,1.20344748 17.9252201,0.811630441 18.6742217,0.548979914 C19.4232232,0.286329387 20.1888578,0.155006093 20.9711483,0.155006093 C21.761761,0.155006093 22.5357177,0.286329387 23.2930414,0.548979914 C24.0503652,0.811630441 24.722376,1.20344748 25.3090938,1.72444279 C25.8958117,2.2454381 26.3680917,2.89990172 26.725948,3.6878533 C27.0838043,4.47580489 27.2627298,5.39076226 27.2627298,6.43275287 L27.2627298,11.10877 C27.2627298,12.1593721 27.0838043,13.080788 26.725948,13.8730454 C26.3680917,14.6653027 25.8958117,15.3262248 25.3090938,15.8558316 C24.722376,16.3854384 24.0503652,16.7815612 23.2930414,17.0442117 C22.5357177,17.3068622 21.761761,17.4381855 20.9711483,17.4381855 C20.1888578,17.4381855 19.4232232,17.3068622 18.6742217,17.0442117 C17.9252201,16.7815612 17.2573704,16.3854384 16.6706526,15.8558316 C16.0839347,15.3262248 15.6116547,14.6653027 15.2537984,13.8730454 C14.8959421,13.080788 14.7170167,12.1593721 14.7170167,11.10877 L14.7170167,6.43275287 Z M32.86773,16.7664924 C32.7262519,16.9817797 32.5702122,17.1238672 32.3996063,17.1927592 C32.2290004,17.2616511 32.0521555,17.2960966 31.8690662,17.2960966 C31.7109437,17.2960966 31.5611456,17.2659568 31.4196675,17.2056764 C31.2781895,17.1453959 31.1533578,17.0614351 31.0451686,16.9537915 C30.9369795,16.8461478 30.8516779,16.7191302 30.7892611,16.5727348 C30.7268443,16.4263394 30.6956363,16.2713349 30.6956363,16.1077165 C30.6956363,15.9871556 30.7143611,15.8622909 30.7518112,15.7331185 C30.7892613,15.6039461 30.8537576,15.4747756 30.9453023,15.3456032 L41.1940888,0.658775897 C41.3272446,0.486546043 41.4728816,0.359528431 41.6310042,0.277719251 C41.7891267,0.19591007 41.9430859,0.155006093 42.0928862,0.155006093 C42.2426865,0.155006093 42.390404,0.185145866 42.5360432,0.245426314 C42.6816824,0.305706763 42.8106752,0.389667558 42.9230254,0.497311216 C43.0353756,0.604954875 43.1248384,0.729819646 43.1914163,0.871909275 C43.2579942,1.0139989 43.2912826,1.16254493 43.2912826,1.31755179 C43.2912826,1.4295012 43.2767189,1.53714324 43.2475911,1.64048115 C43.2184633,1.74381907 43.1664501,1.84715543 43.0915499,1.95049334 L32.86773,16.7664924 Z M29.0603245,4.01724125 C29.0603245,3.39721378 29.1539483,2.83962799 29.3411987,2.34446716 C29.528449,1.84930633 29.7822735,1.42734952 30.1026798,1.07858407 C30.423086,0.729818612 30.7996617,0.462866343 31.2324181,0.277719251 C31.6651745,0.0925721578 32.131213,0 32.6305473,0 C33.1298817,0 33.5980006,0.0925721578 34.0349182,0.277719251 C34.4718358,0.462866343 34.854653,0.729818612 35.1833815,1.07858407 C35.5121099,1.42734952 35.7700955,1.84930633 35.9573459,2.34446716 C36.1445963,2.83962799 36.23822,3.39721378 36.23822,4.01724125 C36.23822,4.63726873 36.1445963,5.19700735 35.9573459,5.69647393 C35.7700955,6.19594051 35.5121099,6.61789732 35.1833815,6.96235703 C34.854653,7.30681673 34.4718358,7.57161616 34.0349182,7.75676325 C33.5980006,7.94191035 33.1298817,8.03448251 32.6305473,8.03448251 C32.131213,8.03448251 31.6651745,7.94191035 31.2324181,7.75676325 C30.7996617,7.57161616 30.423086,7.30681673 30.1026798,6.96235703 C29.7822735,6.61789732 29.528449,6.19594051 29.3411987,5.69647393 C29.1539483,5.19700735 29.0603245,4.63726873 29.0603245,4.01724125 Z M31.2324181,4.01724125 C31.2324181,4.63726873 31.3655719,5.11089372 31.6318836,5.43813044 C31.8981952,5.76536716 32.2310798,5.92898307 32.6305473,5.92898307 C33.0300148,5.92898307 33.369141,5.76536716 33.647936,5.43813044 C33.926731,5.11089372 34.0661264,4.63726873 34.0661264,4.01724125 C34.0661264,3.39721378 33.926731,2.92574163 33.647936,2.60281065 C33.369141,2.27987968 33.0300148,2.11841661 32.6305473,2.11841661 C32.2310798,2.11841661 31.8981952,2.27987968 31.6318836,2.60281065 C31.3655719,2.92574163 31.2324181,3.39721378 31.2324181,4.01724125 Z M37.7986321,13.4338614 C37.7986321,12.813834 37.8922559,12.2562482 38.0795063,11.7610873 C38.2667567,11.2659265 38.5205812,10.8439697 38.8409874,10.4952042 C39.1613936,10.1464388 39.5400498,9.87948651 39.9769674,9.69433942 C40.413885,9.50919233 40.8820039,9.41662017 41.3813383,9.41662017 C41.8806726,9.41662017 42.3487916,9.50919233 42.7857091,9.69433942 C43.2226267,9.87948651 43.605444,10.1464388 43.9341724,10.4952042 C44.2629009,10.8439697 44.5208864,11.2659265 44.7081368,11.7610873 C44.8953872,12.2562482 44.989011,12.813834 44.989011,13.4338614 C44.989011,14.0538889 44.8953872,14.6136275 44.7081368,15.1130941 C44.5208864,15.6125607 44.2629009,16.0366703 43.9341724,16.3854358 C43.605444,16.7342012 43.2226267,17.0011535 42.7857091,17.1863006 C42.3487916,17.3714477 41.8806726,17.4640199 41.3813383,17.4640199 C40.8820039,17.4640199 40.413885,17.3714477 39.9769674,17.1863006 C39.5400498,17.0011535 39.1613936,16.7342012 38.8409874,16.3854358 C38.5205812,16.0366703 38.2667567,15.6125607 38.0795063,15.1130941 C37.8922559,14.6136275 37.7986321,14.0538889 37.7986321,13.4338614 Z M39.9707257,13.4338614 C39.9707257,14.0625004 40.1059601,14.5382782 40.3764329,14.8612092 C40.6469057,15.1841402 40.9818708,15.3456032 41.3813383,15.3456032 C41.581072,15.3456032 41.7662391,15.3046993 41.936845,15.2228901 C42.1074509,15.1410809 42.2593295,15.0205218 42.3924853,14.8612092 C42.5256411,14.7018966 42.6296676,14.5016824 42.7045677,14.2605606 C42.7794679,14.0194388 42.8169174,13.7438752 42.8169174,13.4338614 C42.8169174,13.1238477 42.7794679,12.8504369 42.7045677,12.6136208 C42.6296676,12.3768048 42.5256411,12.1787434 42.3924853,12.0194308 C42.2593295,11.8601182 42.1074509,11.7395591 41.936845,11.6577499 C41.7662391,11.5759408 41.581072,11.5350368 41.3813383,11.5350368 C40.9818708,11.5350368 40.6469057,11.6964998 40.3764329,12.0194308 C40.1059601,12.3423618 39.9707257,12.813834 39.9707257,13.4338614 Z" id="10%"></path>
                    <path d="M4.2223956,12.2462769 C4.09349451,11.1792 3.21696703,10.6990154 2.31465934,10.6990154 C1.36079121,10.6990154 0.406923077,11.3125846 0.406923077,12.4596923 C0.406923077,14.5938462 2.0052967,17.5816615 6.8261978,17.5816615 C10.8736923,17.5816615 13.1681319,14.4871385 13.1681319,11.4993231 C13.1681319,8.43147692 11.0025934,5.57704615 6.6972967,5.57704615 L4.50597802,5.57704615 L4.50597802,3.60295385 L10.1518462,3.60295385 C11.4666374,3.60295385 12.0853626,2.77596923 12.0853626,1.94898462 C12.0853626,1.122 11.4666374,0.295015385 10.1518462,0.295015385 L2.85604396,0.295015385 C1.61859341,0.295015385 0.716285714,0.908584615 0.716285714,2.10904615 L0.716285714,7.20433846 C0.716285714,8.16470769 1.59281319,8.80495385 2.6498022,8.80495385 L6.6972967,8.80495385 C8.42457143,8.80495385 9.3010989,10.1388 9.3010989,11.4726462 C9.3010989,12.8331692 8.45035165,14.4071077 6.80041758,14.4071077 C5.51140659,14.4071077 4.4801978,14.0336308 4.2223956,12.2462769 Z" id="5"></path>
                </g>
                <path d="M25.8712088,0.338953846 L33.9429451,0.338953846 C34.4929231,0.338953846 34.9458462,0.807630769 34.9458462,1.36 C34.9458462,1.94584615 34.4929231,2.41452308 33.9429451,2.41452308 L31.1768791,2.41452308 L31.1768791,9.76270769 C31.1768791,10.5159385 30.6430769,11.0850462 29.898989,11.0850462 C29.1872528,11.0850462 28.6372747,10.5159385 28.6372747,9.76270769 L28.6372747,2.41452308 L25.8712088,2.41452308 C25.3212308,2.41452308 24.8683077,1.94584615 24.8683077,1.36 C24.8683077,0.807630769 25.3212308,0.338953846 25.8712088,0.338953846 Z M34.8245275,5.62830769 C34.8245275,2.38104615 37.170022,0.138092308 40.2434286,0.138092308 C43.3168352,0.138092308 45.6785055,2.38104615 45.6785055,5.62830769 C45.6785055,8.87556923 43.3168352,11.1854769 40.2434286,11.1854769 C37.170022,11.1854769 34.8245275,8.87556923 34.8245275,5.62830769 Z M37.3641319,5.62830769 C37.3641319,7.70387692 38.6096703,9.07643077 40.2434286,9.07643077 C41.8933626,9.07643077 43.1389011,7.70387692 43.1389011,5.62830769 C43.1389011,3.536 41.8933626,2.26387692 40.2434286,2.26387692 C38.6096703,2.26387692 37.3641319,3.536 37.3641319,5.62830769 Z" id="TO"></path>
                <path d="M8.48421977,6.19741538 C8.48421977,8.02190769 7.40043955,9.02621538 5.99314285,9.02621538 C4.58584614,9.02621538 3.50206592,8.02190769 3.50206592,6.19741538 L3.50206592,1.56086154 C3.50206592,0.824369231 2.93591208,0.238523077 2.22417581,0.238523077 C1.51243955,0.238523077 0.962461526,0.824369231 0.962461526,1.54412308 L0.962461526,6.24763077 C0.962461526,9.52836923 3.34030768,11.1854769 5.99314285,11.1854769 C8.64597801,11.1854769 11.0238242,9.52836923 11.0238242,6.24763077 L11.0238242,1.56086154 C11.0238242,0.824369231 10.4576703,0.238523077 9.7782857,0.238523077 C9.05037361,0.238523077 8.48421977,0.824369231 8.48421977,1.5776 L8.48421977,6.19741538 Z M15.5348571,2.41452308 L15.5348571,6.03003077 L17.3789011,6.03003077 C18.8185495,6.03003077 19.3847033,5.15963077 19.3685275,4.27249231 C19.3685275,3.3184 18.6891429,2.41452308 17.4436044,2.41452308 L15.5348571,2.41452308 Z M17.3789011,8.13907692 L15.5348571,8.13907692 L15.5348571,9.76270769 C15.5348571,10.5159385 15.0010549,11.0850462 14.256967,11.0850462 C13.5452308,11.0850462 12.9952527,10.5159385 12.9952527,9.77944615 L12.9952527,1.66129231 C12.9952527,0.9248 13.5452308,0.338953846 14.256967,0.338953846 L17.4274286,0.338953846 C20.4684835,0.338953846 21.8757802,2.24713846 21.8757802,4.25575385 C21.8757802,6.39827692 20.4523077,8.13907692 17.3789011,8.13907692 Z" id="UP"></path>
            </g>
            <path d="M6,125 C6,123.985202 6.18179286,123.049807 6.54538403,122.193787 C6.9089752,121.337767 7.41254143,120.599116 8.0560978,119.977811 C8.69965418,119.356506 9.45954833,118.87155 10.3358031,118.522929 C11.2120578,118.174308 12.1628344,118 13.1881615,118 C14.2134887,118 15.1642653,118.174308 16.04052,118.522929 C16.9167748,118.87155 17.6766689,119.356506 18.3202253,119.977811 C18.9637817,120.599116 19.4691658,121.337767 19.8363929,122.193787 C20.20362,123.049807 20.3872308,123.985202 20.3872308,125 C20.3872308,126.014798 20.20362,126.950193 19.8363929,127.806213 C19.4691658,128.662233 18.9637817,129.400884 18.3202253,130.022189 C17.6766689,130.643494 16.9167748,131.12845 16.04052,131.477071 C15.1642653,131.825692 14.2134887,132 13.1881615,132 C12.1628344,132 11.2120578,131.825692 10.3358031,131.477071 C9.45954833,131.12845 8.69965418,130.643494 8.0560978,130.022189 C7.41254143,129.400884 6.9089752,128.662233 6.54538403,127.806213 C6.18179286,126.950193 6,126.014798 6,125 Z M7.66887514,125 C7.66887514,125.83531 7.80885564,126.594671 8.08882084,127.278107 C8.36878605,127.961542 8.75600484,128.544869 9.25048883,129.028107 C9.74497283,129.511344 10.3285279,129.885847 11.0011716,130.151627 C11.6738152,130.417408 12.4028046,130.550296 13.1881615,130.550296 C13.9735185,130.550296 14.7025078,130.417408 15.3751515,130.151627 C16.0477952,129.885847 16.6313503,129.511344 17.1258343,129.028107 C17.6203183,128.544869 18.007537,127.961542 18.2875022,127.278107 C18.5674674,126.594671 18.707448,125.83531 18.707448,125 C18.707448,124.16469 18.5674674,123.403603 18.2875022,122.716716 C18.007537,122.029829 17.6203183,121.444776 17.1258343,120.961538 C16.6313503,120.478301 16.0477952,120.103798 15.3751515,119.838018 C14.7025078,119.572237 13.9735185,119.439349 13.1881615,119.439349 C12.4028046,119.439349 11.6738152,119.572237 11.0011716,119.838018 C10.3285279,120.103798 9.74497283,120.478301 9.25048883,120.961538 C8.75600484,121.444776 8.36878605,122.029829 8.08882084,122.716716 C7.80885564,123.403603 7.66887514,124.16469 7.66887514,125 Z M24.8622885,119.170118 C24.8622885,119.045857 24.8877395,118.928502 24.9386423,118.818047 C24.989545,118.707593 25.0604442,118.609221 25.151342,118.522929 C25.2422398,118.436637 25.3476797,118.36933 25.4676648,118.321006 C25.5876499,118.272682 25.7130869,118.248521 25.8439798,118.248521 L35.0500622,118.248521 C35.2827606,118.248521 35.4572817,118.319279 35.5736309,118.460799 C35.6899801,118.602318 35.7481538,118.759368 35.7481538,118.931953 C35.7481538,119.104537 35.6899801,119.261587 35.5736309,119.403107 C35.4572817,119.544626 35.2827606,119.615385 35.0500622,119.615385 L26.4766252,119.615385 L26.4766252,124.91716 L34.6246627,124.91716 C34.8500892,124.91716 35.0191566,124.986193 35.1318698,125.12426 C35.2445831,125.262328 35.3009389,125.417652 35.3009389,125.590237 C35.3009389,125.749015 35.2445831,125.895709 35.1318698,126.030325 C35.0191566,126.164942 34.8500892,126.232249 34.6246627,126.232249 L26.4766252,126.232249 L26.4766252,131.057692 C26.4766252,131.326924 26.3930005,131.528845 26.2257486,131.663462 C26.0584966,131.798078 25.8730679,131.865385 25.6694569,131.865385 C25.4658458,131.865385 25.2804171,131.801529 25.1131652,131.673817 C24.9459132,131.546104 24.8622885,131.351086 24.8622885,131.088757 L24.8622885,119.170118 Z M40.1141347,119.170118 C40.1141347,119.045857 40.1395857,118.928502 40.1904885,118.818047 C40.2413912,118.707593 40.3122905,118.609221 40.4031883,118.522929 C40.494086,118.436637 40.5995259,118.36933 40.719511,118.321006 C40.8394961,118.272682 40.9649332,118.248521 41.095826,118.248521 L50.3019084,118.248521 C50.5346068,118.248521 50.7091279,118.319279 50.8254771,118.460799 C50.9418263,118.602318 51,118.759368 51,118.931953 C51,119.104537 50.9418263,119.261587 50.8254771,119.403107 C50.7091279,119.544626 50.5346068,119.615385 50.3019084,119.615385 L41.7284715,119.615385 L41.7284715,124.91716 L49.8765089,124.91716 C50.1019354,124.91716 50.2710028,124.986193 50.383716,125.12426 C50.4964293,125.262328 50.5527851,125.417652 50.5527851,125.590237 C50.5527851,125.749015 50.4964293,125.895709 50.383716,126.030325 C50.2710028,126.164942 50.1019354,126.232249 49.8765089,126.232249 L41.7284715,126.232249 L41.7284715,131.057692 C41.7284715,131.326924 41.6448467,131.528845 41.4775948,131.663462 C41.3103429,131.798078 41.1249141,131.865385 40.9213031,131.865385 C40.717692,131.865385 40.5322633,131.801529 40.3650114,131.673817 C40.1977594,131.546104 40.1141347,131.351086 40.1141347,131.088757 L40.1141347,119.170118 Z" id="OFF" fill="#B30077"></path>
        </g>
    </g>
</svg>