<?xml version="1.0" encoding="UTF-8" standalone="no"?>
<svg width="47px" height="105px" viewBox="0 0 47 105" version="1.1" xmlns="http://www.w3.org/2000/svg" xmlns:xlink="http://www.w3.org/1999/xlink">
    <!-- Generator: Sketch 42 (36781) - http://www.bohemiancoding.com/sketch -->
    <title>Tag [plum]</title>
    <desc>Created with Sketch.</desc>
    <defs></defs>
    <g id="SRP" stroke="none" stroke-width="1" fill="none" fill-rule="evenodd">
        <g id="Tag-[plum]">
            <path d="M1.82758621,44.6495941 C1.82758621,43.6932429 2.45033968,42.4502198 3.21073803,41.879088 L22.0306413,27.7435424 C22.7945349,27.1697853 24.0446672,27.13833 24.8360999,27.6823657 L45.5776932,41.9402648 C46.3632116,42.4802349 47,43.6911417 47,44.6495941 L47,101.480442 C47,102.910044 45.8379777,104.068966 44.4090894,104.068966 L4.41849677,104.068966 C2.98757638,104.068966 1.82758621,102.901998 1.82758621,101.480442 L1.82758621,44.6495941 Z" id="Rectangle-5" fill-opacity="0.100000001" fill="#000000"></path>
            <path d="M0,40.8856011 C0,39.970786 0.609450922,38.7929569 1.35533395,38.2590783 L20.5757005,24.5017701 C21.3242308,23.9659966 22.5404854,23.9678915 23.2863684,24.5017701 L42.506735,38.2590783 C43.2552653,38.7948517 43.862069,39.9682918 43.862069,40.8856011 L43.862069,96.9129978 C43.862069,98.2881831 42.7558948,99.402991 41.3781802,99.402991 L2.48388872,99.402991 C1.11207486,99.402991 0,98.2810774 0,96.9129978 L0,40.8856011 Z" id="Rectangle-5" fill="#B30077"></path>
            <path d="M32.058,64.108 L15.258,87.628 C14.796,88.3 14.208,88.468 13.62,88.468 C12.57,88.468 11.688,87.628 11.688,86.578 C11.688,86.2 11.814,85.78 12.108,85.36 L28.95,62.05 C29.37,61.504 29.916,61.252 30.42,61.252 C31.428,61.252 32.394,62.092 32.394,63.1 C32.394,63.436 32.31,63.772 32.058,64.108 Z M9,67.384 C9,63.436 11.604,61 14.88,61 C18.156,61 20.802,63.436 20.802,67.384 C20.802,71.332 18.156,73.768 14.88,73.768 C11.604,73.768 9,71.332 9,67.384 Z M12.57,67.384 C12.57,69.358 13.578,70.408 14.88,70.408 C16.182,70.408 17.232,69.358 17.232,67.384 C17.232,65.41 16.182,64.36 14.88,64.36 C13.578,64.36 12.57,65.41 12.57,67.384 Z M23.364,82.336 C23.364,78.388 25.968,75.952 29.244,75.952 C32.52,75.952 35.166,78.388 35.166,82.336 C35.166,86.284 32.52,88.72 29.244,88.72 C25.968,88.72 23.364,86.284 23.364,82.336 Z M26.934,82.336 C26.934,84.31 27.942,85.36 29.244,85.36 C30.546,85.36 31.596,84.31 31.596,82.336 C31.596,80.362 30.546,79.312 29.244,79.312 C27.942,79.312 26.934,80.362 26.934,82.336 Z" id="%" fill="#FFFFFF"></path>
            <ellipse id="Oval-2" fill="#FFFFFF" cx="21.6206897" cy="44.6206897" rx="6.62068966" ry="6.62068966"></ellipse>
            <path d="M19,2.50582704 C19,1.12189698 20.1096621,0 21.5,0 L21.5,0 C22.8807119,0 24,1.11429235 24,2.50582704 L24,43.494173 C24,44.878103 22.8903379,46 21.5,46 L21.5,46 C20.1192881,46 19,44.8857077 19,43.494173 L19,2.50582704 Z" id="Rectangle-6" fill="#800055"></path>
            <rect id="Rectangle-4" fill="#800055" x="19" y="0" width="5" height="5"></rect>
        </g>
    </g>
</svg>