<?xml version="1.0" encoding="UTF-8" standalone="no"?>
<svg width="121px" height="130px" viewBox="0 0 121 130" version="1.1" xmlns="http://www.w3.org/2000/svg" xmlns:xlink="http://www.w3.org/1999/xlink">
    <!-- Generator: Sketch 43.1 (39012) - http://www.bohemiancoding.com/sketch -->
    <title>UPTO 50% </title>
    <desc>Created with Sketch.</desc>
    <defs></defs>
    <g id="Homepage" stroke="none" stroke-width="1" fill="none" fill-rule="evenodd">
        <g id="UPTO-50%-" fill="#B30077">
            <g id="50%" transform="translate(15.000000, 16.000000)">
                <g transform="translate(0.000000, 31.000000)">
                    <path d="M46.4501407,12.2979099 C46.4501407,11.2442684 46.3102025,10.3429246 46.030322,9.5938514 C45.7504414,8.84477818 45.3759011,8.23565085 44.9066896,7.76645114 C44.4374781,7.29725142 43.9024204,6.95564623 43.3015005,6.74162531 C42.7005805,6.52760439 42.0790904,6.42059553 41.4370116,6.42059553 C40.8278598,6.42059553 40.2310647,6.52760439 39.6466083,6.74162531 C39.0621519,6.95564623 38.5394417,7.29725142 38.078462,7.76645114 C37.6174823,8.23565085 37.2470578,8.84477818 36.9671772,9.5938514 C36.6872967,10.3429246 36.5473585,11.2442684 36.5473585,12.2979099 L36.5473585,21.2373545 C36.5473585,22.2580696 36.6872967,23.1388348 36.9671772,23.8796765 C37.2470578,24.6205181 37.6174823,25.2337612 38.078462,25.719424 C38.5394417,26.2050869 39.0621519,26.5672707 39.6466083,26.8059864 C40.2310647,27.044702 40.8278598,27.164058 41.4370116,27.164058 C42.0790904,27.164058 42.7005805,27.0529334 43.3015005,26.830681 C43.9024204,26.6084285 44.4374781,26.2627075 44.9066896,25.7935078 C45.3759011,25.3243081 45.7504414,24.7151808 46.030322,23.9661076 C46.3102025,23.2170343 46.4501407,22.3074591 46.4501407,21.2373545 L46.4501407,12.2979099 Z M29.1140982,12.2979099 C29.1140982,10.305869 29.4680594,8.55668581 30.1759925,7.05030779 C30.8839256,5.54392977 31.8182186,4.2927493 32.9788997,3.29672886 C34.1395807,2.30070842 35.4607616,1.55164643 36.942482,1.04952042 C38.4242025,0.547394416 39.9388273,0.296335178 41.486402,0.296335178 C43.0504402,0.296335178 44.5815284,0.547394416 46.0797124,1.04952042 C47.5778964,1.55164643 48.907309,2.30070842 50.06799,3.29672886 C51.228671,4.2927493 52.1629641,5.54392977 52.8708972,7.05030779 C53.5788303,8.55668581 53.9327915,10.305869 53.9327915,12.2979099 L53.9327915,21.2373545 C53.9327915,23.2458585 53.5788303,25.0073889 52.8708972,26.5219985 C52.1629641,28.0366081 51.228671,29.3001357 50.06799,30.3126193 C48.907309,31.3251029 47.5778964,32.0823963 46.0797124,32.5845223 C44.5815284,33.0866483 43.0504402,33.3377076 41.486402,33.3377076 C39.9388273,33.3377076 38.4242025,33.0866483 36.942482,32.5845223 C35.4607616,32.0823963 34.1395807,31.3251029 32.9788997,30.3126193 C31.8182186,29.3001357 30.8839256,28.0366081 30.1759925,26.5219985 C29.4680594,25.0073889 29.1140982,23.2458585 29.1140982,21.2373545 L29.1140982,12.2979099 Z M65.020944,32.0535885 C64.7410635,32.4651672 64.4323764,32.736805 64.0948734,32.8685102 C63.7573704,33.0002154 63.407525,33.066067 63.0453267,33.066067 C62.732519,33.066067 62.4361794,33.0084468 62.1562988,32.8932048 C61.8764183,32.7779628 61.6294686,32.6174495 61.4154423,32.4116601 C61.201416,32.2058708 61.0326671,31.963043 60.9091904,31.6831695 C60.7857137,31.403296 60.7239762,31.1069638 60.7239762,30.794164 C60.7239762,30.5636799 60.7610187,30.3249678 60.8351047,30.0780206 C60.9091907,29.8310734 61.0367814,29.5841299 61.2178806,29.3371827 L81.492654,1.25942451 C81.7560709,0.930161553 82.0441789,0.687333765 82.3569866,0.530933861 C82.6697942,0.374533957 82.9743655,0.296335178 83.2707096,0.296335178 C83.5670537,0.296335178 83.8592775,0.353955331 84.1473898,0.469197366 C84.4355021,0.5844394 84.6906835,0.744952684 84.9129415,0.950742031 C85.1351996,1.15653138 85.3121802,1.39524344 85.4438887,1.66688538 C85.5755972,1.93852732 85.6414505,2.22251236 85.6414505,2.51884902 C85.6414505,2.73286994 85.6126397,2.9386562 85.5550172,3.13621397 C85.4973947,3.33377175 85.394499,3.53132656 85.246327,3.72888433 L65.020944,32.0535885 Z M57.4889028,7.68002004 C57.4889028,6.4946734 57.6741151,5.42870057 58.0445452,4.48206957 C58.4149753,3.53543858 58.9171063,2.72875644 59.5509534,2.06199895 C60.1848005,1.39524146 60.9297654,0.884891539 61.7858706,0.530933861 C62.6419757,0.176976184 63.5639213,0 64.5517349,0 C65.5395485,0 66.4656099,0.176976184 67.3299469,0.530933861 C68.1942838,0.884891539 68.9515962,1.39524146 69.6019068,2.06199895 C70.2522175,2.72875644 70.7625802,3.53543858 71.1330103,4.48206957 C71.5034404,5.42870057 71.6886527,6.4946734 71.6886527,7.68002004 C71.6886527,8.86536668 71.5034404,9.93545524 71.1330103,10.8903178 C70.7625802,11.8451804 70.2522175,12.6518625 69.6019068,13.3103884 C68.9515962,13.9689143 68.1942838,14.4751485 67.3299469,14.8291062 C66.4656099,15.1830639 65.5395485,15.3600401 64.5517349,15.3600401 C63.5639213,15.3600401 62.6419757,15.1830639 61.7858706,14.8291062 C60.9297654,14.4751485 60.1848005,13.9689143 59.5509534,13.3103884 C58.9171063,12.6518625 58.4149753,11.8451804 58.0445452,10.8903178 C57.6741151,9.93545524 57.4889028,8.86536668 57.4889028,7.68002004 Z M61.7858706,7.68002004 C61.7858706,8.86536668 62.0492836,9.77082623 62.5761175,10.3964258 C63.1029515,11.0220255 63.761484,11.3348206 64.5517349,11.3348206 C65.3419858,11.3348206 66.0128658,11.0220255 66.5643951,10.3964258 C67.1159244,9.77082623 67.3916849,8.86536668 67.3916849,7.68002004 C67.3916849,6.4946734 67.1159244,5.59332958 66.5643951,4.97596154 C66.0128658,4.3585935 65.3419858,4.04991411 64.5517349,4.04991411 C63.761484,4.04991411 63.1029515,4.3585935 62.5761175,4.97596154 C62.0492836,5.59332958 61.7858706,6.4946734 61.7858706,7.68002004 Z M74.7755549,25.6823821 C74.7755549,24.4970355 74.9607671,23.4310627 75.3311972,22.4844317 C75.7016274,21.5378007 76.2037584,20.7311185 76.8376055,20.064361 C77.4714526,19.3976036 78.2205333,18.8872536 79.0848703,18.533296 C79.9492072,18.1793383 80.8752686,18.0023621 81.8630822,18.0023621 C82.8508958,18.0023621 83.7769572,18.1793383 84.6412942,18.533296 C85.5056311,18.8872536 86.2629435,19.3976036 86.9132541,20.064361 C87.5635648,20.7311185 88.0739275,21.5378007 88.4443576,22.4844317 C88.8147877,23.4310627 89,24.4970355 89,25.6823821 C89,26.8677288 88.8147877,27.9378173 88.4443576,28.8926799 C88.0739275,29.8475425 87.5635648,30.6583403 86.9132541,31.3250978 C86.2629435,31.9918553 85.5056311,32.5022052 84.6412942,32.8561629 C83.7769572,33.2101206 82.8508958,33.3870968 81.8630822,33.3870968 C80.8752686,33.3870968 79.9492072,33.2101206 79.0848703,32.8561629 C78.2205333,32.5022052 77.4714526,31.9918553 76.8376055,31.3250978 C76.2037584,30.6583403 75.7016274,29.8475425 75.3311972,28.8926799 C74.9607671,27.9378173 74.7755549,26.8677288 74.7755549,25.6823821 Z M79.0725227,25.6823821 C79.0725227,26.8841919 79.3400515,27.7937672 79.8751172,28.4111352 C80.4101829,29.0285033 81.0728313,29.3371827 81.8630822,29.3371827 C82.2582077,29.3371827 82.6245164,29.2589839 82.9620194,29.102584 C83.2995224,28.9461841 83.5999778,28.7157035 83.8633948,28.4111352 C84.1268118,28.106567 84.3326032,27.7238046 84.4807752,27.2628364 C84.6289473,26.8018683 84.7030322,26.2750555 84.7030322,25.6823821 C84.7030322,25.0897088 84.6289473,24.5670117 84.4807752,24.1142751 C84.3326032,23.6615386 84.1268118,23.2828919 83.8633948,22.9783236 C83.5999778,22.6737554 83.2995224,22.4432748 82.9620194,22.2868749 C82.6245164,22.130475 82.2582077,22.0522762 81.8630822,22.0522762 C81.0728313,22.0522762 80.4101829,22.3609556 79.8751172,22.9783236 C79.3400515,23.5956917 79.0725227,24.4970355 79.0725227,25.6823821 Z" id="10%"></path>
                    <path d="M8.353,23.412 C8.098,21.372 6.364,20.454 4.579,20.454 C2.692,20.454 0.805,21.627 0.805,23.82 C0.805,27.9 3.967,33.612 13.504,33.612 C21.511,33.612 26.05,27.696 26.05,21.984 C26.05,16.119 21.766,10.662 13.249,10.662 L8.914,10.662 L8.914,6.888 L20.083,6.888 C22.684,6.888 23.908,5.307 23.908,3.726 C23.908,2.145 22.684,0.564 20.083,0.564 L5.65,0.564 C3.202,0.564 1.417,1.737 1.417,4.032 L1.417,13.773 C1.417,15.609 3.151,16.833 5.242,16.833 L13.249,16.833 C16.666,16.833 18.4,19.383 18.4,21.933 C18.4,24.534 16.717,27.543 13.453,27.543 C10.903,27.543 8.863,26.829 8.353,23.412 Z" id="5"></path>
                </g>
                <path d="M51.18,0.648 L67.148,0.648 C68.236,0.648 69.132,1.544 69.132,2.6 C69.132,3.72 68.236,4.616 67.148,4.616 L61.676,4.616 L61.676,18.664 C61.676,20.104 60.62,21.192 59.148,21.192 C57.74,21.192 56.652,20.104 56.652,18.664 L56.652,4.616 L51.18,4.616 C50.092,4.616 49.196,3.72 49.196,2.6 C49.196,1.544 50.092,0.648 51.18,0.648 Z M68.892,10.76 C68.892,4.552 73.532,0.264 79.612,0.264 C85.692,0.264 90.364,4.552 90.364,10.76 C90.364,16.968 85.692,21.384 79.612,21.384 C73.532,21.384 68.892,16.968 68.892,10.76 Z M73.916,10.76 C73.916,14.728 76.38,17.352 79.612,17.352 C82.876,17.352 85.34,14.728 85.34,10.76 C85.34,6.76 82.876,4.328 79.612,4.328 C76.38,4.328 73.916,6.76 73.916,10.76 Z" id="TO"></path>
                <path d="M16.784,11.848 C16.784,15.336 14.64,17.256 11.856,17.256 C9.07199998,17.256 6.92799998,15.336 6.92799998,11.848 L6.92799998,2.984 C6.92799998,1.576 5.80799998,0.456 4.39999998,0.456 C2.99199998,0.456 1.90399998,1.576 1.90399998,2.952 L1.90399998,11.944 C1.90399998,18.216 6.60799998,21.384 11.856,21.384 C17.104,21.384 21.808,18.216 21.808,11.944 L21.808,2.984 C21.808,1.576 20.688,0.456 19.344,0.456 C17.904,0.456 16.784,1.576 16.784,3.016 L16.784,11.848 Z M30.732,4.616 L30.732,11.528 L34.38,11.528 C37.228,11.528 38.348,9.864 38.316,8.168 C38.316,6.344 36.972,4.616 34.508,4.616 L30.732,4.616 Z M34.38,15.56 L30.732,15.56 L30.732,18.664 C30.732,20.104 29.676,21.192 28.204,21.192 C26.796,21.192 25.708,20.104 25.708,18.696 L25.708,3.176 C25.708,1.768 26.796,0.648 28.204,0.648 L34.476,0.648 C40.492,0.648 43.276,4.296 43.276,8.136 C43.276,12.232 40.46,15.56 34.38,15.56 Z" id="UP"></path>
                <path d="M2,86.8668144 C2,84.8565266 2.35146619,83.0035339 3.05440913,81.3077808 C3.75735206,79.6120278 4.73091342,78.148779 5.97512242,76.9179905 C7.21933141,75.687202 8.6884601,74.7265176 10.3825526,74.0359085 C12.076645,73.3452994 13.9148132,73 15.8971123,73 C17.8794114,73 19.7175796,73.3452994 21.4116721,74.0359085 C23.1057645,74.7265176 24.5748932,75.687202 25.8191022,76.9179905 C27.0633112,78.148779 28.0403872,79.6120278 28.7503596,81.3077808 C29.460332,83.0035339 29.8153128,84.8565266 29.8153128,86.8668144 C29.8153128,88.8771023 29.460332,90.730095 28.7503596,92.425848 C28.0403872,94.1216011 27.0633112,95.5848499 25.8191022,96.8156384 C24.5748932,98.0464269 23.1057645,99.0071113 21.4116721,99.6977204 C19.7175796,100.38833 17.8794114,100.733629 15.8971123,100.733629 C13.9148132,100.733629 12.076645,100.38833 10.3825526,99.6977204 C8.6884601,99.0071113 7.21933141,98.0464269 5.97512242,96.8156384 C4.73091342,95.5848499 3.75735206,94.1216011 3.05440913,92.425848 C2.35146619,90.730095 2,88.8771023 2,86.8668144 Z M5.22649193,86.8668144 C5.22649193,88.5215412 5.4971209,90.0258157 6.03838696,91.379683 C6.57965302,92.7335504 7.32827602,93.8891067 8.28427841,94.8463867 C9.2402808,95.8036666 10.3684873,96.5455474 11.6689317,97.0720514 C12.9693761,97.5985554 14.3787556,97.8618034 15.8971123,97.8618034 C17.4154691,97.8618034 18.8248485,97.5985554 20.1252929,97.0720514 C21.4257374,96.5455474 22.5539438,95.8036666 23.5099462,94.8463867 C24.4659486,93.8891067 25.2145716,92.7335504 25.7558377,91.379683 C26.2971037,90.0258157 26.5677327,88.5215412 26.5677327,86.8668144 C26.5677327,85.2120877 26.2971037,83.7043944 25.7558377,82.3436893 C25.2145716,80.9829843 24.4659486,79.8240091 23.5099462,78.8667292 C22.5539438,77.9094492 21.4257374,77.1675684 20.1252929,76.6410644 C18.8248485,76.1145605 17.4154691,75.8513124 15.8971123,75.8513124 C14.3787556,75.8513124 12.9693761,76.1145605 11.6689317,76.6410644 C10.3684873,77.1675684 9.2402808,77.9094492 8.28427841,78.8667292 C7.32827602,79.8240091 6.57965302,80.9829843 6.03838696,82.3436893 C5.4971209,83.7043944 5.22649193,85.2120877 5.22649193,86.8668144 Z M38.4670911,75.3179734 C38.4670911,75.0718157 38.5162964,74.8393369 38.6147084,74.6205301 C38.7131204,74.4017232 38.8501922,74.2068513 39.0259279,74.0359085 C39.2016637,73.8649656 39.4055141,73.7316322 39.6374852,73.6359042 C39.8694564,73.5401762 40.1119681,73.4923129 40.3650275,73.4923129 L58.1634536,73.4923129 C58.6133371,73.4923129 58.9507447,73.632484 59.1756864,73.9128302 C59.4006281,74.1931765 59.5130973,74.5042878 59.5130973,74.8461735 C59.5130973,75.1880592 59.4006281,75.4991705 59.1756864,75.7795168 C58.9507447,76.0598631 58.6133371,76.2000341 58.1634536,76.2000341 L41.5881421,76.2000341 L41.5881421,86.7027101 L57.3410145,86.7027101 C57.7768391,86.7027101 58.1037027,86.8394624 58.321615,87.1129709 C58.5395273,87.3864795 58.6484818,87.694172 58.6484818,88.0360577 C58.6484818,88.3505925 58.5395273,88.641191 58.321615,88.9078618 C58.1037027,89.1745327 57.7768391,89.3078661 57.3410145,89.3078661 L41.5881421,89.3078661 L41.5881421,98.8669423 C41.5881421,99.400284 41.4264677,99.8002843 41.1031139,100.066955 C40.7797602,100.333626 40.4212647,100.466959 40.0276166,100.466959 C39.6339686,100.466959 39.2754731,100.340464 38.9521193,100.087468 C38.6287656,99.8344727 38.4670911,99.4481477 38.4670911,98.9284814 L38.4670911,75.3179734 Z M67.9539938,75.3179734 C67.9539938,75.0718157 68.0031991,74.8393369 68.1016111,74.6205301 C68.2000231,74.4017232 68.3370949,74.2068513 68.5128306,74.0359085 C68.6885664,73.8649656 68.8924168,73.7316322 69.1243879,73.6359042 C69.3563591,73.5401762 69.5988708,73.4923129 69.8519302,73.4923129 L87.6503563,73.4923129 C88.1002398,73.4923129 88.4376473,73.632484 88.6625891,73.9128302 C88.8875308,74.1931765 89,74.5042878 89,74.8461735 C89,75.1880592 88.8875308,75.4991705 88.6625891,75.7795168 C88.4376473,76.0598631 88.1002398,76.2000341 87.6503563,76.2000341 L71.0750448,76.2000341 L71.0750448,86.7027101 L86.8279172,86.7027101 C87.2637418,86.7027101 87.5906054,86.8394624 87.8085177,87.1129709 C88.02643,87.3864795 88.1353845,87.694172 88.1353845,88.0360577 C88.1353845,88.3505925 88.02643,88.641191 87.8085177,88.9078618 C87.5906054,89.1745327 87.2637418,89.3078661 86.8279172,89.3078661 L71.0750448,89.3078661 L71.0750448,98.8669423 C71.0750448,99.400284 70.9133704,99.8002843 70.5900166,100.066955 C70.2666629,100.333626 69.9081673,100.466959 69.5145193,100.466959 C69.1208713,100.466959 68.7623757,100.340464 68.439022,100.087468 C68.1156682,99.8344727 67.9539938,99.4481477 67.9539938,98.9284814 L67.9539938,75.3179734 Z" id="OFF"></path>
            </g>
        </g>
    </g>
</svg>