<?xml version="1.0" encoding="UTF-8"?>
<svg width="272px" height="21px" viewBox="0 0 272 21" version="1.1" xmlns="http://www.w3.org/2000/svg" xmlns:xlink="http://www.w3.org/1999/xlink">
    <!-- Generator: Sketch 44.1 (41455) - http://www.bohemiancoding.com/sketch -->
    <title>Artboard</title>
    <desc>Created with Sketch.</desc>
    <defs></defs>
    <g id="Page-1" stroke="none" stroke-width="1" fill="none" fill-rule="evenodd">
        <g id="Artboard" fill="#FFFFFF">
            <g id="hcom-business-logo">
                <path d="M132.12978,4.44547826 C130.191668,4.44547826 128.173798,5.24017391 126.878534,6.7603913 C125.586459,5.24017391 123.57178,4.44547826 121.628882,4.44547826 C118.403481,4.44547826 114.980281,6.63169565 114.980281,10.684 L114.980281,18.5939565 C114.980281,19.4095652 115.548156,19.9565217 116.388802,19.9565217 C117.231043,19.9565217 117.770205,19.4208261 117.770205,18.5939565 L117.770205,10.7644348 C117.81806,8.70530435 119.521684,7.14969565 121.628882,7.14969565 C123.734485,7.14969565 125.439705,8.70530435 125.482774,10.7644348 L125.482774,18.5939565 C125.482774,19.4208261 126.025126,19.9565217 126.864177,19.9565217 L126.886509,19.9565217 C127.736726,19.9565217 128.275888,19.4208261 128.275888,18.5939565 L128.275888,10.7644348 C128.320553,8.70530435 130.024177,7.14969565 132.12978,7.14969565 C134.240168,7.14969565 135.940602,8.70530435 135.988457,10.7644348 L135.988457,18.5939565 C135.988457,19.4208261 136.530809,19.9565217 137.36986,19.9565217 C138.210506,19.9565217 138.778381,19.4095652 138.778381,18.5939565 L138.778381,10.684 C138.778381,6.63169565 135.355181,4.44547826 132.12978,4.44547826" id="Fill-1"></path>
                <path d="M14.5573736,0.652173913 C13.8618866,0.652173913 13.161614,1.13156522 13.161614,2.04852174 L13.161614,9.04473913 L2.7659967,9.04473913 L2.7659967,2.04852174 C2.7659967,1.14926087 2.04179687,0.663434783 1.36226135,0.663434783 C0.685916136,0.663434783 0,1.138 0,2.04852174 L0,18.5199565 C0,18.9382174 0.164300842,19.3114348 0.460999449,19.5736522 C0.719414366,19.8053043 1.07513366,19.9356087 1.42925781,19.9356087 C2.07210479,19.9356087 2.7659967,19.4916087 2.7659967,18.5199565 L2.7659967,11.588087 L13.161614,11.588087 L13.161614,18.5199565 C13.161614,19.0717391 13.3976968,19.4095652 13.5923056,19.5945652 C13.845935,19.8278261 14.1809173,19.9565217 14.5414221,19.9565217 C15.2241479,19.9565217 15.951538,19.4546087 15.951538,18.5199565 L15.951538,2.04852174 C15.951538,1.13156522 15.2512655,0.652173913 14.5573736,0.652173913" id="Fill-5"></path>
                <path d="M46.3822872,11.6476087 C46.5418025,9.71234783 47.656815,8.12617391 49.4529582,7.51486957 C50.1739677,7.2446087 51.1039424,7.14326087 51.9015193,7.2413913 L52.1950276,7.29930435 C54.0565721,7.64195652 55.4459511,9.093 55.8941893,10.9735652 L46.3822872,11.6476087 Z M58.7893934,11.6508261 C58.4576014,7.96047826 56.2371474,5.28843478 52.8378746,4.60313043 L52.7820442,4.59026087 C51.2634578,4.31678261 49.6954216,4.431 48.4272743,4.9136087 C46.1254674,5.73886957 44.4489607,7.60495652 43.8252556,10.0228261 C43.3913738,11.7183913 43.5030345,13.516913 44.0964318,15.1288261 C44.0964318,15.1288261 44.5207427,16.0296957 44.7440642,16.4173913 C44.9673857,16.805087 45.4570979,17.5145217 45.4570979,17.5145217 C45.509738,17.5804783 45.5591878,17.6432174 45.613423,17.7027391 C47.0378954,19.2696087 49.3317265,20.102913 51.7483845,19.9356087 C51.7994295,19.9307826 51.8456889,19.9291739 51.8951387,19.9275652 C53.9433162,19.7811739 55.7091514,19.0154348 56.8672331,17.7590435 C57.312281,17.2281739 57.4191563,16.641 57.1655269,16.1342609 C56.9278489,15.6596957 56.3950676,15.3685217 55.8415492,15.4087391 C55.4619026,15.4344783 55.1093736,15.605 54.8254362,15.8977826 C53.7327559,16.8694348 52.4039928,17.1509565 51.4819939,17.216913 C49.2727058,17.3713478 47.3712825,16.2098696 46.6965325,14.2504783 L57.1288383,13.516913 C57.7541386,13.4702609 58.2183284,13.2627391 58.5102415,12.8943478 C58.7622758,12.5661739 58.8627705,12.127 58.7893934,11.6508261 Z" id="Fill-6"></path>
                <path d="M28.6744848,15.5197391 C27.7556762,16.5814783 26.3359893,17.2378261 24.9609667,17.2378261 C23.5444701,17.2378261 22.1726379,16.5991739 21.2825421,15.5229565 C20.5647228,14.68 20.151578,13.4686522 20.151578,12.2154783 C20.151578,9.75256522 21.4915072,7.80765217 23.5588265,7.25908696 C24.0006841,7.14004348 24.4888012,7.07569565 24.9354443,7.07569565 C25.3836825,7.07569565 25.9052978,7.14326087 26.3678924,7.25908696 C28.4543536,7.80282609 29.8006634,9.77347826 29.8006634,12.2717826 C29.8006634,13.4236087 29.3635912,14.6703478 28.6744848,15.5197391 Z M27.1160195,4.70930435 C26.4492452,4.52752174 25.7633291,4.44547826 24.9609667,4.44547826 C24.0836321,4.44547826 23.3594323,4.53073913 22.7500835,4.71252174 C19.6714367,5.59086957 17.6471865,8.17604348 17.3345364,11.6556522 C17.2468029,13.9174783 17.8290341,15.7642609 19.1179183,17.2941304 C20.5296295,19.0106087 22.6065197,19.9565217 24.9609667,19.9565217 C27.3201992,19.9565217 29.3986846,19.0106087 30.8072054,17.2941304 C32.0897091,15.7417391 32.6767257,13.8418696 32.5602794,11.6379565 C32.2922936,8.25326087 30.2074276,5.59891304 27.1160195,4.70930435 L27.1160195,4.70930435 Z" id="Fill-7"></path>
                <path d="M109.971498,15.5197391 C109.051095,16.5814783 107.631408,17.2378261 106.25798,17.2378261 C104.841484,17.2378261 103.468056,16.5991739 102.579556,15.5229565 C101.860141,14.68 101.448592,13.4686522 101.448592,12.2154783 C101.448592,9.75256522 102.788521,7.80765217 104.85584,7.25908696 C105.297698,7.14004348 105.78422,7.07569565 106.230863,7.07569565 C106.680696,7.07569565 107.200716,7.14326087 107.663311,7.25908696 C109.749772,7.80282609 111.096082,9.77347826 111.096082,12.2717826 C111.096082,13.4236087 110.65901,14.6703478 109.971498,15.5197391 Z M108.413033,4.70930435 C107.746259,4.52752174 107.060343,4.44547826 106.25798,4.44547826 C105.380646,4.44547826 104.656446,4.53073913 104.045502,4.71252174 C100.96845,5.59086957 98.942605,8.17604348 98.6299548,11.6556522 C98.5438165,13.9174783 99.1260477,15.7642609 100.413337,17.2941304 C101.826643,19.0106087 103.903533,19.9565217 106.25798,19.9565217 C108.617213,19.9565217 110.694103,19.0106087 112.104219,17.2941304 C113.385128,15.7417391 113.973739,13.8418696 113.857293,11.6379565 C113.589307,8.25326087 111.502846,5.59891304 108.413033,4.70930435 L108.413033,4.70930435 Z" id="Fill-8"></path>
                <path d="M62.0259605,0.636086957 C61.222003,0.636086957 60.6158445,1.212 60.6158445,1.97773913 L60.6158445,18.6164783 C60.6158445,19.3773913 61.222003,19.9565217 62.0259605,19.9565217 C62.7868489,19.9565217 63.410554,19.3548696 63.410554,18.6164783 L63.410554,1.97773913 C63.410554,1.23773913 62.7868489,0.636086957 62.0259605,0.636086957" id="Fill-9"></path>
                <path d="M72.6417091,10.6823913 L72.5906641,10.6759565 C72.402436,10.663087 72.2094224,10.6502174 72.0195991,10.6325217 C69.7241728,10.478087 68.7160356,10.2914783 68.7160356,9.1686087 C68.7160356,7.78834783 70.8200434,7.16578261 72.3115122,7.16578261 C74.4920875,7.16578261 75.7331171,7.64034783 76.0968122,8.60878261 C76.2754694,9.13643478 76.7508253,9.463 77.339437,9.463 C77.8355299,9.463 78.3204566,9.22813043 78.5980134,8.84686957 C78.8500477,8.4993913 78.9170441,8.06021739 78.7782658,7.62265217 L78.7670997,7.59208696 C77.9663325,5.5023913 75.7921378,4.44547826 72.3115122,4.44547826 C69.1036579,4.44547826 65.8543296,6.059 65.8543296,9.14126087 C65.8543296,12.9184783 69.2855055,13.237 72.3147025,13.5185217 L72.7039201,13.553913 C74.9993464,13.7163913 76.406272,13.886913 76.406272,15.1497391 C76.406272,16.7326957 73.7631022,17.2667826 72.5603562,17.2667826 C70.4499677,17.2667826 68.7096549,16.5943478 68.5166413,15.7143913 C68.389029,15.0097826 67.8626283,14.552913 67.1814976,14.552913 C66.6997612,14.552913 66.2323811,14.7781304 65.9580146,15.1465217 C65.7187416,15.4650435 65.6469596,15.8575652 65.7554301,16.2533043 C66.4301802,19.5977826 70.7370954,19.9565217 72.5603562,19.9565217 C75.0519865,19.9565217 79.267978,18.9430435 79.267978,15.1497391 C79.267978,11.2888696 75.7506638,10.9671304 72.6417091,10.6823913" id="Fill-10"></path>
                <path d="M82.3306733,16.7391304 C81.3879374,16.7391304 80.7068067,17.4147826 80.7068067,18.3510435 C80.7068067,19.2792609 81.3879374,19.9565217 82.3306733,19.9565217 C83.2558625,19.9565217 83.9018998,19.2937391 83.9018998,18.3510435 C83.9018998,17.4003043 83.2558625,16.7391304 82.3306733,16.7391304" id="Fill-11"></path>
                <path d="M98.83892,11.9178696 C97.6377692,14.2134783 95.3566992,17.3311304 91.9797586,17.2796522 C90.5632621,17.2603478 89.2137619,16.661913 88.3779013,15.6178696 C87.7015561,14.8054783 87.3011725,13.549087 87.3011725,12.2605217 C87.3011725,9.2763913 89.2169522,7.10304348 91.8665027,7.10304348 C92.8570932,7.10304348 94.2592334,7.36847826 95.3391525,8.62969565 C95.5943772,8.93856522 95.9485013,9.10747826 96.3313382,9.10747826 C96.8736905,9.10747826 97.4016864,8.7583913 97.6266031,8.26452174 C97.8291876,7.81408696 97.7478348,7.32826087 97.4048767,6.93413043 C95.9022418,5.22408696 94.2640189,4.45995652 92.0866339,4.45995652 C87.7589817,4.45995652 84.6930961,7.36526087 84.4633939,11.6910435 C84.3453525,13.8000435 84.9690577,15.8656087 86.1702085,17.3633043 C87.5532068,18.9848696 89.7130451,19.9565217 91.9510459,19.9565217 C95.6789203,19.9565217 98.3284708,17.5064783 99.5535489,15.6178696 C99.5535489,15.6178696 98.8580618,11.9387826 98.83892,11.9178696" id="Fill-12"></path>
                <path d="M44.2655181,15.1851304 C43.2350487,16.0940435 40.8917678,17.0463913 40.8694356,17.0544348 L40.8104149,17.0801739 C40.6429238,17.159 40.1819243,17.249087 39.7879213,17.249087 L39.6858315,17.2458696 C38.42566,17.179913 37.9375429,16.3948696 37.9375429,14.4467391 L37.9375429,7.10304348 L40.406841,7.10304348 C40.946003,7.10304348 41.2730095,6.87782609 41.4580474,6.67995652 C41.6989156,6.43382609 41.8265279,6.10243478 41.8265279,5.74530435 C41.8265279,5.08413043 41.3304351,4.45513043 40.406841,4.45513043 L37.9375429,4.45513043 L37.9375429,2.12413043 C37.9375429,1.17017391 37.1686788,0.652173913 36.4492644,0.652173913 C35.7170888,0.652173913 34.9769375,1.15891304 34.9769375,2.12413043 L34.9769375,4.45513043 L33.3865691,4.45513043 C32.4565944,4.45513043 31.9573113,5.0953913 31.9573113,5.76782609 C31.9573113,6.12173913 32.0913042,6.44991304 32.3305773,6.69282609 C32.51402,6.88265217 32.845812,7.10304348 33.3865691,7.10304348 L34.9769375,7.10304348 L34.9769375,14.4467391 C34.9769375,16.7069565 35.4506981,19.7393478 39.5390773,19.9484783 C39.6555236,19.9533043 39.7719698,19.9565217 39.8836306,19.9565217 C40.5854982,19.9565217 41.2442968,19.8423043 41.9573305,19.5993913 C43.4168962,19.099087 44.5494554,18.3526522 45.6293746,17.5756522 L44.2655181,15.1851304" id="Fill-13"></path>
                <path d="M141.175897,5.07608696 C140.064075,5.07608696 139.159623,4.172 139.159623,3.0603913 C139.159623,1.94395652 140.064075,1.03665217 141.175897,1.03665217 C142.282934,1.03665217 143.182601,1.94395652 143.182601,3.0603913 C143.182601,4.172 142.282934,5.07608696 141.175897,5.07608696 Z M141.175897,0.652173913 C139.856705,0.652173913 138.778381,1.73965217 138.778381,3.0603913 C138.778381,4.38113043 139.856705,5.46056522 141.175897,5.46056522 C142.503065,5.46056522 143.563842,4.38113043 143.563842,3.0603913 C143.563842,1.73965217 142.503065,0.652173913 141.175897,0.652173913 L141.175897,0.652173913 Z" id="Fill-21"></path>
                <path d="M141.297129,3.08130435 L140.641521,3.08130435 L140.641521,2.18043478 L141.297129,2.18043478 C141.676775,2.18043478 141.896907,2.38634783 141.904882,2.65017391 C141.908073,2.88665217 141.72144,3.08130435 141.297129,3.08130435 Z M142.279744,2.65017391 C142.279744,2.19813043 141.949547,1.83456522 141.292343,1.83456522 L140.450102,1.83456522 C140.335251,1.83456522 140.260279,1.90534783 140.260279,2.01795652 L140.260279,4.06743478 C140.260279,4.18326087 140.354393,4.2476087 140.446912,4.2476087 C140.53624,4.2476087 140.641521,4.18326087 140.641521,4.0626087 L140.641521,3.42395652 L141.244489,3.42395652 L141.941571,4.18326087 C141.983045,4.22830435 142.03409,4.2476087 142.078754,4.2476087 C142.176059,4.2476087 142.265387,4.16878261 142.265387,4.07065217 C142.265387,4.0223913 142.243055,3.97252174 142.203176,3.92747826 L141.699108,3.38695652 C142.078754,3.27756522 142.279744,3.00247826 142.279744,2.65017391 L142.279744,2.65017391 Z" id="Fill-22"></path>
                <path d="M165.56415,14.33 C165.56415,18.8 161.54415,20 157.76415,20 L149.96415,20 C149.36415,20 148.85415,19.52 148.85415,18.92 L148.85415,2 C148.85415,1.4 149.36415,0.92 149.96415,0.92 L157.07415,0.92 C159.86415,0.92 164.18415,1.85 164.18415,6.11 C164.18415,7.67 163.43415,9.05 161.87415,9.68 C164.06415,10.37 165.56415,11.9 165.56415,14.33 Z M157.07415,2.84 L151.04415,2.84 L151.04415,8.99 L157.16415,8.99 C159.74415,8.99 161.99415,8.3 161.99415,6.11 C161.99415,3.53 158.93415,2.84 157.07415,2.84 Z M151.04415,10.94 L151.04415,18.02 L157.76415,18.02 C160.40415,18.02 163.31415,17.36 163.31415,14.33 C163.31415,11.96 161.27415,10.94 158.66415,10.94 L151.04415,10.94 Z M168.052786,13.04 C168.052786,17.39 171.352786,20.36 175.402786,20.36 C179.452786,20.36 182.722786,17.36 182.722786,13.01 L182.722786,5.84 C182.722786,5.18 182.332786,4.79 181.642786,4.79 C180.982786,4.79 180.532786,5.18 180.532786,5.84 L180.532786,13.07 C180.532786,15.92 178.252786,18.35 175.402786,18.35 C172.552786,18.35 170.242786,15.92 170.242786,13.07 L170.242786,5.84 C170.242786,5.18 169.792786,4.79 169.132786,4.79 C168.442786,4.79 168.052786,5.18 168.052786,5.84 L168.052786,13.04 Z M185.271423,16.73 C185.991423,19.7 189.711423,20.36 192.201423,20.36 C194.691423,20.36 199.011423,19.31 199.011423,15.53 C199.011423,8.81 187.581423,13.13 187.581423,9.2 C187.581423,7.34 190.191423,6.53 191.931423,6.53 C193.281423,6.53 195.831423,6.71 196.461423,8.45 C196.611423,8.87 197.001423,9.05 197.391423,9.05 C197.961423,9.05 198.561423,8.66 198.561423,8.06 C198.561423,7.94 198.531423,7.82 198.501423,7.67 C197.541423,4.94 194.241423,4.58 191.931423,4.58 C189.051423,4.58 185.391423,5.96 185.391423,9.17 C185.391423,15.89 196.821423,11.48 196.821423,15.53 C196.821423,17.6 193.671423,18.41 192.201423,18.41 C190.011423,18.41 187.641423,17.69 187.371423,16.34 C187.251423,15.74 186.831423,15.47 186.381423,15.47 C185.811423,15.47 185.241423,15.89 185.241423,16.49 C185.241423,16.58 185.241423,16.64 185.271423,16.73 Z M201.500059,19.19 C201.500059,19.85 202.040059,20.18 202.610059,20.18 C203.150059,20.18 203.690059,19.85 203.690059,19.19 L203.690059,5.75 C203.690059,5.12 203.150059,4.79 202.610059,4.79 C202.070059,4.79 201.500059,5.12 201.500059,5.78 L201.500059,19.19 Z M203.720059,1.07 C203.720059,0.38 203.150059,0.05 202.580059,0.05 C202.040059,0.05 201.470059,0.38 201.470059,1.07 L201.470059,2.42 C201.470059,3.11 202.010059,3.44 202.580059,3.44 C203.150059,3.44 203.720059,3.11 203.720059,2.42 L203.720059,1.07 Z M221.748695,11.9 C221.748695,7.55 218.448695,4.58 214.398695,4.58 C210.348695,4.58 207.078695,7.58 207.078695,11.93 L207.078695,19.13 C207.078695,19.79 207.468695,20.18 208.158695,20.18 C208.818695,20.18 209.268695,19.79 209.268695,19.13 L209.268695,11.87 C209.268695,9.02 211.548695,6.59 214.398695,6.59 C217.248695,6.59 219.558695,9.02 219.558695,11.87 L219.558695,19.13 C219.558695,19.79 220.008695,20.18 220.668695,20.18 C221.358695,20.18 221.748695,19.79 221.748695,19.13 L221.748695,11.9 Z M226.817332,14.3 C227.507332,16.58 229.397332,18.35 232.097332,18.35 C233.597332,18.35 235.277332,17.9 236.447332,16.76 C236.777332,16.46 237.017332,16.37 237.377332,16.37 C237.917332,16.37 238.337332,16.76 238.337332,17.3 C238.337332,17.57 238.247332,17.84 238.007332,18.11 C236.597332,19.64 234.317332,20.36 232.217332,20.36 C227.807332,20.36 224.387332,17.21 224.387332,12.5 C224.387332,8.66 226.937332,4.58 232.157332,4.58 C236.237332,4.58 239.537332,7.4 239.897332,11.87 L239.897332,12.02 C239.897332,12.77 239.447332,13.28 238.547332,13.34 L226.817332,14.3 Z M237.767332,11.57 C237.407332,8.84 235.247332,6.59 232.217332,6.59 C228.497332,6.59 226.547332,9.41 226.547332,12.47 L237.767332,11.57 Z M241.545968,16.73 C242.265968,19.7 245.985968,20.36 248.475968,20.36 C250.965968,20.36 255.285968,19.31 255.285968,15.53 C255.285968,8.81 243.855968,13.13 243.855968,9.2 C243.855968,7.34 246.465968,6.53 248.205968,6.53 C249.555968,6.53 252.105968,6.71 252.735968,8.45 C252.885968,8.87 253.275968,9.05 253.665968,9.05 C254.235968,9.05 254.835968,8.66 254.835968,8.06 C254.835968,7.94 254.805968,7.82 254.775968,7.67 C253.815968,4.94 250.515968,4.58 248.205968,4.58 C245.325968,4.58 241.665968,5.96 241.665968,9.17 C241.665968,15.89 253.095968,11.48 253.095968,15.53 C253.095968,17.6 249.945968,18.41 248.475968,18.41 C246.285968,18.41 243.915968,17.69 243.645968,16.34 C243.525968,15.74 243.105968,15.47 242.655968,15.47 C242.085968,15.47 241.515968,15.89 241.515968,16.49 C241.515968,16.58 241.515968,16.64 241.545968,16.73 Z M256.934604,16.73 C257.654604,19.7 261.374604,20.36 263.864604,20.36 C266.354604,20.36 270.674604,19.31 270.674604,15.53 C270.674604,8.81 259.244604,13.13 259.244604,9.2 C259.244604,7.34 261.854604,6.53 263.594604,6.53 C264.944604,6.53 267.494604,6.71 268.124604,8.45 C268.274604,8.87 268.664604,9.05 269.054604,9.05 C269.624604,9.05 270.224604,8.66 270.224604,8.06 C270.224604,7.94 270.194604,7.82 270.164604,7.67 C269.204604,4.94 265.904604,4.58 263.594604,4.58 C260.714604,4.58 257.054604,5.96 257.054604,9.17 C257.054604,15.89 268.484604,11.48 268.484604,15.53 C268.484604,17.6 265.334604,18.41 263.864604,18.41 C261.674604,18.41 259.304604,17.69 259.034604,16.34 C258.914604,15.74 258.494604,15.47 258.044604,15.47 C257.474604,15.47 256.904604,15.89 256.904604,16.49 C256.904604,16.58 256.904604,16.64 256.934604,16.73 Z" id="Business"></path>
            </g>
        </g>
    </g>
</svg>