<?xml version="1.0" encoding="UTF-8"?>
<svg width="179px" height="43px" viewBox="0 0 179 43" version="1.1" xmlns="http://www.w3.org/2000/svg" xmlns:xlink="http://www.w3.org/1999/xlink">
    <!-- Generator: Sketch 44.1 (41455) - http://www.bohemiancoding.com/sketch -->
    <title>feefo_logo</title>
    <desc>Created with Sketch.</desc>
    <defs></defs>
    <g id="Business-page" stroke="none" stroke-width="1" fill="none" fill-rule="evenodd">
        <g id="hcom_for_business" transform="translate(-582.000000, -1384.000000)" fill="#424243">
            <g id="//-Testimonials-Desktop-1-quote" transform="translate(0.000000, 1336.000000)">
                <g id="feefo_logo" transform="translate(582.000000, 48.000000)">
                    <g id="-feefo-word">
                        <path d="M38.9231489,23.0845592 L24.7824941,23.0845592 C25.4023692,20.1971227 28.0514946,18.2700693 31.767618,18.2700693 C35.3164612,18.2700693 37.8522425,19.9707804 38.9231489,23.0845592 M47.881242,29.4300033 L47.881242,28.4664766 C47.881242,17.1383577 41.2893049,10.1728299 31.6558373,10.1728299 C27.5426186,10.1728299 23.5427441,11.8711833 20.4996502,14.9299483 C17.5151825,17.9321277 15.8822457,21.8404623 15.8822457,26.0883104 C15.8822457,30.3903864 17.4034018,34.245279 20.3308065,37.3590578 C23.4309634,40.644951 27.1494318,42.2309191 31.767618,42.2309191 C38.5299621,42.2309191 43.5436802,39.0023974 46.4718666,32.6577391 L36.6695554,32.6577391 C35.3164612,33.8476081 33.8531497,34.3568784 32.0498058,34.3568784 C28.1624937,34.3568784 25.8526189,32.6577391 25.0639002,29.4300033 L47.881242,29.4300033" id="Fill-1"></path>
                        <path d="M72.6066733,23.0845592 L58.4660185,23.0845592 C59.0858935,20.1971227 61.7334556,18.2700693 65.4519241,18.2700693 C69.0015489,18.2700693 71.5349852,19.9707804 72.6066733,23.0845592 M81.5647663,29.4300033 L81.5647663,28.4664766 C81.5647663,17.1383577 74.9728293,10.1728299 65.3393616,10.1728299 C61.2269247,10.1728299 57.2254867,11.8711833 54.1831745,14.9299483 C51.1979252,17.9321277 49.5649883,21.8404623 49.5649883,26.0883104 C49.5649883,30.3903864 51.0869261,34.245279 54.0143309,37.3590578 C57.113706,40.644951 60.8329562,42.2309191 65.4519241,42.2309191 C72.2127048,42.2309191 77.2272045,39.0023974 80.1561726,32.6577391 L70.352298,32.6577391 C69.0015489,33.8476081 67.5358923,34.3568784 65.7333301,34.3568784 C61.8467997,34.3568784 59.5353615,32.6577391 58.7474245,29.4300033 L81.5647663,29.4300033" id="Fill-2"></path>
                        <path d="M3.26743709,17.8747562 L3.26743709,41.4929488 L12.0004053,41.4929488 L12.0004053,17.8747562 L15.5492485,17.8747562 L15.5492485,11.0774133 L12.0004053,11.0774133 L12.0004053,10.3410149 C12.0004053,7.56674959 12.6194987,6.65902256 15.3241236,6.65902256 L15.5492485,6.65902256 L15.5492485,0.543064392 C15.0427176,0.543064392 14.5909045,0.486478811 14.1406548,0.486478811 C6.70528119,0.486478811 3.21037419,3.43207265 3.21037419,9.9449158 C3.21037419,10.2844293 3.26743709,10.6813143 3.26743709,11.0774133 L0,11.0774133 L0,17.8747562 L3.26743709,17.8747562" id="Fill-3"></path>
                        <path d="M84.9447659,17.8747562 L84.9447659,41.4929488 L93.6777341,41.4929488 L93.6777341,17.8747562 L97.2257956,17.8747562 L97.2257956,11.0774133 L93.6777341,11.0774133 L93.6777341,10.3410149 C93.6777341,7.56674959 94.2968274,6.65902256 97.0014524,6.65902256 L97.2257956,6.65902256 L97.2257956,0.543064392 C96.7200463,0.543064392 96.2682333,0.486478811 95.8164202,0.486478811 C88.3810466,0.486478811 84.8884846,3.43207265 84.8884846,9.9449158 C84.8884846,10.2844293 84.9447659,10.6813143 84.9447659,11.0774133 L81.6773288,11.0774133 L81.6773288,17.8747562 L84.9447659,17.8747562" id="Fill-4"></path>
                        <path d="M120.312036,26.3130809 C120.312036,30.4485438 117.100099,33.7910226 113.158069,33.7910226 C109.269975,33.7910226 106.001756,30.4485438 106.001756,26.3130809 C106.001756,22.1233902 109.214476,18.7801255 113.158069,18.7801255 C117.100099,18.7801255 120.312036,22.1233902 120.312036,26.3130809 M129.156004,26.0883104 C129.156004,21.9520616 127.409723,17.7607991 124.199349,14.7036059 C121.157036,11.8145977 117.38385,10.2852152 112.98688,10.2852152 C108.875225,10.2852152 104.876132,11.9851403 101.832257,15.0423335 C98.8470072,18.0445129 97.2140703,21.9520616 97.2140703,26.1999097 C97.2140703,30.4485438 98.7336631,34.3584502 101.664195,37.4156434 C104.764351,40.7023225 108.481256,42.2875047 113.101006,42.2875047 C117.663693,42.2875047 121.494724,40.644951 124.59488,37.5303864 C127.636411,34.4708354 129.156004,30.6764579 129.156004,26.0883104" id="Fill-5"></path>
                    </g>
                    <g id="icon" transform="translate(130.541147, 0.000000)">
                        <path d="M12.277903,21.1480748 C7.99193225,20.8855806 4.547053,17.4260011 4.30785785,13.1113506 L23.0487201,13.1113506 L23.0487201,12.9054419 C23.0487201,5.50451954 18.3461121,0.572929004 11.845632,0.572929004 C4.97619725,0.572929004 0.315018456,5.62947936 0.315018456,12.2067672 C0.315018456,18.4154629 5.13878743,23.8822587 11.7229077,23.8822587 C16.5068108,23.8822587 20.3104828,21.2101618 22.3553668,16.2769994 L20.4621294,16.2769994 C19.1012184,19.1667936 16.1761587,21.1637931 12.7844339,21.1637931 C12.6069917,21.1637931 12.4522184,21.1590776 12.277903,21.1480748" id="Fill-6"></path>
                        <path d="M36.0723492,21.1480748 C40.3583199,20.8855806 43.8047625,17.4260011 44.045521,13.1113506 L25.301532,13.1113506 L25.301532,12.9054419 C25.301532,5.50451954 30.0049217,0.572929004 36.5069652,0.572929004 C43.3748365,0.572929004 48.0383604,5.62947936 48.0383604,12.2067672 C48.0383604,18.4154629 43.2130281,23.8822587 36.6281261,23.8822587 C31.844223,23.8822587 28.0421144,21.2101618 25.9964486,16.2769994 L27.8912495,16.2769994 C29.2513788,19.1667936 32.1787836,21.1637931 35.5681633,21.1637931 C35.7440421,21.1637931 35.9003788,21.1590776 36.0723492,21.1480748" id="Fill-7"></path>
                    </g>
                </g>
            </g>
        </g>
    </g>
</svg>