<?xml version="1.0" encoding="UTF-8"?>
<svg width="184px" height="100px" viewBox="0 0 184 100" version="1.1" xmlns="http://www.w3.org/2000/svg" xmlns:xlink="http://www.w3.org/1999/xlink">
    <!-- Generator: Sketch 44.1 (41455) - http://www.bohemiancoding.com/sketch -->
    <title>Punchcards</title>
    <desc>Created with Sketch.</desc>
    <defs></defs>
    <g id="Business-page" stroke="none" stroke-width="1" fill="none" fill-rule="evenodd">
        <g id="hcom_for_business" transform="translate(-188.000000, -525.000000)">
            <g id="//-3-col-split" transform="translate(-1.000000, 477.000000)">
                <g id="01" transform="translate(92.000000, 48.000000)">
                    <g id="Punchcards" transform="translate(97.000000, 0.000000)">
                        <g id="Gold" transform="translate(125.535714, 46.564935) rotate(5.000000) translate(-125.535714, -46.564935) translate(70.035714, 10.493506)">
                            <rect id="Rectangle" fill-opacity="0.1" fill="#000000" fill-rule="nonzero" x="2.36170212" y="2.36533958" width="108.638298" height="69.7775175" rx="4.73561091"></rect>
                            <rect id="Rectangle" fill="#F7F5E8" fill-rule="nonzero" x="0" y="-6.25277584e-15" width="108.638298" height="69.7775175" rx="4.73561091"></rect>
                            <g id="Logo" transform="translate(24.797872, 7.096019)" fill-rule="nonzero" fill="#C79339">
                                <path d="M1.95314838,6.09643533 L4.95158191,6.09643533 C6.86671044,6.09643533 7.71451436,5.18710631 7.71451436,4.05807362 C7.71451436,2.75990399 6.71868118,1.67969435 4.95158191,1.67969435 L1.95314838,1.67969435 L1.95314838,6.09643533 L1.95314838,6.09643533 Z M1.95314838,7.07115234 L1.95314838,10.6134379 C1.95314838,10.9691486 1.67054707,11.1531068 1.40392619,11.1531068 C1.13478208,11.1531068 0.868161204,10.9822262 0.868161204,10.629131 L0.868161204,1.22982496 C0.868161204,0.90550051 1.09188724,0.691027893 1.41822447,0.691027893 L4.93728363,0.691027893 C7.50508661,0.691027893 8.81295874,2.18884886 8.81295874,3.99878851 C8.81295874,5.55763826 7.99543352,6.68667095 6.16945899,7.01012355 L9.01313467,10.2289565 C9.14770672,10.3667072 9.20742307,10.5035861 9.20742307,10.6430804 C9.20742307,10.9360187 8.9542594,11.1531068 8.67165809,11.1531068 C8.53792711,11.1531068 8.38905678,11.1068993 8.27130623,10.9665331 L4.83299029,7.07115234 L1.95314838,7.07115234 L1.95314838,7.07115234 Z" id="Fill-14"></path>
                                <path d="M13.3631762,4.05807362 C11.5237445,4.05807362 10.557349,5.51230259 10.557349,7.08946098 L16.1109693,6.626514 C15.9335024,5.21849254 14.8644958,4.05807362 13.3631762,4.05807362 L13.3631762,4.05807362 Z M13.304301,10.1191047 C14.0469704,10.1191047 14.8796351,9.88632342 15.4574538,9.29957516 C15.6214636,9.14438765 15.7408963,9.09643645 15.9183631,9.09643645 C16.1866662,9.09643645 16.3944118,9.29957516 16.3944118,9.57333288 C16.3944118,9.71457095 16.3489936,9.85319349 16.2312431,9.99443156 C15.5323095,10.7825748 14.4052685,11.1531068 13.3631762,11.1531068 C11.1805858,11.1531068 9.48666007,9.52974088 9.48666007,7.1051541 C9.48666007,5.12782118 10.7499552,3.02407148 13.3337386,3.02407148 C15.3548426,3.02407148 16.9873698,4.47830045 17.1648368,6.78082965 L17.1648368,6.85667972 C17.1648368,7.24116113 16.943634,7.50620047 16.497023,7.53584302 L10.69108,8.03017624 C11.0333976,9.2045446 11.9686734,10.1191047 13.304301,10.1191047 L13.304301,10.1191047 Z" id="Fill-15"></path>
                                <path d="M17.6021959,3.80872741 C17.5719172,3.74682678 17.5719172,3.6840543 17.5719172,3.6230255 C17.5719172,3.29870106 17.8839561,3.13043596 18.1808557,3.13043596 C18.3743031,3.13043596 18.55177,3.20454235 18.6257845,3.37542298 L21.0892942,9.24029003 L23.4367354,4.16182257 C23.555327,3.91422003 23.7319529,3.77734117 23.9405396,3.77734117 C24.1491263,3.77734117 24.3408915,3.91422003 24.4611651,4.16182257 L26.8363619,9.26993259 L29.2426784,3.43732361 C29.3293092,3.23418491 29.5084583,3.12869228 29.7170449,3.12869228 C29.9845069,3.12869228 30.2805654,3.31265049 30.2805654,3.60820422 C30.2805654,3.66748935 30.265426,3.72851814 30.2376706,3.80785557 L27.3569876,10.8331416 C27.2686747,11.0327929 27.072704,11.140901 26.880939,11.140901 C26.6572129,11.140901 26.4486262,11.0327929 26.3603133,10.8331416 L23.9859576,5.61605154 L21.5359052,10.8191921 C21.4467512,11.0188434 21.2087269,11.1443884 21.0001402,11.1443884 C20.7923946,11.1443884 20.6140867,11.0493578 20.5257738,10.8191921 L17.6021959,3.80872741" id="Fill-16"></path>
                                <path d="M36.9603857,7.6753374 L36.9603857,6.45650521 C36.9603857,5.09556311 35.9653936,4.05807362 34.6146265,4.05807362 C33.0704122,4.05807362 31.8365547,5.26644373 31.8365547,7.08946098 C31.8365547,8.90899087 33.0704122,10.1191047 34.6146265,10.1191047 C35.9653936,10.1191047 36.9603857,9.19059516 36.9603857,7.6753374 L36.9603857,7.6753374 Z M36.9898233,9.79390838 C36.4860191,10.7485731 35.445609,11.1531068 34.6297659,11.1531068 C32.4909114,11.1531068 30.7540908,9.48440521 30.7540908,7.08946098 C30.7540908,4.69277307 32.4909114,3.02407148 34.6297659,3.02407148 C35.6230759,3.02407148 36.5137747,3.44342649 36.9603857,4.26208416 L36.9603857,3.65877095 C36.9603857,3.30306026 37.2270065,3.13479516 37.5104488,3.13479516 C37.7770698,3.13479516 38.0445317,3.30306026 38.0445317,3.65877095 L38.0445317,10.5341005 C38.0445317,10.8732462 37.8376271,11.0728975 37.4944685,11.0728975 C37.1529918,11.0728975 36.9898233,10.8732462 36.9898233,10.5341005 L36.9898233,9.79390838 L36.9898233,9.79390838 Z" id="Fill-17"></path>
                                <path d="M40.6123347,4.38326991 C41.0867011,3.34839593 41.9773999,3.02407148 42.8252039,3.02407148 C43.1649983,3.02407148 43.3887243,3.20890155 43.3887243,3.56374039 C43.3887243,3.90462979 43.1649983,4.09207538 42.8252039,4.09207538 C41.2936057,4.09207538 40.6400901,5.40245075 40.6400901,6.96565972 L40.6400901,10.5341005 C40.6400901,10.8592968 40.3886087,11.0728975 40.1060074,11.0728975 C39.7796701,11.0728975 39.5559441,10.8592968 39.5559441,10.5341005 L39.5559441,3.66574567 C39.5559441,3.32485625 39.8250882,3.14089804 40.1060074,3.14089804 C40.3591711,3.14089804 40.6123347,3.31003497 40.6123347,3.66574567 L40.6123347,4.38326991" id="Fill-18"></path>
                                <path d="M49.8675277,7.6753374 L49.8675277,6.45650521 C49.8675277,5.09556311 48.8716945,4.05807362 47.5217685,4.05807362 C45.9775542,4.05807362 44.758836,5.26644373 44.758836,7.08946098 C44.758836,8.90899087 45.9775542,10.1191047 47.5217685,10.1191047 C48.8716945,10.1191047 49.8675277,9.19059516 49.8675277,7.6753374 L49.8675277,7.6753374 Z M49.8969653,9.79390838 C49.39232,10.7485731 48.3510688,11.1531068 47.5343847,11.1531068 C45.3955301,11.1531068 43.6595506,9.48440521 43.6595506,7.08946098 C43.6595506,4.69277307 45.3955301,3.02407148 47.5343847,3.02407148 C48.5318999,3.02407148 49.4225987,3.44342649 49.8675277,4.26208416 L49.8675277,1.21587552 C49.8675277,0.861036675 50.1349896,0.691027893 50.4159088,0.691027893 C50.6842117,0.691027893 50.9516736,0.861036675 50.9516736,1.21587552 L50.9516736,10.5341005 C50.9516736,10.8732462 50.7430871,11.0728975 50.4016104,11.0728975 C50.0592927,11.0728975 49.8969653,10.8732462 49.8969653,10.5341005 L49.8969653,9.79390838 L49.8969653,9.79390838 Z" id="Fill-19"></path>
                                <path d="M52.0854432,9.16008077 C52.0854432,8.84970576 52.3688856,8.6343613 52.6498048,8.6343613 C52.8735308,8.6343613 53.0821175,8.77298385 53.1426749,9.0798715 C53.2747238,9.77821526 54.4471827,10.1496191 55.5313288,10.1496191 C56.2605412,10.1496191 57.8198948,9.73026407 57.8198948,8.66487569 C57.8198948,6.57769095 52.160299,8.84970576 52.160299,5.38762948 C52.160299,3.73374918 53.9728163,3.02407148 55.398439,3.02407148 C56.5414603,3.02407148 58.1765108,3.20890155 58.6508772,4.61779484 C58.6660165,4.69277307 58.6786327,4.75554554 58.6786327,4.81831802 C58.6786327,5.12782118 58.3817331,5.32747253 58.0991319,5.32747253 C57.9065256,5.32747253 57.7147604,5.23418566 57.6407457,5.01709752 C57.3270247,4.12258977 56.0654117,4.02843107 55.398439,4.02843107 C54.5380189,4.02843107 53.2461272,4.4486579 53.2461272,5.40245075 C53.2461272,7.4286067 58.9023588,5.20279942 58.9023588,8.66487569 C58.9023588,10.6125661 56.7635041,11.1531068 55.5313288,11.1531068 C54.2991535,11.1531068 52.4580396,10.8139611 52.1014237,9.28388204 C52.0854432,9.23505899 52.0854432,9.2045446 52.0854432,9.16008077" id="Fill-20"></path>
                            </g>
                            <rect id="Rectangle-2" fill="#C79339" fill-rule="nonzero" x="5.90425532" y="28.384075" width="14.1702128" height="14.1920374" rx="2.36780545"></rect>
                            <g id="Moon" transform="translate(8.265957, 30.749415)" fill-rule="nonzero">
                                <path d="M8.49642253,7.50807945 C7.64125903,8.65160518 6.28415174,9.39194488 4.7527584,9.39194488 C2.16248055,9.39194488 0.0633020366,7.2866767 0.0633020366,4.69043824 C0.0633020366,3.15227182 0.803824053,1.7912276 1.94094363,0.933583299 C2.50717961,0.506314851 3.17101577,0.202565827 3.8968203,0.0697241814 C3.84492178,0.349390802 3.81471221,0.634495384 3.81471221,0.930475892 C3.81471221,0.969318478 3.81858524,1.00816106 3.82013444,1.05166476 C3.82400747,1.21091936 3.83717574,1.37017396 3.85576625,1.52476746 C4.12455406,3.64479581 5.79460162,5.31735759 7.90617381,5.58770198 C8.06186933,5.60712327 8.21988868,5.6179992 8.38100644,5.62266031 C8.42051127,5.62421401 8.46001611,5.63042882 8.50184476,5.63042882 C8.79464531,5.63042882 9.0789252,5.60090846 9.35855747,5.54808254 C9.22300165,6.2728852 8.92013126,6.93787028 8.49642253,7.50807945" id="Fill-3" fill="#FFFFFF"></path>
                                <path d="M1.44168966,4.81020353 C1.44168966,6.70503228 2.97408997,8.24187804 4.86485144,8.24187804 C4.99773485,8.24187804 5.12991146,8.23195377 5.25996757,8.21706734 C3.26459575,8.0008598 1.68130392,6.41297487 1.46784225,4.41110566 C1.45229206,4.54295682 1.44168966,4.67409911 1.44168966,4.81020353 Z" id="Fill-1" fill="#C79339"></path>
                            </g>
                            <rect id="Rectangle-2" fill="#C79339" fill-rule="nonzero" x="25.9787234" y="28.384075" width="14.1702128" height="14.1920374" rx="2.36780545"></rect>
                            <g id="Moon" transform="translate(28.340426, 30.749415)" fill-rule="nonzero">
                                <path d="M8.49642253,7.50807945 C7.64125903,8.65160518 6.28415174,9.39194488 4.7527584,9.39194488 C2.16248055,9.39194488 0.0633020366,7.2866767 0.0633020366,4.69043824 C0.0633020366,3.15227182 0.803824053,1.7912276 1.94094363,0.933583299 C2.50717961,0.506314851 3.17101577,0.202565827 3.8968203,0.0697241814 C3.84492178,0.349390802 3.81471221,0.634495384 3.81471221,0.930475892 C3.81471221,0.969318478 3.81858524,1.00816106 3.82013444,1.05166476 C3.82400747,1.21091936 3.83717574,1.37017396 3.85576625,1.52476746 C4.12455406,3.64479581 5.79460162,5.31735759 7.90617381,5.58770198 C8.06186933,5.60712327 8.21988868,5.6179992 8.38100644,5.62266031 C8.42051127,5.62421401 8.46001611,5.63042882 8.50184476,5.63042882 C8.79464531,5.63042882 9.0789252,5.60090846 9.35855747,5.54808254 C9.22300165,6.2728852 8.92013126,6.93787028 8.49642253,7.50807945" id="Fill-3" fill="#FFFFFF"></path>
                                <path d="M1.44168966,4.81020353 C1.44168966,6.70503228 2.97408997,8.24187804 4.86485144,8.24187804 C4.99773486,8.24187804 5.12991146,8.23195377 5.25996757,8.21706734 C3.26459575,8.0008598 1.68130392,6.41297487 1.46784225,4.41110566 C1.45229206,4.54295682 1.44168966,4.67409911 1.44168966,4.81020353 Z" id="Fill-1" fill="#C79339"></path>
                            </g>
                            <rect id="Rectangle-2" fill="#C79339" fill-rule="nonzero" x="47.2340426" y="28.384075" width="14.1702128" height="14.1920374" rx="2.36780545"></rect>
                            <g id="Moon" transform="translate(49.595745, 30.749415)" fill-rule="nonzero">
                                <path d="M8.49642253,7.50807945 C7.64125903,8.65160518 6.28415174,9.39194488 4.7527584,9.39194488 C2.16248055,9.39194488 0.0633020366,7.2866767 0.0633020366,4.69043824 C0.0633020366,3.15227182 0.803824053,1.7912276 1.94094363,0.933583299 C2.50717961,0.506314851 3.17101577,0.202565827 3.8968203,0.0697241814 C3.84492178,0.349390802 3.81471221,0.634495384 3.81471221,0.930475892 C3.81471221,0.969318478 3.81858524,1.00816106 3.82013444,1.05166476 C3.82400747,1.21091936 3.83717574,1.37017396 3.85576625,1.52476746 C4.12455406,3.64479581 5.79460162,5.31735759 7.90617381,5.58770198 C8.06186933,5.60712327 8.21988868,5.6179992 8.38100644,5.62266031 C8.42051127,5.62421401 8.46001611,5.63042882 8.50184476,5.63042882 C8.79464531,5.63042882 9.0789252,5.60090846 9.35855747,5.54808254 C9.22300165,6.2728852 8.92013126,6.93787028 8.49642253,7.50807945" id="Fill-3" fill="#FFFFFF"></path>
                                <path d="M1.44168966,4.81020353 C1.44168966,6.70503228 2.97408997,8.24187804 4.86485144,8.24187804 C4.99773486,8.24187804 5.12991146,8.23195377 5.25996757,8.21706734 C3.26459575,8.0008598 1.68130392,6.41297487 1.46784225,4.41110566 C1.45229206,4.54295682 1.44168966,4.67409911 1.44168966,4.81020353 Z" id="Fill-1" fill="#C79339"></path>
                            </g>
                            <rect id="Rectangle-2" fill="#C79339" fill-rule="nonzero" x="67.3085106" y="28.384075" width="14.1702128" height="14.1920374" rx="2.36780545"></rect>
                            <g id="Moon" transform="translate(69.670212, 30.749415)" fill-rule="nonzero">
                                <path d="M8.49642253,7.50807945 C7.64125903,8.65160518 6.28415174,9.39194488 4.7527584,9.39194488 C2.16248055,9.39194488 0.0633020366,7.2866767 0.0633020366,4.69043824 C0.0633020366,3.15227182 0.803824053,1.7912276 1.94094363,0.933583299 C2.50717961,0.506314851 3.17101577,0.202565827 3.8968203,0.0697241814 C3.84492179,0.349390802 3.81471221,0.634495384 3.81471221,0.930475892 C3.81471221,0.969318478 3.81858524,1.00816106 3.82013444,1.05166476 C3.82400747,1.21091936 3.83717574,1.37017396 3.85576625,1.52476746 C4.12455406,3.64479581 5.79460162,5.31735759 7.90617381,5.58770198 C8.06186933,5.60712327 8.21988868,5.6179992 8.38100644,5.62266031 C8.42051127,5.62421401 8.46001611,5.63042882 8.50184476,5.63042882 C8.79464531,5.63042882 9.0789252,5.60090846 9.35855747,5.54808254 C9.22300166,6.2728852 8.92013126,6.93787028 8.49642253,7.50807945" id="Fill-3" fill="#FFFFFF"></path>
                                <path d="M1.44168966,4.81020353 C1.44168966,6.70503228 2.97408997,8.24187804 4.86485144,8.24187804 C4.99773486,8.24187804 5.12991146,8.23195377 5.25996757,8.21706734 C3.26459575,8.0008598 1.68130392,6.41297487 1.46784225,4.41110566 C1.45229206,4.54295682 1.44168966,4.67409911 1.44168966,4.81020353 Z" id="Fill-1" fill="#C79339"></path>
                            </g>
                            <rect id="Rectangle-2" fill="#C79339" fill-rule="nonzero" x="88.5638298" y="28.384075" width="14.1702128" height="14.1920374" rx="2.36780545"></rect>
                            <g id="Moon" transform="translate(90.925532, 30.749415)" fill-rule="nonzero">
                                <path d="M8.49642253,7.50807945 C7.64125903,8.65160518 6.28415174,9.39194488 4.7527584,9.39194488 C2.16248055,9.39194488 0.0633020366,7.2866767 0.0633020366,4.69043824 C0.0633020366,3.15227182 0.803824053,1.7912276 1.94094363,0.933583299 C2.50717961,0.506314851 3.17101577,0.202565827 3.8968203,0.0697241814 C3.84492179,0.349390802 3.81471221,0.634495384 3.81471221,0.930475892 C3.81471221,0.969318478 3.81858524,1.00816106 3.82013444,1.05166476 C3.82400747,1.21091936 3.83717574,1.37017396 3.85576625,1.52476746 C4.12455406,3.64479581 5.79460162,5.31735759 7.90617381,5.58770198 C8.06186933,5.60712327 8.21988868,5.6179992 8.38100644,5.62266031 C8.42051127,5.62421401 8.46001611,5.63042882 8.50184476,5.63042882 C8.79464531,5.63042882 9.0789252,5.60090846 9.35855747,5.54808254 C9.22300166,6.2728852 8.92013126,6.93787028 8.49642253,7.50807945" id="Fill-3" fill="#FFFFFF"></path>
                                <path d="M1.44168966,4.81020353 C1.44168966,6.70503228 2.97408997,8.24187804 4.86485144,8.24187804 C4.99773486,8.24187804 5.12991146,8.23195377 5.25996757,8.21706734 C3.26459575,8.0008598 1.68130392,6.41297487 1.46784225,4.41110566 C1.45229206,4.54295682 1.44168966,4.67409911 1.44168966,4.81020353 Z" id="Fill-1" fill="#C79339"></path>
                            </g>
                            <rect id="Rectangle-2" stroke="#C79339" stroke-width="2.36780545" x="7.08943926" y="49.6659093" width="11.7998449" height="11.8391416" rx="2.36780545"></rect>
                            <rect id="Rectangle-2" stroke="#C79339" stroke-width="2.36780545" x="27.1639073" y="49.6659093" width="11.7998449" height="11.8391416" rx="2.36780545"></rect>
                            <rect id="Rectangle-2" stroke="#C79339" stroke-width="2.36780545" x="48.4192265" y="49.6659093" width="11.7998449" height="11.8391416" rx="2.36780545"></rect>
                            <rect id="Rectangle-2" stroke="#C79339" stroke-width="2.36780545" x="68.4936946" y="49.6659093" width="11.7998449" height="11.8391416" rx="2.36780545"></rect>
                            <rect id="Rectangle-2" stroke="#C79339" stroke-width="2.36780545" x="89.7490137" y="49.6659093" width="11.7998449" height="11.8391416" rx="2.36780545"></rect>
                        </g>
                        <g id="Silver" transform="translate(58.803571, 40.662338) rotate(-4.000000) translate(-58.803571, -40.662338) translate(2.642857, 3.935065)">
                            <rect id="Rectangle" fill-opacity="0.19" fill="#000000" fill-rule="nonzero" x="3.54699249" y="3.5542522" width="108.774436" height="69.9002933" rx="4.73561091"></rect>
                            <rect id="Rectangle" fill="#DCDCDC" fill-rule="nonzero" x="0" y="-6.25277584e-15" width="108.774436" height="69.9002933" rx="4.73561091"></rect>
                            <g id="Logo" transform="translate(24.828948, 7.108505)" fill-rule="nonzero" fill="#5A5A5A">
                                <path d="M1.95559593,6.10716219 L4.95778691,6.10716219 C6.87531533,6.10716219 7.72418167,5.19623318 7.72418167,4.06521393 C7.72418167,2.76476014 6.72710058,1.68264982 4.95778691,1.68264982 L1.95559593,1.68264982 L1.95559593,6.10716219 L1.95559593,6.10716219 Z M1.95559593,7.08359426 L1.95559593,10.6321126 C1.95559593,10.9884491 1.67264049,11.172731 1.40568549,11.172731 C1.13620411,11.172731 0.869249125,11.0015497 0.869249125,10.6478333 L0.869249125,1.23198887 C0.869249125,0.907093767 1.09325552,0.692243778 1.42000169,0.692243778 L4.94347071,0.692243778 C7.51449148,0.692243778 8.82400255,2.1927002 8.82400255,4.0058245 C8.82400255,5.5674171 8.00545287,6.69843635 6.17719014,7.02245808 L9.02442933,10.2469547 C9.15917001,10.3849477 9.21896119,10.5220674 9.21896119,10.6618073 C9.21896119,10.9552609 8.96548027,11.172731 8.68252483,11.172731 C8.54862627,11.172731 8.39956938,11.1264422 8.28167128,10.985829 L4.83904668,7.08359426 L1.95559593,7.08359426 L1.95559593,7.08359426 Z" id="Fill-14"></path>
                                <path d="M13.379922,4.06521393 C11.5381853,4.06521393 10.5705787,5.52200166 10.5705787,7.10193511 L16.1311585,6.63817354 C15.9534693,5.22767464 14.8831229,4.06521393 13.379922,4.06521393 L13.379922,4.06521393 Z M13.3209731,10.1369095 C14.0645732,10.1369095 14.8982813,9.9037187 15.4768241,9.31593804 C15.6410393,9.16047749 15.7606216,9.11244191 15.9383109,9.11244191 C16.2069502,9.11244191 16.4149562,9.31593804 16.4149562,9.59017746 C16.4149562,9.73166403 16.3694812,9.87053049 16.2515831,10.0120171 C15.5517735,10.8015471 14.4233203,11.172731 13.379922,11.172731 C11.1945966,11.172731 9.49854812,9.54650876 9.49854812,7.11765584 C9.49854812,5.13684375 10.7634263,3.02939244 13.3504476,3.02939244 C15.3740843,3.02939244 17.0086573,4.48618016 17.1863466,6.79276073 L17.1863466,6.86874427 C17.1863466,7.25390218 16.9648666,7.51940786 16.5176959,7.54910256 L10.7044773,8.04430559 C11.0472239,9.22074028 11.9836717,10.1369095 13.3209731,10.1369095 L13.3209731,10.1369095 Z" id="Fill-15"></path>
                                <path d="M17.6242537,3.81542898 C17.5939371,3.75341943 17.5939371,3.69053651 17.5939371,3.62940033 C17.5939371,3.30450522 17.9063671,3.13594405 18.2036387,3.13594405 C18.3973284,3.13594405 18.5750178,3.21018084 18.6491252,3.38136213 L21.1157219,9.25654861 L23.4661049,4.16914542 C23.584845,3.92110722 23.7616922,3.78398752 23.9705403,3.78398752 C24.1793883,3.78398752 24.3713938,3.92110722 24.4918183,4.16914542 L26.8699915,9.28624333 L29.2793234,3.44337169 C29.3660627,3.23987556 29.5454362,3.13419731 29.7542843,3.13419731 C30.0220815,3.13419731 30.3185109,3.3184792 30.3185109,3.61455298 C30.3185109,3.67394241 30.3033527,3.73507857 30.2755624,3.8145556 L27.3912695,10.8522028 C27.3028459,11.0522054 27.1066297,11.1605038 26.9146243,11.1605038 C26.6906179,11.1605038 26.4817699,11.0522054 26.3933462,10.8522028 L24.0160152,5.62593315 L21.5628925,10.8382288 C21.4736268,11.0382314 21.2353043,11.1639973 21.0264562,11.1639973 C20.8184503,11.1639973 20.6399188,11.0687995 20.5514953,10.8382288 L17.6242537,3.81542898" id="Fill-16"></path>
                                <path d="M37.0067019,7.6888424 L37.0067019,6.46786562 C37.0067019,5.10452892 36.0104629,4.06521393 34.6580032,4.06521393 C33.1118538,4.06521393 31.8764501,5.27571021 31.8764501,7.10193511 C31.8764501,8.92466652 33.1118538,10.1369095 34.6580032,10.1369095 C36.0104629,10.1369095 37.0067019,9.2067663 37.0067019,7.6888424 L37.0067019,7.6888424 Z M37.0361765,9.81114106 C36.531741,10.7674855 35.490027,11.172731 34.6731616,11.172731 C32.5316268,11.172731 30.7926297,9.50109332 30.7926297,7.10193511 C30.7926297,4.70103015 32.5316268,3.02939244 34.6731616,3.02939244 C35.6677163,3.02939244 36.5595313,3.44948529 37.0067019,4.26958343 L37.0067019,3.66520866 C37.0067019,3.3088721 37.2736569,3.14031093 37.5574544,3.14031093 C37.8244094,3.14031093 38.0922066,3.3088721 38.0922066,3.66520866 L38.0922066,10.5526355 C38.0922066,10.892378 37.8850428,11.0923806 37.541454,11.0923806 C37.1995495,11.0923806 37.0361765,10.892378 37.0361765,10.5526355 L37.0361765,9.81114106 L37.0361765,9.81114106 Z" id="Fill-17"></path>
                                <path d="M40.6632273,4.39098241 C41.1381882,3.35428753 42.0300032,3.02939244 42.8788696,3.02939244 C43.2190898,3.02939244 43.4430962,3.21454771 43.4430962,3.5700109 C43.4430962,3.91150011 43.2190898,4.09927551 42.8788696,4.09927551 C41.3453522,4.09927551 40.6910176,5.41195653 40.6910176,6.977916 L40.6910176,10.5526355 C40.6910176,10.878404 40.439221,11.0923806 40.1562654,11.0923806 C39.8295194,11.0923806 39.6055129,10.878404 39.6055129,10.5526355 L39.6055129,3.67219566 C39.6055129,3.33070645 39.8749944,3.14642455 40.1562654,3.14642455 C40.4097464,3.14642455 40.6632273,3.31585909 40.6632273,3.67219566 L40.6632273,4.39098241" id="Fill-18"></path>
                                <path d="M49.9300183,7.6888424 L49.9300183,6.46786562 C49.9300183,5.10452892 48.9329371,4.06521393 47.5813196,4.06521393 C46.0351702,4.06521393 44.8149249,5.27571021 44.8149249,7.10193511 C44.8149249,8.92466652 46.0351702,10.1369095 47.5813196,10.1369095 C48.9329371,10.1369095 49.9300183,9.2067663 49.9300183,7.6888424 L49.9300183,7.6888424 Z M49.9594927,9.81114106 C49.4542152,10.7674855 48.4116591,11.172731 47.5939515,11.172731 C45.4524168,11.172731 43.7142618,9.50109332 43.7142618,7.10193511 C43.7142618,4.70103015 45.4524168,3.02939244 47.5939515,3.02939244 C48.5927168,3.02939244 49.4845318,3.44948529 49.9300183,4.26958343 L49.9300183,1.21801489 C49.9300183,0.862551695 50.1978153,0.692243778 50.4790865,0.692243778 C50.7477258,0.692243778 51.015523,0.862551695 51.015523,1.21801489 L51.015523,10.5526355 C51.015523,10.892378 50.8066749,11.0923806 50.4647703,11.0923806 C50.1220237,11.0923806 49.9594927,10.892378 49.9594927,10.5526355 L49.9594927,9.81114106 L49.9594927,9.81114106 Z" id="Fill-19"></path>
                                <path d="M52.1507132,9.17619821 C52.1507132,8.86527709 52.4345108,8.64955373 52.715782,8.64955373 C52.9397884,8.64955373 53.1486364,8.78842018 53.2092697,9.09584781 C53.3414841,9.79542033 54.5154123,10.1674776 55.600917,10.1674776 C56.3310431,10.1674776 57.8923508,9.74738476 57.8923508,8.68012181 C57.8923508,6.58926461 52.2256627,8.86527709 52.2256627,5.39710918 C52.2256627,3.74031882 54.0404514,3.02939244 55.4678606,3.02939244 C56.6123142,3.02939244 58.2494137,3.21454771 58.7243745,4.62591999 C58.7395329,4.70103015 58.7521648,4.76391308 58.7521648,4.82679599 C58.7521648,5.13684375 58.4548932,5.33684637 58.1719377,5.33684637 C57.9790901,5.33684637 57.7870847,5.24339536 57.7129773,5.02592526 C57.398863,4.12984359 56.1356691,4.03551921 55.4678606,4.03551921 C54.6063623,4.03551921 53.3128516,4.45648545 53.3128516,5.41195653 C53.3128516,7.44167757 58.9761713,5.21195391 58.9761713,8.68012181 C58.9761713,10.6312392 56.8346364,11.172731 55.600917,11.172731 C54.3671976,11.172731 52.5237766,10.8329886 52.1667136,9.30021731 C52.1507132,9.25130837 52.1507132,9.22074028 52.1507132,9.17619821" id="Fill-20"></path>
                            </g>
                            <rect id="Rectangle-2" fill="#5A5A5A" fill-rule="nonzero" x="5.91165413" y="28.4340177" width="14.1879699" height="14.2170088" rx="2.36780545"></rect>
                            <g id="Moon" transform="translate(8.276316, 30.803519)" fill-rule="nonzero">
                                <path d="M8.50706968,7.52129014 C7.65083454,8.66682794 6.29202661,9.40847029 4.75871423,9.40847029 C2.16519043,9.40847029 0.0633813625,7.29949783 0.0633813625,4.6986912 C0.0633813625,3.15781835 0.804831351,1.79437933 1.9433759,0.935225967 C2.51032144,0.507205727 3.17498948,0.202922247 3.90170353,0.0698468634 C3.84973999,0.350005567 3.81949254,0.635611799 3.81949254,0.932113093 C3.81949254,0.971024024 3.82337042,1.00993495 3.82492158,1.0535152 C3.82879946,1.21305001 3.84198424,1.37258483 3.86059804,1.52745034 C4.12972266,3.65120895 5.80186302,5.32671364 7.9160813,5.59753371 C8.07197193,5.61698918 8.2301893,5.62788424 8.39150895,5.63255355 C8.43106329,5.63410998 8.47061764,5.64033574 8.5124987,5.64033574 C8.80566617,5.64033574 9.0903023,5.61076342 9.37028499,5.55784457 C9.23455931,6.28392254 8.93130937,6.95007768 8.50706968,7.52129014" id="Fill-3" fill="#FFFFFF"></path>
                                <path d="M1.44349629,4.81866723 C1.44349629,6.71682998 2.9778169,8.25637988 4.87094775,8.25637988 C5.00399769,8.25637988 5.13633992,8.24643814 5.266559,8.23152553 C3.26868673,8.01493756 1.6834108,6.4242587 1.46968165,4.41886713 C1.45411197,4.55095029 1.44349629,4.68232333 1.44349629,4.81866723 Z" id="Fill-1" fill="#5A5A5A"></path>
                            </g>
                            <rect id="Rectangle-2" fill="#5A5A5A" fill-rule="nonzero" x="5.91165413" y="48.5747801" width="14.1879699" height="14.2170088" rx="2.36780545"></rect>
                            <g id="Moon" transform="translate(8.276316, 50.944282)" fill-rule="nonzero">
                                <path d="M8.50706968,7.52129014 C7.65083454,8.66682794 6.29202661,9.40847029 4.75871423,9.40847029 C2.16519043,9.40847029 0.0633813625,7.29949783 0.0633813625,4.6986912 C0.0633813625,3.15781835 0.804831351,1.79437933 1.9433759,0.935225967 C2.51032144,0.507205727 3.17498948,0.202922247 3.90170353,0.0698468634 C3.84973999,0.350005567 3.81949254,0.635611799 3.81949254,0.932113093 C3.81949254,0.971024024 3.82337042,1.00993495 3.82492158,1.0535152 C3.82879946,1.21305001 3.84198424,1.37258483 3.86059804,1.52745034 C4.12972266,3.65120895 5.80186302,5.32671364 7.9160813,5.59753371 C8.07197193,5.61698918 8.2301893,5.62788424 8.39150895,5.63255355 C8.43106329,5.63410998 8.47061764,5.64033574 8.5124987,5.64033574 C8.80566617,5.64033574 9.0903023,5.61076342 9.37028499,5.55784457 C9.23455931,6.28392254 8.93130937,6.95007768 8.50706968,7.52129014" id="Fill-3" fill="#FFFFFF"></path>
                                <path d="M1.44349629,4.81866723 C1.44349629,6.71682998 2.9778169,8.25637988 4.87094775,8.25637988 C5.00399769,8.25637988 5.13633992,8.24643814 5.266559,8.23152553 C3.26868673,8.01493756 1.6834108,6.4242587 1.46968165,4.41886713 C1.45411197,4.55095029 1.44349629,4.68232333 1.44349629,4.81866723 Z" id="Fill-1" fill="#5A5A5A"></path>
                            </g>
                            <rect id="Rectangle-2" fill="#5A5A5A" fill-rule="nonzero" x="26.0112782" y="28.4340177" width="14.1879699" height="14.2170088" rx="2.36780545"></rect>
                            <g id="Moon" transform="translate(28.375940, 30.803519)" fill-rule="nonzero">
                                <path d="M8.50706968,7.52129014 C7.65083454,8.66682794 6.29202661,9.40847029 4.75871423,9.40847029 C2.16519043,9.40847029 0.0633813625,7.29949783 0.0633813625,4.6986912 C0.0633813625,3.15781835 0.804831351,1.79437933 1.9433759,0.935225967 C2.51032144,0.507205727 3.17498948,0.202922247 3.90170353,0.0698468634 C3.84973999,0.350005567 3.81949254,0.635611799 3.81949254,0.932113093 C3.81949254,0.971024024 3.82337042,1.00993495 3.82492158,1.0535152 C3.82879946,1.21305001 3.84198424,1.37258483 3.86059804,1.52745034 C4.12972266,3.65120895 5.80186302,5.32671364 7.9160813,5.59753371 C8.07197193,5.61698918 8.2301893,5.62788424 8.39150895,5.63255355 C8.43106329,5.63410998 8.47061764,5.64033574 8.5124987,5.64033574 C8.80566617,5.64033574 9.0903023,5.61076342 9.37028499,5.55784457 C9.23455931,6.28392254 8.93130937,6.95007768 8.50706968,7.52129014" id="Fill-3" fill="#FFFFFF"></path>
                                <path d="M1.44349629,4.81866723 C1.44349629,6.71682998 2.9778169,8.25637988 4.87094775,8.25637988 C5.00399769,8.25637988 5.13633992,8.24643814 5.266559,8.23152553 C3.26868673,8.01493756 1.6834108,6.4242587 1.46968165,4.41886713 C1.45411197,4.55095029 1.44349629,4.68232333 1.44349629,4.81866723 Z" id="Fill-1" fill="#5A5A5A"></path>
                            </g>
                            <rect id="Rectangle-2" fill="#5A5A5A" fill-rule="nonzero" x="47.2932331" y="28.4340177" width="14.1879699" height="14.2170088" rx="2.36780545"></rect>
                            <g id="Moon" transform="translate(49.657894, 30.803519)" fill-rule="nonzero">
                                <path d="M8.50706968,7.52129014 C7.65083454,8.66682794 6.29202661,9.40847029 4.75871423,9.40847029 C2.16519043,9.40847029 0.0633813625,7.29949783 0.0633813625,4.6986912 C0.0633813625,3.15781835 0.804831351,1.79437933 1.9433759,0.935225967 C2.51032144,0.507205727 3.17498948,0.202922247 3.90170353,0.0698468634 C3.84973999,0.350005567 3.81949254,0.635611799 3.81949254,0.932113093 C3.81949254,0.971024024 3.82337042,1.00993495 3.82492158,1.0535152 C3.82879946,1.21305001 3.84198424,1.37258483 3.86059804,1.52745034 C4.12972266,3.65120895 5.80186302,5.32671364 7.9160813,5.59753371 C8.07197193,5.61698918 8.2301893,5.62788424 8.39150895,5.63255355 C8.43106329,5.63410998 8.47061764,5.64033574 8.5124987,5.64033574 C8.80566617,5.64033574 9.0903023,5.61076342 9.37028499,5.55784457 C9.23455931,6.28392254 8.93130937,6.95007768 8.50706968,7.52129014" id="Fill-3" fill="#FFFFFF"></path>
                                <path d="M1.44349629,4.81866723 C1.44349629,6.71682998 2.9778169,8.25637988 4.87094775,8.25637988 C5.00399769,8.25637988 5.13633992,8.24643814 5.266559,8.23152553 C3.26868673,8.01493756 1.6834108,6.4242587 1.46968165,4.41886713 C1.45411197,4.55095029 1.44349629,4.68232333 1.44349629,4.81866723 Z" id="Fill-1" fill="#5A5A5A"></path>
                            </g>
                            <rect id="Rectangle-2" stroke="#5A5A5A" stroke-width="2.36780545" x="68.5780411" y="29.6104655" width="11.8176021" height="11.8641129" rx="2.36780545"></rect>
                            <rect id="Rectangle-2" stroke="#5A5A5A" stroke-width="2.36780545" x="89.859996" y="29.6104655" width="11.8176021" height="11.8641129" rx="2.36780545"></rect>
                            <rect id="Rectangle-2" stroke="#5A5A5A" stroke-width="2.36780545" x="27.1964622" y="49.751228" width="11.8176021" height="11.8641129" rx="2.36780545"></rect>
                            <rect id="Rectangle-2" stroke="#5A5A5A" stroke-width="2.36780545" x="48.478417" y="49.751228" width="11.817602" height="11.8641129" rx="2.36780545"></rect>
                            <rect id="Rectangle-2" stroke="#5A5A5A" stroke-width="2.36780545" x="68.5780411" y="49.751228" width="11.8176021" height="11.8641129" rx="2.36780545"></rect>
                            <rect id="Rectangle-2" stroke="#5A5A5A" stroke-width="2.36780545" x="89.859996" y="49.751228" width="11.8176021" height="11.8641129" rx="2.36780545"></rect>
                        </g>
                        <g id="Plum" transform="translate(90.517857, 59.681818) rotate(3.000000) translate(-90.517857, -59.681818) translate(33.035714, 22.298701)">
                            <rect id="Rectangle" fill-opacity="0.1" fill="#000000" fill-rule="nonzero" x="3.51931487" y="5.84111201" width="111.444971" height="68.9251218" rx="4.73561091"></rect>
                            <rect id="Rectangle" fill="#F2EAF0" fill-rule="nonzero" x="0" y="-6.25277584e-15" width="107.925656" height="68.9251218" rx="4.73561091"></rect>
                            <g id="Logo" transform="translate(24.635204, 7.009334)" fill-rule="nonzero" fill="#990066">
                                <path d="M1.94033617,6.02196183 L4.9191007,6.02196183 C6.82166641,6.02196183 7.66390895,5.12374108 7.66390895,4.00850057 C7.66390895,2.72618926 6.67460819,1.65917536 4.9191007,1.65917536 L1.94033617,1.65917536 L1.94033617,6.02196183 L1.94033617,6.02196183 Z M1.94033617,6.98477179 L1.94033617,10.4837851 C1.94033617,10.8351505 1.65958867,11.0168615 1.39471676,11.0168615 C1.12733818,11.0168615 0.862466268,10.8480683 0.862466268,10.4992865 L0.862466268,1.21480153 C0.862466268,0.894438998 1.08472471,0.682586359 1.40892124,0.682586359 L4.90489621,0.682586359 C7.45585499,0.682586359 8.75514778,2.16211008 8.75514778,3.94993966 C8.75514778,5.48974665 7.94298535,6.60498719 6.12898878,6.92448851 L8.95401061,10.1040005 C9.0876999,10.2400685 9.14702452,10.3752752 9.14702452,10.5130656 C9.14702452,10.8024253 8.89552154,11.0168615 8.61477404,11.0168615 C8.4819203,11.0168615 8.33402652,10.9712184 8.21704839,10.8325669 L4.801287,6.98477179 L1.94033617,6.98477179 L1.94033617,6.98477179 Z" id="Fill-14"></path>
                                <path d="M13.2755169,4.00850057 C11.4481514,4.00850057 10.4880952,5.4449648 10.4880952,7.00285677 L16.0052852,6.54556509 C15.8289824,5.15474391 14.7669881,4.00850057 13.2755169,4.00850057 L13.2755169,4.00850057 Z M13.2170278,9.9954906 C13.9548256,9.9954906 14.7820282,9.76555298 15.3560565,9.18597239 C15.5189903,9.03268064 15.6376396,8.98531522 15.8139423,8.98531522 C16.0804854,8.98531522 16.2868683,9.18597239 16.2868683,9.45638592 C16.2868683,9.59589864 16.2417481,9.73282777 16.1247699,9.87234049 C15.4304212,10.6508559 14.3107734,11.0168615 13.2755169,11.0168615 C11.1072438,11.0168615 9.4244298,9.41332643 9.4244298,7.01835819 C9.4244298,5.0651802 10.679438,2.98712971 13.2462723,2.98712971 C15.2541184,2.98712971 16.8759367,4.42359395 17.0522394,6.69799566 L17.0522394,6.77291915 C17.0522394,7.15270376 16.8324877,7.4145054 16.3888063,7.44378584 L10.620949,7.93208035 C10.9610211,9.09210272 11.8901617,9.9954906 13.2170278,9.9954906 L13.2170278,9.9954906 Z" id="Fill-15"></path>
                                <path d="M17.4867296,3.76220034 C17.4566496,3.70105588 17.4566496,3.63905023 17.4566496,3.57876696 C17.4566496,3.25840443 17.7666415,3.09219484 18.0615936,3.09219484 C18.2537719,3.09219484 18.4300746,3.16539596 18.5036038,3.33418911 L20.9509533,9.12741149 L23.2829959,4.11098212 C23.4008096,3.86640428 23.5762768,3.73119751 23.7834952,3.73119751 C23.9907136,3.73119751 24.1812209,3.86640428 24.3007057,4.11098212 L26.6603216,9.15669194 L29.0508533,3.39533357 C29.1369158,3.19467639 29.3148896,3.09047245 29.522108,3.09047245 C29.7878154,3.09047245 30.081932,3.27218347 30.081932,3.56412673 C30.081932,3.62268762 30.0668919,3.6829709 30.0393184,3.76133915 L27.177532,10.7008049 C27.0897984,10.8980173 26.8951134,11.0048048 26.7046062,11.0048048 C26.4823478,11.0048048 26.2751294,10.8980173 26.1873958,10.7008049 L23.8286154,5.54744637 L21.3946347,10.6870259 C21.3060656,10.8842383 21.0696026,11.0082496 20.8623842,11.0082496 C20.6560014,11.0082496 20.4788631,10.9143799 20.3911295,10.6870259 L17.4867296,3.76220034" id="Fill-16"></path>
                                <path d="M36.7179341,7.58157618 L36.7179341,6.37763313 C36.7179341,5.03331618 35.7294689,4.00850057 34.3875627,4.00850057 C32.8534781,4.00850057 31.6277143,5.20210933 31.6277143,7.00285677 C31.6277143,8.80015945 32.8534781,9.9954906 34.3875627,9.9954906 C35.7294689,9.9954906 36.7179341,9.07832369 36.7179341,7.58157618 L36.7179341,7.58157618 Z M36.7471786,9.67426689 C36.2466793,10.6172695 35.213094,11.0168615 34.4026028,11.0168615 C32.2777785,11.0168615 30.5523512,9.36854458 30.5523512,7.00285677 C30.5523512,4.63544659 32.2777785,2.98712971 34.4026028,2.98712971 C35.3893967,2.98712971 36.2742528,3.4013619 36.7179341,4.21001893 L36.7179341,3.61407573 C36.7179341,3.26271037 36.982806,3.09650079 37.264389,3.09650079 C37.5292609,3.09650079 37.7949685,3.26271037 37.7949685,3.61407573 L37.7949685,10.4054169 C37.7949685,10.7404196 37.5894212,10.937632 37.2485135,10.937632 C36.9092769,10.937632 36.7471786,10.7404196 36.7471786,10.4054169 L36.7471786,9.67426689 L36.7471786,9.67426689 Z" id="Fill-17"></path>
                                <path d="M40.3459273,4.32972428 C40.817182,3.30749224 41.702038,2.98712971 42.5442806,2.98712971 C42.881846,2.98712971 43.1041045,3.1697019 43.1041045,3.52020606 C43.1041045,3.85693119 42.881846,4.04208696 42.5442806,4.04208696 C41.0227293,4.04208696 40.3735006,5.33645491 40.3735006,6.88056785 L40.3735006,10.4054169 C40.3735006,10.7266406 40.1236688,10.937632 39.8429213,10.937632 C39.5187248,10.937632 39.2964663,10.7266406 39.2964663,10.4054169 L39.2964663,3.62096524 C39.2964663,3.28424011 39.563845,3.10252911 39.8429213,3.10252911 C40.0944243,3.10252911 40.3459273,3.26959989 40.3459273,3.62096524 L40.3459273,4.32972428" id="Fill-18"></path>
                                <path d="M49.5404083,7.58157618 L49.5404083,6.37763313 C49.5404083,5.03331618 48.5511074,4.00850057 47.2100368,4.00850057 C45.6759521,4.00850057 44.4652285,5.20210933 44.4652285,7.00285677 C44.4652285,8.80015945 45.6759521,9.9954906 47.2100368,9.9954906 C48.5511074,9.9954906 49.5404083,9.07832369 49.5404083,7.58157618 L49.5404083,7.58157618 Z M49.5696528,9.67426689 C49.0683179,10.6172695 48.033897,11.0168615 47.2225701,11.0168615 C45.097746,11.0168615 43.3731542,9.36854458 43.3731542,7.00285677 C43.3731542,4.63544659 45.097746,2.98712971 47.2225701,2.98712971 C48.213542,2.98712971 49.0983981,3.4013619 49.5404083,4.21001893 L49.5404083,1.20102249 C49.5404083,0.850518329 49.8061157,0.682586359 50.0851921,0.682586359 C50.3517352,0.682586359 50.6174426,0.850518329 50.6174426,1.20102249 L50.6174426,10.4054169 C50.6174426,10.7404196 50.4102242,10.937632 50.0709876,10.937632 C49.7309155,10.937632 49.5696528,10.7404196 49.5696528,10.4054169 L49.5696528,9.67426689 L49.5696528,9.67426689 Z" id="Fill-19"></path>
                                <path d="M51.7437749,9.04818205 C51.7437749,8.74159856 52.0253579,8.52888473 52.3044343,8.52888473 C52.5266928,8.52888473 52.7339112,8.66581388 52.7940713,8.96895261 C52.925254,9.65876547 54.090022,10.0256322 55.1670563,10.0256322 C55.8914851,10.0256322 57.4406098,9.61140004 57.4406098,8.55902637 C57.4406098,6.49733849 51.8181395,8.74159856 51.8181395,5.32181469 C51.8181395,3.68813804 53.6187672,2.98712971 55.035038,2.98712971 C56.1705616,2.98712971 57.7948864,3.1697019 58.2661411,4.56138429 C58.2811812,4.63544659 58.2937146,4.69745223 58.2937146,4.75945789 C58.2937146,5.0651802 57.9987626,5.26239261 57.7180151,5.26239261 C57.5266722,5.26239261 57.336165,5.17024533 57.2626359,4.95580912 C56.9509727,4.07222859 55.6976356,3.97922012 55.035038,3.97922012 C54.1802622,3.97922012 52.896845,4.3943135 52.896845,5.33645491 C52.896845,7.33785953 58.5159731,5.1392425 58.5159731,8.55902637 C58.5159731,10.4829239 56.3911488,11.0168615 55.1670563,11.0168615 C53.9429638,11.0168615 52.1139272,10.6818587 51.7596504,9.17047098 C51.7437749,9.12224435 51.7437749,9.09210272 51.7437749,9.04818205" id="Fill-20"></path>
                            </g>
                            <rect id="Rectangle-2" fill="#990066" fill-rule="nonzero" x="5.86552478" y="28.0373377" width="14.0772594" height="14.0186688" rx="2.36780545"></rect>
                            <g id="Moon" transform="translate(8.211735, 30.373782)" fill-rule="nonzero">
                                <path d="M8.44068798,7.41636142 C7.59113415,8.54591796 6.24292917,9.27721373 4.72158142,9.27721373 C2.14829519,9.27721373 0.0628867901,7.19766332 0.0628867901,4.63314027 C0.0628867901,3.11376396 0.798551155,1.76934612 1.9282115,0.922178731 C2.4907331,0.500129754 3.15021465,0.200091301 3.87125807,0.0688724373 C3.81969999,0.345122676 3.78968858,0.626744448 3.78968858,0.919109283 C3.78968858,0.957477371 3.7935362,0.99584546 3.79507525,1.03881772 C3.79892287,1.19612688 3.81200476,1.35343605 3.83047332,1.50614104 C4.09749794,3.60027133 5.75659039,5.25240122 7.85431115,5.51944312 C8.00898535,5.53862717 8.16596813,5.54937023 8.326029,5.5539744 C8.36527468,5.55550912 8.40452037,5.56164802 8.44607464,5.56164802 C8.73695448,5.56164802 9.01936956,5.53248827 9.29716752,5.48030767 C9.16250092,6.1962562 8.86161728,6.85311789 8.44068798,7.41636142" id="Fill-3" fill="#FFFFFF"></path>
                                <path d="M1.43223251,4.75144252 C1.43223251,6.62312421 2.95458064,8.141196 4.83293914,8.141196 C4.96495089,8.141196 5.09626044,8.13139296 5.22546341,8.11668839 C3.24318077,7.90312202 1.67027494,6.33463456 1.45821354,4.35722 C1.44276535,4.48746047 1.43223251,4.61700074 1.43223251,4.75144252 Z" id="Fill-1" fill="#990066"></path>
                            </g>
                            <rect id="Rectangle-2" fill="#990066" fill-rule="nonzero" x="25.808309" y="28.0373377" width="14.0772594" height="14.0186688" rx="2.36780545"></rect>
                            <g id="Moon" transform="translate(28.154518, 30.373782)" fill-rule="nonzero">
                                <path d="M8.44068798,7.41636142 C7.59113415,8.54591796 6.24292917,9.27721373 4.72158142,9.27721373 C2.14829519,9.27721373 0.0628867901,7.19766332 0.0628867901,4.63314027 C0.0628867901,3.11376396 0.798551155,1.76934612 1.9282115,0.922178731 C2.4907331,0.500129754 3.15021465,0.200091301 3.87125807,0.0688724373 C3.8197,0.345122676 3.78968858,0.626744448 3.78968858,0.919109283 C3.78968858,0.957477371 3.7935362,0.99584546 3.79507525,1.03881772 C3.79892287,1.19612688 3.81200476,1.35343605 3.83047332,1.50614104 C4.09749794,3.60027133 5.75659039,5.25240122 7.85431115,5.51944312 C8.00898535,5.53862717 8.16596813,5.54937023 8.326029,5.5539744 C8.36527469,5.55550912 8.40452037,5.56164802 8.44607464,5.56164802 C8.73695449,5.56164802 9.01936957,5.53248827 9.29716752,5.48030767 C9.16250092,6.1962562 8.86161728,6.85311789 8.44068798,7.41636142" id="Fill-3" fill="#FFFFFF"></path>
                                <path d="M1.43223251,4.75144252 C1.43223251,6.62312421 2.95458064,8.141196 4.83293914,8.141196 C4.96495089,8.141196 5.09626044,8.13139296 5.22546341,8.11668839 C3.24318077,7.90312202 1.67027494,6.33463456 1.45821354,4.35722 C1.44276535,4.48746047 1.43223251,4.61700074 1.43223251,4.75144252 Z" id="Fill-1" fill="#990066"></path>
                            </g>
                            <rect id="Rectangle-2" fill="#990066" fill-rule="nonzero" x="46.9241983" y="28.0373377" width="14.0772594" height="14.0186688" rx="2.36780545"></rect>
                            <g id="Moon" transform="translate(49.270408, 30.373782)" fill-rule="nonzero">
                                <path d="M8.44068798,7.41636142 C7.59113415,8.54591796 6.24292917,9.27721373 4.72158142,9.27721373 C2.14829519,9.27721373 0.0628867901,7.19766332 0.0628867901,4.63314027 C0.0628867901,3.11376396 0.798551155,1.76934612 1.9282115,0.922178731 C2.4907331,0.500129754 3.15021465,0.200091301 3.87125807,0.0688724373 C3.81969999,0.345122676 3.78968858,0.626744448 3.78968858,0.919109283 C3.78968858,0.957477371 3.7935362,0.99584546 3.79507525,1.03881772 C3.79892287,1.19612688 3.81200476,1.35343605 3.83047332,1.50614104 C4.09749794,3.60027133 5.75659039,5.25240122 7.85431115,5.51944312 C8.00898535,5.53862717 8.16596813,5.54937023 8.326029,5.5539744 C8.36527468,5.55550912 8.40452037,5.56164802 8.44607464,5.56164802 C8.73695448,5.56164802 9.01936956,5.53248827 9.29716752,5.48030767 C9.16250092,6.1962562 8.86161728,6.85311789 8.44068798,7.41636142" id="Fill-3" fill="#FFFFFF"></path>
                                <path d="M1.43223251,4.75144252 C1.43223251,6.62312421 2.95458064,8.141196 4.83293914,8.141196 C4.96495089,8.141196 5.09626044,8.13139296 5.22546341,8.11668839 C3.24318077,7.90312202 1.67027494,6.33463456 1.45821354,4.35722 C1.44276535,4.48746047 1.43223251,4.61700074 1.43223251,4.75144252 Z" id="Fill-1" fill="#990066"></path>
                            </g>
                            <rect id="Rectangle-2" stroke="#990066" stroke-width="2.36780545" x="68.0521665" y="29.2137857" width="11.7068916" height="11.665773" rx="2.36780545"></rect>
                            <rect id="Rectangle-2" stroke="#990066" stroke-width="2.36780545" x="89.1680556" y="29.2137857" width="11.7068916" height="11.665773" rx="2.36780545"></rect>
                            <rect id="Rectangle-2" stroke="#990066" stroke-width="2.36780545" x="7.05070871" y="49.0735665" width="11.7068916" height="11.665773" rx="2.36780545"></rect>
                            <rect id="Rectangle-2" stroke="#990066" stroke-width="2.36780545" x="26.993493" y="49.0735665" width="11.7068916" height="11.665773" rx="2.36780545"></rect>
                            <rect id="Rectangle-2" stroke="#990066" stroke-width="2.36780545" x="48.1093821" y="49.0735665" width="11.7068916" height="11.665773" rx="2.36780545"></rect>
                            <rect id="Rectangle-2" stroke="#990066" stroke-width="2.36780545" x="68.0521665" y="49.0735665" width="11.7068916" height="11.665773" rx="2.36780545"></rect>
                            <rect id="Rectangle-2" stroke="#990066" stroke-width="2.36780545" x="89.1680556" y="49.0735665" width="11.7068916" height="11.665773" rx="2.36780545"></rect>
                        </g>
                    </g>
                </g>
            </g>
        </g>
    </g>
</svg>