<?xml version="1.0" encoding="UTF-8"?>
<svg width="94px" height="94px" viewBox="0 0 94 94" version="1.1" xmlns="http://www.w3.org/2000/svg" xmlns:xlink="http://www.w3.org/1999/xlink">
    <!-- Generator: Sketch 44.1 (41455) - http://www.bohemiancoding.com/sketch -->
    <title>Icon</title>
    <desc>Created with Sketch.</desc>
    <defs></defs>
    <g id="Business-page" stroke="none" stroke-width="1" fill="none" fill-rule="evenodd">
        <g id="hcom_for_business" transform="translate(-1017.000000, -523.000000)">
            <g id="//-3-col-split" transform="translate(-1.000000, 477.000000)">
                <g id="03" transform="translate(877.000000, 48.000000)">
                    <g id="Icon" transform="translate(143.000000, 0.000000)">
                        <path d="M90,45 C90,80.775 80.775,90 45,90 C9.225,90 7.10542736e-15,80.775 7.10542736e-15,45 C7.10542736e-15,9.225 9.225,0 45,0 C80.775,0 90,9.225 90,45 Z" id="Squircle" stroke="#27AE60" stroke-width="3" fill="#FCFAF6"></path>
                        <path d="M67.0361569,33.0694242 L42.9069297,62.4490399 C42.4967162,62.9512581 42.0059323,63.3353015 41.4345634,63.6011817 C40.8631945,63.8670619 40.2552086,64 39.6105872,64 L39.4787335,64 C38.8048113,63.9704578 38.1748499,63.8005924 37.5888305,63.4903988 C37.0028111,63.1802053 36.5193524,62.7444637 36.1384398,62.183161 L23.7881432,44.546529 C23.1142209,43.5716349 22.8724916,42.5007446 23.0629479,41.3338259 C23.2534042,40.1669072 23.8320896,39.2437259 24.7990216,38.5642543 C25.7659536,37.8552404 26.8280977,37.6041351 27.985486,37.8109308 C29.1428743,38.0177265 30.0585158,38.6085626 30.7324381,39.5834567 L39.8742946,52.6558347 L60.4434719,27.5745941 C61.2052971,26.6587845 62.1722145,26.141803 63.3442533,26.023634 C64.516292,25.9054651 65.5564608,26.2304249 66.4647908,26.9985232 C67.3731209,27.7666216 67.878555,28.7415011 67.9811084,29.9231909 C68.0836618,31.1048807 67.7686811,32.1536146 67.0361569,33.0694242 Z" id="юде" fill="#27AE60"></path>
                    </g>
                </g>
            </g>
        </g>
    </g>
</svg>