<?xml version="1.0" encoding="UTF-8"?>
<svg width="99px" height="70px" viewBox="0 0 99 70" version="1.1" xmlns="http://www.w3.org/2000/svg" xmlns:xlink="http://www.w3.org/1999/xlink">
    <!-- Generator: Sketch 44.1 (41455) - http://www.bohemiancoding.com/sketch -->
    <title>50%</title>
    <desc>Created with Sketch.</desc>
    <defs></defs>
    <g id="Business-page" stroke="none" stroke-width="1" fill="none" fill-rule="evenodd">
        <g id="hcom_for_business" transform="translate(-623.000000, -535.000000)" fill="#B30077">
            <g id="//-3-col-split" transform="translate(-1.000000, 477.000000)">
                <g id="02" transform="translate(484.000000, 58.000000)">
                    <g id="50%" transform="translate(140.000000, 0.000000)">
                        <g transform="translate(31.900000, 32.812500)" id="10%">
                            <path d="M19.1951547,13.450839 C19.1951547,12.2984186 19.0412228,11.3125738 18.7333542,10.493275 C18.4254856,9.67397613 18.0134912,9.00774311 17.4973585,8.49455593 C16.9812259,7.98136874 16.3926625,7.60773807 15.7316505,7.37365268 C15.0706386,7.1395673 14.3869995,7.02252636 13.6807127,7.02252636 C13.0106458,7.02252636 12.3541712,7.1395673 11.7112691,7.37365268 C11.0683671,7.60773807 10.4933859,7.98136874 9.98630822,8.49455593 C9.47923056,9.00774311 9.07176355,9.67397613 8.76389497,10.493275 C8.45602639,11.3125738 8.3020944,12.2984186 8.3020944,13.450839 L8.3020944,23.2283564 C8.3020944,24.3447636 8.45602639,25.3081006 8.76389497,26.1183961 C9.07176355,26.9286917 9.47923056,27.5994263 9.98630822,28.13062 C10.4933859,28.6618138 11.0683671,29.0579523 11.7112691,29.3190476 C12.3541712,29.5801428 13.0106458,29.7106885 13.6807127,29.7106885 C14.3869995,29.7106885 15.0706386,29.589146 15.7316505,29.3460573 C16.3926625,29.1029686 16.9812259,28.7248364 17.4973585,28.2116492 C18.0134912,27.698462 18.4254856,27.032229 18.7333542,26.2129301 C19.0412228,25.3936313 19.1951547,24.3987834 19.1951547,23.2283564 L19.1951547,13.450839 Z M0.125507971,13.450839 C0.125507971,11.2720442 0.514865336,9.3588751 1.29359175,7.71127414 C2.07231816,6.06367318 3.10004051,4.69519455 4.37678962,3.60579719 C5.65353874,2.51639983 7.10683774,1.69711328 8.73673023,1.14791296 C10.3666227,0.598712643 12.03271,0.324116601 13.7350422,0.324116601 C15.4554843,0.324116601 17.1396812,0.598712643 18.7876837,1.14791296 C20.4356861,1.69711328 21.8980399,2.51639983 23.174789,3.60579719 C24.4515381,4.69519455 25.4792605,6.06367318 26.2579869,7.71127414 C27.0367133,9.3588751 27.4260706,11.2720442 27.4260706,13.450839 L27.4260706,23.2283564 C27.4260706,25.4251577 27.0367133,27.3518316 26.2579869,29.0084358 C25.4792605,30.6650401 24.4515381,32.0470234 23.174789,33.1544274 C21.8980399,34.2618313 20.4356861,35.090121 18.7876837,35.6393213 C17.1396812,36.1885216 15.4554843,36.4631177 13.7350422,36.4631177 C12.03271,36.4631177 10.3666227,36.1885216 8.73673023,35.6393213 C7.10683774,35.090121 5.65353874,34.2618313 4.37678962,33.1544274 C3.10004051,32.0470234 2.07231816,30.6650401 1.29359175,29.0084358 C0.514865336,27.3518316 0.125507971,25.4251577 0.125507971,23.2283564 L0.125507971,13.450839 Z M39.6230384,35.0586124 C39.3151699,35.5087766 38.975614,35.8058805 38.6043607,35.949933 C38.2331074,36.0939856 37.8482775,36.1660108 37.4498593,36.1660108 C37.1057709,36.1660108 36.7797973,36.1029887 36.4719287,35.9769428 C36.1640601,35.8508968 35.8924155,35.6753354 35.6569866,35.4502533 C35.4215576,35.2251712 35.2359338,34.9595783 35.1001094,34.6534666 C34.964285,34.347355 34.8963739,34.0232416 34.8963739,33.6811168 C34.8963739,33.4290249 34.9371206,33.1679336 35.0186152,32.897835 C35.1001098,32.6277365 35.2404596,32.3576421 35.4396686,32.0875435 L57.7419193,1.37749556 C58.031678,1.0173642 58.3485968,0.751771306 58.6926852,0.580708911 C59.0367736,0.409646516 59.3718021,0.324116601 59.6977806,0.324116601 C60.0237591,0.324116601 60.3452053,0.387138644 60.6621288,0.513184619 C60.9790523,0.639230594 61.2597518,0.814791998 61.5042357,1.0398741 C61.7487196,1.26495619 61.9433983,1.52604751 62.0882776,1.82315588 C62.2331569,2.12026425 62.3055955,2.43087289 62.3055955,2.75499111 C62.3055955,2.98907649 62.2739036,3.21415522 62.2105189,3.43023403 C62.1471342,3.64631285 62.0339489,3.86238842 61.8709597,4.07846723 L39.6230384,35.0586124 Z M31.3377931,8.40002192 C31.3377931,7.10354903 31.5415266,5.93764125 31.9489997,4.9022636 C32.3564728,3.86688594 32.908817,2.98457735 33.6060488,2.25531135 C34.3032806,1.52604535 35.122742,0.967850121 36.0644576,0.580708911 C37.0061733,0.193567701 38.0203134,0 39.1069084,0 C40.1935034,0 41.2121709,0.193567701 42.1629415,0.580708911 C43.1137122,0.967850121 43.9467558,1.52604535 44.6620975,2.25531135 C45.3774392,2.98457735 45.9388382,3.86688594 46.3463113,4.9022636 C46.7537845,5.93764125 46.957518,7.10354903 46.957518,8.40002192 C46.957518,9.69649481 46.7537845,10.8669042 46.3463113,11.9112851 C45.9388382,12.955666 45.3774392,13.8379746 44.6620975,14.5582373 C43.9467558,15.2785001 43.1137122,15.8321937 42.1629415,16.2193349 C41.2121709,16.6064761 40.1935034,16.8000438 39.1069084,16.8000438 C38.0203134,16.8000438 37.0061733,16.6064761 36.0644576,16.2193349 C35.122742,15.8321937 34.3032806,15.2785001 33.6060488,14.5582373 C32.908817,13.8379746 32.3564728,12.955666 31.9489997,11.9112851 C31.5415266,10.8669042 31.3377931,9.69649481 31.3377931,8.40002192 Z M36.0644576,8.40002192 C36.0644576,9.69649481 36.354212,10.6868412 36.9337293,11.3710908 C37.5132466,12.0553403 38.2376324,12.39746 39.1069084,12.39746 C39.9761844,12.39746 40.7141524,12.0553403 41.3208346,11.3710908 C41.9275168,10.6868412 42.2308534,9.69649481 42.2308534,8.40002192 C42.2308534,7.10354903 41.9275168,6.11770423 41.3208346,5.44245793 C40.7141524,4.76721164 39.9761844,4.42959355 39.1069084,4.42959355 C38.2376324,4.42959355 37.5132466,4.76721164 36.9337293,5.44245793 C36.354212,6.11770423 36.0644576,7.10354903 36.0644576,8.40002192 Z M50.3531103,28.0901055 C50.3531103,26.7936326 50.5568439,25.6277248 50.964317,24.5923471 C51.3717901,23.5569695 51.9241343,22.6746609 52.6213661,21.9453949 C53.3185978,21.2161289 54.1425867,20.6579337 55.0933573,20.2707924 C56.0441279,19.8836512 57.0627954,19.6900835 58.1493904,19.6900835 C59.2359854,19.6900835 60.254653,19.8836512 61.2054236,20.2707924 C62.1561942,20.6579337 62.9892379,21.2161289 63.7045796,21.9453949 C64.4199213,22.6746609 64.9813203,23.5569695 65.3887934,24.5923471 C65.7962665,25.6277248 66,26.7936326 66,28.0901055 C66,29.3865783 65.7962665,30.5569877 65.3887934,31.6013686 C64.9813203,32.6457496 64.4199213,33.5325597 63.7045796,34.2618257 C62.9892379,34.9910917 62.1561942,35.549287 61.2054236,35.9364282 C60.254653,36.3235694 59.2359854,36.5171371 58.1493904,36.5171371 C57.0627954,36.5171371 56.0441279,36.3235694 55.0933573,35.9364282 C54.1425867,35.549287 53.3185978,34.9910917 52.6213661,34.2618257 C51.9241343,33.5325597 51.3717901,32.6457496 50.964317,31.6013686 C50.5568439,30.5569877 50.3531103,29.3865783 50.3531103,28.0901055 Z M55.0797749,28.0901055 C55.0797749,29.4045849 55.3740567,30.3994329 55.9626289,31.0746792 C56.5512012,31.7499255 57.2801144,32.0875435 58.1493904,32.0875435 C58.5840284,32.0875435 58.986968,32.0020136 59.3582213,31.8309512 C59.7294746,31.6598888 60.0599756,31.4078007 60.3497343,31.0746792 C60.639493,30.7415577 60.8658635,30.3229112 61.0288528,29.8187273 C61.191842,29.3145434 61.2733354,28.7383419 61.2733354,28.0901055 C61.2733354,27.441869 61.191842,26.8701691 61.0288528,26.3749884 C60.8658635,25.8798078 60.639493,25.465663 60.3497343,25.1325415 C60.0599756,24.79942 59.7294746,24.5473318 59.3582213,24.3762694 C58.986968,24.205207 58.5840284,24.1196771 58.1493904,24.1196771 C57.2801144,24.1196771 56.5512012,24.4572952 55.9626289,25.1325415 C55.3740567,25.8077878 55.0797749,26.7936326 55.0797749,28.0901055 Z"></path>
                        </g>
                        <path d="M55.0572,0.70875 C54.2124,0.70875 53.8252,1.16375 53.8252,1.79375 C53.8252,2.38875 54.2124,2.94875 55.0572,2.94875 L62.8364,2.94875 L62.8364,21.88375 C62.8364,22.75875 63.5404,23.17875 64.1388,23.17875 C64.7372,23.17875 65.4764,22.75875 65.4764,21.88375 L65.4764,2.94875 L73.2908,2.94875 C74.1356,2.94875 74.5932,2.38875 74.5932,1.79375 C74.5932,1.16375 74.1356,0.70875 73.2908,0.70875 L55.0572,0.70875 Z M75.3852,11.83875 C75.3852,5.11875 80.278,0.28875 86.7196,0.28875 C93.1612,0.28875 98.054,5.11875 98.054,11.83875 C98.054,18.55875 93.1612,23.38875 86.7196,23.38875 C80.278,23.38875 75.3852,18.55875 75.3852,11.83875 Z M78.0252,11.83875 C78.0252,17.36875 81.7916,21.00875 86.7196,21.00875 C91.6476,21.00875 95.414,17.36875 95.414,11.83875 C95.414,6.30875 91.6476,2.66875 86.7196,2.66875 C81.7916,2.66875 78.0252,6.30875 78.0252,11.83875 Z" id="TO"></path>
                        <path d="M20.8362,13.41375 C20.8362,18.48875 16.9642,21.00875 13.0922,21.00875 C9.22019999,21.00875 5.34819999,18.48875 5.34819999,13.41375 L5.34819999,1.68875 C5.34819999,0.88375 4.67939999,0.49875 4.01059999,0.49875 C3.34179999,0.49875 2.70819999,0.88375 2.70819999,1.65375 L2.70819999,13.27375 C2.70819999,19.99375 7.95299999,23.38875 13.0922,23.38875 C18.2314,23.38875 23.4762,19.99375 23.4762,13.27375 L23.4762,1.75875 C23.4762,0.91875 22.8074,0.49875 22.1738,0.49875 C21.505,0.49875 20.8362,0.91875 20.8362,1.79375 L20.8362,13.41375 Z M30.6526,2.94875 L30.6526,14.11375 L36.9534,14.11375 C41.5646,14.11375 43.5006,11.48875 43.5006,8.86375 C43.5006,5.95875 41.283,2.94875 37.0942,2.94875 L30.6526,2.94875 Z M36.9534,16.38875 L30.6526,16.38875 L30.6526,21.98875 C30.6526,22.79375 30.019,23.17875 29.3854,23.17875 C28.7518,23.17875 28.1182,22.79375 28.1182,22.02375 L28.1182,1.93375 C28.1182,1.19875 28.7166,0.70875 29.4206,0.70875 L37.059,0.70875 C43.1486,0.70875 45.9998,4.69875 45.9998,8.72375 C45.9998,12.92375 43.1134,16.38875 36.9534,16.38875 Z" id="UP"></path>
                        <path d="M9.1883,58.419375 C8.9078,56.188125 7.0004,55.1840625 5.0369,55.1840625 C2.9612,55.1840625 0.8855,56.4670313 0.8855,58.865625 C0.8855,63.328125 4.3637,69.575625 14.8544,69.575625 C23.6621,69.575625 28.655,63.105 28.655,56.8575 C28.655,50.4426563 23.9426,44.4740625 14.5739,44.4740625 L9.8054,44.4740625 L9.8054,40.34625 L22.0913,40.34625 C24.9524,40.34625 26.2988,38.6170313 26.2988,36.8878125 C26.2988,35.1585938 24.9524,33.429375 22.0913,33.429375 L6.215,33.429375 C3.5222,33.429375 1.5587,34.7123438 1.5587,37.2225 L1.5587,47.8767188 C1.5587,49.8848438 3.4661,51.2235938 5.7662,51.2235938 L14.5739,51.2235938 C18.3326,51.2235938 20.24,54.0126563 20.24,56.8017188 C20.24,59.6465625 18.3887,62.9376563 14.7983,62.9376563 C11.9933,62.9376563 9.7493,62.1567188 9.1883,58.419375 Z" id="5"></path>
                    </g>
                </g>
            </g>
        </g>
    </g>
</svg>